<svg width="33" height="32" viewBox="0 0 33 32" fill="none" xmlns="http://www.w3.org/2000/svg">
<path d="M1.16602 11.4565C-0.248086 17.0144 0.990214 21.9174 4.84908 26.0319C4.94948 26.1382 5.05193 26.2445 5.15425 26.3469C7.22718 28.4197 9.80909 29.6995 11.8548 30.5902C12.7329 30.9736 17.2383 31.4393 18.4574 31.2577C25.7018 30.1759 30.4692 26.09 32.1296 19.2541C32.4466 17.9151 32.6045 16.5433 32.5999 15.1673C32.6077 11.9257 31.2429 8.15715 28.4282 5.33468C28.1383 5.09508 27.8496 4.84687 27.5703 4.60631C26.9648 4.08572 26.3389 3.54668 25.684 3.08702C20.6815 -0.433893 15.4838 -0.453561 10.236 1.41351C5.48454 3.10219 2.43327 6.48199 1.16602 11.4565ZM10.2563 3.07718C14.8608 1.16366 19.4808 0.825983 23.9869 3.69189C24.8107 4.21644 27.0073 5.99173 27.353 6.25838L27.3753 6.27475L27.3936 6.29513C29.1516 8.15933 31.1646 11.568 31.1202 15.0719C31.1055 16.5702 30.9027 18.0608 30.5164 19.5085C29.3718 23.6687 26.6354 26.7007 22.1507 28.7745C17.5914 30.9575 11.0531 28.7506 9.3135 27.6021C7.39073 26.2875 5.70829 24.6521 4.33969 22.7674C2.1934 19.7287 1.71187 15.3607 2.8652 11.3677C3.40489 9.524 4.34815 7.82349 5.62654 6.38954C6.90493 4.95559 8.48642 3.82412 10.2563 3.07718Z" fill="#4F3B31"/>
<path d="M23.4301 12.9829C23.0241 12.5133 22.62 12.0419 22.2178 11.5687C21.7801 11.0561 21.3413 10.5447 20.9014 10.0342C20.7331 9.82889 20.5358 9.64918 20.3157 9.5008C20.1839 9.41815 19.8994 9.40749 19.7887 9.5098C19.7281 9.58254 19.6873 9.66969 19.6702 9.76283C19.6531 9.85597 19.6603 9.95195 19.6912 10.0415C19.8102 10.2597 19.9514 10.4652 20.1125 10.6545C20.1483 10.6995 20.1839 10.7444 20.2189 10.7895C20.7225 11.4389 21.2266 12.0879 21.7313 12.7366C22.3264 13.5021 22.921 14.2679 23.5152 15.034C23.564 15.1019 23.6069 15.1738 23.6436 15.2488C23.6525 15.2658 23.6619 15.2833 23.671 15.3016C23.3446 15.2855 23.024 15.2691 22.7072 15.2528C21.9259 15.2129 21.1877 15.1752 20.4396 15.1465C18.8478 15.0857 16.5226 15.0266 14.2738 14.969C12.3417 14.9201 10.5166 14.8733 9.17612 14.8273C8.91321 14.8204 8.65027 14.8391 8.39095 14.8829C7.9948 14.9459 7.79386 15.1497 7.79413 15.489C7.79413 15.8677 8.01856 16.097 8.4255 16.1347C8.53769 16.1451 8.64994 16.1559 8.76223 16.1671C9.22381 16.2125 9.70123 16.259 10.1726 16.2652C12.0534 16.2896 14.7156 16.3087 17.2896 16.3271C19.284 16.3407 21.1676 16.3544 22.6109 16.3701C22.716 16.3739 22.8207 16.3845 22.9244 16.4016L22.9951 16.4116C22.9635 16.4456 22.9339 16.478 22.9054 16.5087C22.8027 16.6203 22.7175 16.7128 22.6287 16.8016C21.3814 18.0719 20.3389 19.5281 19.5383 21.1182L19.5129 21.1668C19.4337 21.3046 19.3712 21.4514 19.3269 21.604C19.312 21.6945 19.3183 21.7873 19.345 21.875C19.353 21.9102 19.3608 21.9455 19.3655 21.9801L19.3754 22.0519L19.4464 22.0383C19.488 22.031 19.5299 22.0259 19.5721 22.0229C19.6794 22.0254 19.7849 21.9943 19.8737 21.934C19.9723 21.8411 20.0609 21.738 20.1379 21.6265C20.1976 21.5425 20.2627 21.4625 20.3328 21.3871C20.9022 20.8048 21.4728 20.2236 22.0448 19.6436C22.791 18.8853 23.5356 18.1258 24.2788 17.3651C24.6082 17.0485 24.9051 16.6998 25.1651 16.3242C25.5361 15.7481 25.4793 15.2689 24.9766 14.7218C24.4967 14.2 23.9906 13.6309 23.4301 12.9829Z" fill="#4F3B31"/>
</svg>
