<svg width="33" height="33" viewBox="0 0 33 33" fill="none" xmlns="http://www.w3.org/2000/svg">
<path d="M3.46612 25.5252C3.58928 24.738 3.91856 24.0361 4.22445 23.4531C4.74037 22.4697 5.48577 21.6318 6.20675 20.8219C6.32457 20.6893 6.4421 20.5567 6.55939 20.4239C7.95916 18.8304 9.40674 17.184 11.0572 15.7046C12.2508 14.6347 13.6302 14.2251 15.273 14.4519C15.3855 14.4676 15.4982 14.4817 15.6111 14.4958C16.2568 14.5769 16.8667 14.6535 17.4229 14.9726C17.5539 15.042 17.6952 15.0901 17.8416 15.1151C17.929 15.1309 18.0187 15.1288 18.1053 15.1093C18.1919 15.0896 18.2737 15.0528 18.3455 15.0008C18.4305 14.9427 18.503 14.8681 18.5585 14.7815C18.6142 14.695 18.6515 14.5982 18.6688 14.497C18.7016 14.3 18.682 14.0977 18.6121 13.9104C18.5422 13.7232 18.4243 13.5571 18.27 13.4287C17.7843 12.9935 17.1875 12.6987 16.5445 12.5765C15.84 12.4297 15.1274 12.3239 14.4104 12.2598C12.824 12.1144 11.4442 12.5239 10.3091 13.4776C9.20718 14.3859 8.15224 15.3488 7.14832 16.3629C6.09102 17.4524 5.08231 18.6209 4.1069 19.7507L3.67588 20.2496C2.82717 21.2406 2.12526 22.3465 1.59131 23.5338C1.15848 24.4837 0.92304 25.5103 0.899062 26.5525V26.5556C0.895143 28.7308 1.72675 30.3751 3.37103 31.4429C4.64959 32.2731 5.97413 32.6891 7.33041 32.6891C8.16173 32.6842 8.98588 32.5362 9.76632 32.2521C10.273 32.0723 10.7246 31.8994 11.147 31.7236C12.6352 31.1048 13.9515 30.1042 15.4146 28.4801C16.2688 27.5323 17.1091 26.5448 17.9223 25.5897C18.3353 25.1046 18.7494 24.6203 19.1646 24.137C19.3032 23.9765 19.45 23.8169 19.5921 23.6622C19.8367 23.3964 20.0897 23.1213 20.3136 22.8282C20.5444 22.5382 20.7093 22.2024 20.7975 21.8435C20.8248 21.7076 20.815 21.5669 20.7692 21.4361C20.7232 21.3052 20.6429 21.189 20.5363 21.0992C20.4211 20.997 20.2808 20.9267 20.1295 20.8953C19.9782 20.864 19.8212 20.8727 19.6744 20.9206C19.4044 21.01 19.1552 21.152 18.9415 21.3384C18.6831 21.5805 18.4411 21.8393 18.2171 22.1128L18.1155 22.2313C17.5912 22.8401 17.0681 23.4498 16.5462 24.0603C15.6669 25.0873 14.7576 26.1492 13.8545 27.1859C12.4308 28.8194 10.6562 29.8238 8.57776 30.1711C7.84669 30.3064 7.09451 30.2799 6.37498 30.0933C4.2443 29.5033 3.3803 28.3653 3.39271 26.1656C3.39903 25.9805 3.41919 25.796 3.45304 25.6138L3.46612 25.5252Z" fill="#4F3B31"/>
<path d="M29.0436 0.980384C28.0864 0.755736 27.1117 0.760134 26.1687 0.766094L25.9443 0.767138C24.8645 0.771283 23.8562 1.09672 22.8618 1.76186C21.2481 2.81918 19.7608 4.05508 18.4287 5.44575C17.5341 6.3937 16.5983 7.43389 15.5683 8.62554C15.0641 9.20853 14.5992 9.95837 14.9743 11.0948C14.9799 11.1117 14.9889 11.1272 15.0007 11.1406C15.0124 11.1539 15.0268 11.1648 15.0428 11.1726C15.059 11.1803 15.0767 11.1848 15.0946 11.1858C15.1125 11.1867 15.1305 11.1842 15.1473 11.1783C16.0486 10.8571 16.6946 10.4804 17.2408 9.95644L17.2703 9.92807C17.9572 9.26902 18.6679 8.58745 19.329 7.88034C20.9399 6.15804 22.3898 4.87025 23.8918 3.82708C24.6337 3.29555 25.5253 3.00893 26.4403 3.00777C27.1467 2.99478 27.8526 3.05364 28.5468 3.18345C29.5742 3.38879 30.6889 4.13762 30.7337 5.62309C30.7709 6.84013 30.5231 7.77667 29.9538 8.57084C29.722 8.89408 29.4931 9.22018 29.2642 9.5464C28.5355 10.5849 27.782 11.6582 26.9385 12.6214C25.8769 13.8333 24.4136 15.3535 22.5043 16.3632C20.9396 17.1913 19.1624 17.5407 17.3974 17.3675C16.6619 17.3197 15.9664 17.0185 15.431 16.5159C15.2013 16.2961 14.9547 16.0944 14.6935 15.9124C14.3374 15.6697 13.9218 15.681 13.6592 15.941C13.5192 16.0635 13.4246 16.2291 13.3907 16.4113C13.3568 16.5934 13.3855 16.7815 13.4721 16.9457C13.6058 17.2337 13.7659 17.509 13.9503 17.7681C14.5503 18.5686 15.4131 19.1035 16.5886 19.4031C17.1261 19.5381 17.6787 19.6052 18.233 19.6027C19.0867 19.5869 19.9354 19.4699 20.7612 19.2545C22.4461 18.8503 24.0039 17.957 25.5238 16.5235C28.0896 14.1035 30.1344 11.2826 31.6293 9.09542C32.3005 8.11249 32.6709 6.95808 32.6959 5.77119C32.7247 4.82971 32.6487 3.62782 31.7978 2.68389C30.9828 1.78141 30.0826 1.22421 29.0436 0.980384Z" fill="#4F3B31"/>
</svg>
