<svg width="25" height="24" viewBox="0 0 25 24" fill="none" xmlns="http://www.w3.org/2000/svg">
<path d="M21.0182 4.44175C21.0737 4.39214 21.118 4.33123 21.1481 4.2631C21.1782 4.19498 21.1934 4.1212 21.1927 4.04673C21.1919 3.97225 21.1753 3.89879 21.1439 3.83127C21.1124 3.76375 21.0669 3.70374 21.0104 3.65523C20.9509 3.60417 20.8918 3.55337 20.8332 3.50285C20.3859 3.11826 19.9235 2.72005 19.4397 2.38037C15.7441 -0.220602 11.9043 -0.235235 8.02746 1.14417C4.51735 2.39218 2.26322 4.88901 1.32673 8.56391C0.282064 12.6697 1.19686 16.2918 4.04759 19.331C4.12176 19.4095 4.19745 19.488 4.27304 19.5631C5.80441 21.0945 7.7118 22.0399 9.2231 22.6978C9.87177 22.9812 13.2001 23.3252 14.1007 23.191C19.4525 22.3918 22.9744 19.3733 24.201 14.3233C24.4353 13.3341 24.5519 12.3208 24.5485 11.3042C24.5432 10.2367 24.3637 9.17714 24.017 8.16742C23.9917 8.09189 23.9501 8.02287 23.8951 7.96531C23.84 7.90775 23.773 7.86306 23.6986 7.83445C23.6243 7.80584 23.5446 7.79401 23.4652 7.79981C23.3857 7.80561 23.3086 7.8289 23.2392 7.868L23.2247 7.87628C23.1144 7.9394 23.0299 8.03928 22.9859 8.15844C22.9418 8.2776 22.9411 8.40844 22.9838 8.52809C23.2967 9.39599 23.4563 10.3117 23.4554 11.2343C23.4445 12.3411 23.2947 13.4422 23.0093 14.5117C22.1638 17.5851 20.1422 19.825 16.8291 21.357C13.461 22.9697 8.63083 21.3394 7.34568 20.4909C5.92522 19.5198 4.68231 18.3117 3.67128 16.9193C2.08571 14.6744 1.72999 11.4476 2.58201 8.49771C2.98073 7.13569 3.67755 5.87946 4.62196 4.82013C5.56636 3.7608 6.73468 2.92492 8.04219 2.3731C11.4437 0.95949 14.8567 0.71013 18.1856 2.82722C18.632 3.11139 19.77 4.00499 20.3452 4.46132C20.4417 4.53788 20.5621 4.57785 20.6853 4.57415C20.8084 4.57046 20.9264 4.52395 21.0182 4.44175Z" fill="#E1823A"/>
<path d="M11.4061 14.955C11.6341 14.7383 11.7593 14.6287 11.8739 14.5089C15.5493 10.669 19.5745 7.21203 23.6235 3.78174C23.7765 3.65217 23.9331 3.48687 24.1143 3.44045C24.3326 3.38465 24.6888 3.44883 24.7863 3.56741C24.8505 3.65503 24.891 3.75766 24.904 3.86546C24.9171 3.97325 24.9022 4.08259 24.8608 4.18298C24.7657 4.43255 24.5339 4.64628 24.3235 4.83308C23.0685 5.94828 21.7784 7.02504 20.5455 8.16326C17.9683 10.5434 15.4075 12.9413 12.8631 15.3568C11.7482 16.413 11.3191 16.4558 10.2932 15.3273C9.61788 14.584 7.57981 12.0791 6.95566 11.2899C6.86748 11.1672 6.78893 11.0379 6.72073 10.9031C6.57995 10.6534 6.48792 10.3783 6.76776 10.1848C7.07948 9.96922 7.30068 10.1942 7.48546 10.4284C7.67245 10.6655 7.8319 10.926 8.03211 11.1507C8.65365 11.8482 10.7345 14.2194 11.4061 14.955Z" fill="#E1823A"/>
</svg>
