<svg width="32" height="24" viewBox="0 0 32 24" fill="none" xmlns="http://www.w3.org/2000/svg">
<path d="M0.0872341 22.023C0.00660841 22.5548 0.433917 23.1613 1.02011 23.3479C1.32701 23.4456 1.64513 23.5018 1.96633 23.5151C2.23449 23.5251 2.50264 23.5372 2.7708 23.5496C3.39846 23.5779 4.04118 23.6071 4.68368 23.6071C4.94183 23.6071 5.19994 23.6024 5.45665 23.5909C6.70644 23.5361 7.97538 23.4543 9.20246 23.3753C10.6723 23.2809 12.192 23.1834 13.6871 23.1305C17.5793 22.993 21.4863 22.4463 25.2648 21.9177L25.755 21.8491C26.6408 21.7255 27.5569 21.5973 28.45 21.4164C28.4895 21.4086 28.5303 21.4015 28.5717 21.3944C28.9305 21.3319 29.4726 21.2379 29.6122 20.3966C29.6197 20.351 29.6106 20.3042 29.5864 20.2652C29.5623 20.2261 29.5249 20.1974 29.4813 20.1848C29.3875 20.1575 29.3006 20.1273 29.2182 20.0987C29.0494 20.031 28.8723 19.9868 28.6919 19.9676L28.1225 19.9333C26.8089 19.8541 25.4506 19.7723 24.1119 19.7358C20.3186 19.6299 16.5224 19.7307 12.7395 20.0375C10.3025 20.2383 7.82111 20.4026 5.42129 20.5616C4.20565 20.6421 2.98994 20.7243 1.7743 20.808C1.51469 20.8197 1.25763 20.865 1.0092 20.9428C0.770278 21.0136 0.556379 21.153 0.392925 21.3447C0.229473 21.5362 0.123317 21.7717 0.0872341 22.023Z" fill="#4F3B31"/>
<path d="M0.73786 12.4739C0.731935 12.6729 0.781372 12.8695 0.880406 13.041C0.979438 13.2125 1.12399 13.3518 1.29739 13.4429C1.59193 13.5906 1.91205 13.6777 2.23952 13.6993C2.67376 13.7265 3.12943 13.7499 3.59209 13.7499C3.81841 13.7499 4.04624 13.7442 4.27399 13.7307C5.63265 13.6511 7.01167 13.5569 8.34602 13.466C10.844 13.2959 13.4269 13.1192 15.9688 13.0303C19.429 12.9087 22.9079 12.4748 26.2722 12.0552C27.1543 11.9457 28.0356 11.8375 28.9166 11.7308C28.9867 11.7226 29.0578 11.7158 29.1301 11.7091C29.6456 11.6607 30.2876 11.6005 30.9428 10.884C30.963 10.8618 30.9778 10.8349 30.9855 10.8056C30.9934 10.7764 30.9943 10.7456 30.9878 10.716C30.9816 10.6864 30.9682 10.6587 30.949 10.6355C30.9301 10.6122 30.9058 10.594 30.8783 10.5824C29.6814 10.0797 28.6463 10.0109 27.6035 9.98004L26.6934 9.95321C23.8109 9.8676 20.8308 9.77907 17.8876 9.89461C12.9403 10.0892 8.0954 10.5808 2.72887 11.1558C2.2244 11.2121 1.7327 11.3543 1.27435 11.5767C1.11113 11.6594 0.974118 11.7875 0.879183 11.9462C0.784249 12.105 0.735267 12.2879 0.73786 12.4739Z" fill="#4F3B31"/>
<path d="M1.75611 2.95737C2.10502 3.13114 2.4824 3.23731 2.86924 3.27044C3.08139 3.2865 3.29365 3.30306 3.50603 3.32009C4.48623 3.39749 5.49721 3.4774 6.49869 3.4774C6.5761 3.4774 6.65365 3.47744 6.73105 3.47598C8.62424 3.4517 10.5484 3.4066 12.4092 3.36297C14.8781 3.30529 17.4311 3.24558 19.9414 3.23371C23.5346 3.21674 27.1444 2.79726 30.6356 2.39166L30.7475 2.37873C30.9676 2.33567 31.1778 2.25117 31.3677 2.12957C31.4948 2.06093 31.6389 1.98353 31.8159 1.89992C31.8475 1.88508 31.8743 1.86137 31.8933 1.83156C31.9122 1.80176 31.9224 1.76708 31.9228 1.73156C31.9233 1.69603 31.9138 1.66112 31.8956 1.63088C31.8772 1.60065 31.8509 1.57631 31.8196 1.56074C31.6373 1.46947 31.4839 1.38186 31.3485 1.30373C31.1362 1.1578 30.8977 1.05635 30.6465 1.00527L29.9606 0.920956C28.628 0.75667 27.25 0.585983 25.8866 0.527935C18.5403 0.214696 11.0809 0.508786 3.86732 0.793366L2.57272 0.844304C2.37693 0.852177 2.18242 0.880361 1.99223 0.928444C1.77466 0.970282 1.57588 1.08192 1.42476 1.24713C1.27364 1.41234 1.17803 1.62249 1.15198 1.84698C1.11846 2.07419 1.15958 2.30636 1.26886 2.50722C1.37813 2.70809 1.54948 2.86637 1.75611 2.95737Z" fill="#4F3B31"/>
</svg>
