<svg width="24" height="25" viewBox="0 0 24 25" fill="none" xmlns="http://www.w3.org/2000/svg">
<g clip-path="url(#clip0_73_954)">
<path d="M23.925 15.3606C23.9276 14.3523 23.9304 13.3094 23.9244 12.2838C23.9192 11.3486 23.886 10.3986 23.8538 9.47987L23.8332 8.88634C23.8256 8.66161 23.8196 8.43671 23.8134 8.21198C23.7935 7.48643 23.7737 6.73616 23.7005 6.00168C23.6253 5.25717 23.4843 4.5208 23.279 3.80123C22.7051 1.78542 20.7915 0.871826 19.2462 0.871826H19.2226C16.4932 0.888388 13.7185 0.964577 11.0359 1.03816C10.0975 1.06388 9.1591 1.08877 8.22078 1.11283L7.68803 1.12581C6.63144 1.151 5.53883 1.17708 4.46587 1.24402C2.52723 1.36491 1.23926 2.15525 0.528683 3.66011C0.321734 4.0984 0.200359 4.57214 0.171068 5.05595C-0.00952703 8.59863 0.0712954 12.1995 0.149543 15.6817C0.159658 16.1313 0.169581 16.5805 0.1793 17.0292L0.18614 17.3496C0.206669 18.3066 0.227992 19.2961 0.234141 20.269C0.246736 22.2723 1.98207 24.1548 3.94769 24.2967C4.38061 24.3199 4.81448 24.3194 5.24736 24.2953C5.53625 24.2845 5.83536 24.2726 6.12673 24.277C7.4268 24.2949 8.74859 24.3204 10.0269 24.3449C10.7552 24.3588 11.4834 24.3723 12.2116 24.3855C12.734 24.3947 13.2565 24.4029 13.7794 24.4104C14.6949 24.4242 15.6416 24.4384 16.5723 24.46C16.7361 24.4692 16.8989 24.4936 17.0582 24.5329C17.1376 24.5496 17.216 24.5663 17.2951 24.5799C17.3007 24.5809 17.3065 24.5813 17.3122 24.5813H18.327C18.3319 24.5813 18.3369 24.581 18.3419 24.5803C18.5501 24.5495 18.7592 24.5222 18.9681 24.495C19.4216 24.4355 19.8904 24.3749 20.3454 24.2758C22.3543 23.8382 23.9652 21.7568 23.9371 19.6361C23.9179 18.2115 23.9216 16.7624 23.925 15.3606ZM22.5961 17.5981C22.5981 18.3187 22.5998 19.0394 22.6013 19.7601C22.6035 21.0946 21.5089 22.5724 20.2586 22.9226C19.506 23.1442 18.7277 23.2661 17.9436 23.2851C16.846 23.295 15.7543 23.2464 14.5985 23.1959C14.1436 23.1761 13.6811 23.1555 13.2081 23.1383L13.3195 14.3789C13.5159 14.3735 13.7078 14.369 13.8962 14.3638C14.4375 14.35 14.9487 14.3369 15.4614 14.3168C15.7362 14.3085 16.0099 14.2796 16.2804 14.2306C16.6618 14.1584 16.8734 13.9114 16.8465 13.5703C16.8187 13.2175 16.5674 12.9985 16.1906 12.9985C15.8824 12.9985 15.5695 13.0154 15.2673 13.0314C15.1514 13.0376 15.0355 13.0438 14.9196 13.0491C14.5545 13.0659 14.1895 13.0831 13.8097 13.1013L13.3734 13.1221C13.3719 12.937 13.3698 12.7523 13.3671 12.568C13.3458 10.9439 13.3257 9.40998 13.9225 7.92138C14.4183 6.68459 15.7206 6.08272 16.9518 6.52177C17.2035 6.62349 17.4426 6.75386 17.6645 6.91033C17.8227 7.01248 17.9863 7.11859 18.157 7.20557C18.2727 7.26507 18.5687 7.39616 18.8167 7.33447C19.0995 7.26505 19.2225 6.99244 19.1377 6.62292C19.0777 6.3689 18.9633 6.13093 18.8023 5.92546C18.6414 5.71999 18.4377 5.55192 18.2055 5.43284C17.705 5.1539 17.1514 4.98349 16.5806 4.93271C16.01 4.88193 15.435 4.9519 14.8931 5.13808C13.8767 5.49589 13.0782 6.2719 12.6437 7.32314C12.2603 8.25991 12.0524 9.25914 12.03 10.2711C12.0123 10.948 12.0164 11.6169 12.0207 12.3251C12.0224 12.6089 12.0241 12.8966 12.0244 13.1896L11.7086 13.2161C11.3952 13.2426 11.0991 13.2676 10.8074 13.2876C10.6983 13.2951 10.5861 13.2953 10.4772 13.2955C10.4026 13.2955 10.3279 13.2955 10.2536 13.298C9.72435 13.3141 9.60177 13.6055 9.59215 13.8476C9.57807 14.1998 9.8149 14.4205 10.2255 14.4377C10.5578 14.4517 10.8945 14.4431 11.2202 14.4349C11.3634 14.4312 11.5065 14.4274 11.6496 14.4256C11.7263 14.4245 11.803 14.425 11.8935 14.4252H11.9464L12.0316 23.0348H11.8701C11.642 23.0348 11.3923 23.0348 11.1424 23.0348C10.5188 23.0355 9.89504 23.0345 9.27103 23.0318C7.87169 23.0277 6.42475 23.0237 5.00181 23.0482C3.9345 23.0627 3.03906 22.7575 2.4224 22.1538C1.774 21.5191 1.42888 20.566 1.42442 19.3982L1.41906 17.9885C1.40478 14.2775 1.38991 10.44 1.39496 6.66583C1.38335 5.78478 1.594 4.91501 2.00746 4.1369C2.38253 3.44774 2.93642 3.01833 3.60921 2.89496C4.67344 2.69979 5.71457 2.52226 6.75182 2.49429C10.0196 2.40592 14.3215 2.30368 18.6172 2.29594H18.6289C20.6356 2.29594 21.821 3.24066 22.1519 5.10413C22.3829 6.4041 22.6279 7.92009 22.6112 9.46065C22.5811 12.1736 22.5889 14.9311 22.5961 17.5981Z" fill="#E79D64"/>
</g>
<defs>
<clipPath id="clip0_73_954">
<rect width="24" height="24" fill="white" transform="translate(0 0.726562)"/>
</clipPath>
</defs>
</svg>
