<svg width="24" height="25" viewBox="0 0 24 25" fill="none" xmlns="http://www.w3.org/2000/svg">
<g clip-path="url(#clip0_73_956)">
<path d="M16.7352 8.84228C15.5759 7.713 14.085 7.59114 12.8444 8.52438C12.3567 8.89117 11.8877 9.40609 11.4107 10.0982C10.8032 10.9802 10.6464 12.0555 10.5082 13.004C10.2635 14.682 10.451 16.3483 10.6322 17.959C10.659 18.1971 10.7207 18.7445 11.2555 18.7444C11.2726 18.7444 11.2903 18.7439 11.3085 18.7428C11.8396 18.7087 11.8416 18.2544 11.8429 17.9536C11.8429 17.9247 11.8429 17.8965 11.8437 17.869C11.8504 17.5083 11.8416 17.142 11.8331 16.7879C11.821 16.282 11.8083 15.7588 11.8415 15.2493C11.9032 14.1805 12.0286 13.1163 12.2171 12.0624C12.3809 11.1809 12.872 10.3938 13.5919 9.85917C14.3571 9.27717 15.0401 9.34591 15.6808 10.0688C16.1658 10.6115 16.4893 11.2792 16.6145 11.9962C16.7565 12.8294 16.8544 13.6857 16.9489 14.5141C16.9858 14.837 17.0227 15.16 17.0621 15.4823L17.0452 15.4846C17.0221 15.4877 17.0007 15.4986 16.9848 15.5156C16.9689 15.5327 16.9592 15.5546 16.9576 15.5778C16.9476 15.724 16.9373 15.8701 16.9267 16.0163C16.9014 16.3681 16.8752 16.7321 16.8568 17.0908L16.8546 17.1343C16.833 17.3942 16.8357 17.6556 16.8622 17.9151C16.9241 18.3741 17.2471 18.7041 17.666 18.7362C18.0693 18.767 18.4442 18.4938 18.5985 18.0567C18.6335 17.9531 18.6553 17.8455 18.6633 17.7364C18.8171 15.9883 18.9047 13.6875 18.2118 11.3939C17.8914 10.333 17.4082 9.49805 16.7352 8.84228Z" fill="#E79D64"/>
<path d="M7.12946 17.7406C7.13585 18.0542 7.21398 18.3623 7.35785 18.6412C7.44815 18.8156 7.74825 18.9062 7.93366 18.9062C7.93966 18.9062 7.94546 18.9062 7.95126 18.9062C8.12536 18.9006 8.3405 18.6911 8.38791 18.5299C8.46076 18.2628 8.4903 17.9858 8.47544 17.7093C8.41642 16.0912 8.34844 14.4465 8.28294 12.8559L8.15242 9.67467C8.14259 9.43241 8.12401 8.9813 7.57545 8.93606C7.55742 8.93479 7.53934 8.93818 7.523 8.9459C7.10162 9.1502 7.11492 9.53449 7.12565 9.84334C7.12751 9.89616 7.12936 9.94867 7.12917 9.99991C7.12149 12.1206 7.11421 14.917 7.12946 17.7406Z" fill="#E79D64"/>
<path d="M7.60532 5.80175C7.53872 5.7505 7.46988 5.69757 7.40939 5.64249C7.39535 5.62959 7.37794 5.62097 7.35918 5.61761C7.34042 5.61425 7.32108 5.61631 7.30345 5.62352C6.63715 5.89312 6.59466 6.35706 6.6763 6.69877C6.71645 6.83541 6.78518 6.96198 6.87794 7.07007C6.97069 7.17815 7.08535 7.26528 7.21432 7.32572C7.25269 7.33967 7.29333 7.34636 7.33414 7.34541C7.54571 7.34541 7.83116 7.19845 7.92382 7.04845C7.99436 6.92545 8.03804 6.7889 8.05202 6.6478C8.06601 6.50671 8.04998 6.36427 8.00496 6.22982C7.93246 6.05366 7.76613 5.92578 7.60532 5.80175Z" fill="#E79D64"/>
<path d="M23.4928 4.76182C23.1429 1.88871 20.7251 0.735431 18.4852 0.86812C17.1558 0.94612 15.8393 0.987722 14.2715 1.02608C12.8511 1.0609 11.3945 1.09083 10.1094 1.11719C8.26531 1.15516 6.3584 1.19449 4.46505 1.24682C2.29128 1.30701 0.538501 2.70728 0.201419 4.65217C0.0660749 5.43266 0.0621351 6.22033 0.0704957 7.09506C0.0949875 9.64958 0.132365 12.2307 0.168857 14.7268L0.172891 14.9971C0.187382 16.0012 0.201535 17.0055 0.215372 18.0098C0.217732 18.1789 0.223633 18.3485 0.229731 18.5181L0.230236 18.5317C0.254969 18.9519 0.250799 19.3732 0.217749 19.7928C0.100798 20.9135 0.529748 22.1082 1.36532 22.9888C2.29414 23.9676 3.61049 24.4652 5.07291 24.3906C6.66872 24.308 8.2965 24.3238 9.87065 24.339L9.98465 24.34C11.8527 24.358 13.7525 24.4055 15.5921 24.4517L16.5196 24.4748C16.6758 24.4841 16.8308 24.5076 16.9827 24.545C17.0623 24.562 17.1421 24.5788 17.2214 24.5924C17.2328 24.5944 17.2444 24.5954 17.256 24.5954H18.2625C18.2723 24.5954 18.2823 24.5946 18.292 24.5932C18.4931 24.5637 18.6953 24.5371 18.8967 24.5107L18.9119 24.5087C19.3634 24.4497 19.8306 24.3888 20.2858 24.29C22.2494 23.8634 23.9131 21.8268 23.9186 19.8429C23.92 19.3753 23.9217 18.9077 23.9235 18.4401L23.9244 18.2054C23.9343 15.6425 23.9451 12.9923 23.89 10.3827C23.8497 8.48467 23.7161 6.59349 23.4928 4.76182ZM22.401 19.7045C22.4071 21.2369 21.0705 22.6716 19.3581 22.9707C18.0461 23.1999 16.7049 23.122 15.4078 23.0469C14.9263 23.019 14.4284 22.99 13.9336 22.977C13.3719 22.9622 12.7999 22.9332 12.2436 22.905L12.1944 22.9025C11.955 22.8904 11.7154 22.8783 11.4778 22.8675H11.4667C10.8614 22.8675 10.256 22.8667 9.65063 22.8652C8.94813 22.864 8.23472 22.8629 7.51757 22.8629C6.57478 22.8629 5.7997 22.8648 5.07822 22.8692H5.04645C3.9875 22.8692 3.11397 22.555 2.52027 21.9605C1.90295 21.3424 1.58082 20.4192 1.58899 19.2904C1.60807 16.6363 1.59655 13.9494 1.58534 11.3508C1.57904 9.86705 1.57255 8.3329 1.57176 6.81707C1.55699 5.94406 1.75446 5.08053 2.14718 4.30071C2.59256 3.44418 3.38809 2.98966 4.65065 2.87035C6.42232 2.70313 7.8519 2.61204 9.14958 2.58381C12.8959 2.50178 15.7791 2.47276 18.4977 2.48958C20.4807 2.50188 21.6255 3.43474 21.9993 5.34156C22.4124 7.45533 22.4065 9.62794 22.4002 11.7301L22.3997 11.9083C22.3908 14.8901 22.3916 17.3675 22.401 19.7045Z" fill="#E79D64"/>
</g>
<defs>
<clipPath id="clip0_73_956">
<rect width="24" height="24" fill="white" transform="translate(0 0.726562)"/>
</clipPath>
</defs>
</svg>
