<svg width="365" height="351" viewBox="0 0 365 351" fill="none" xmlns="http://www.w3.org/2000/svg">
<path d="M18.5789 137.337C18.5789 137.337 -15.5478 188.868 8.70299 266.592C32.9538 344.316 103.613 364.144 145.514 342.561C187.414 320.977 193.526 292.886 227.391 272.501C261.256 252.116 331.087 252.834 357.98 196.752C384.873 140.671 329.104 62.0688 265.974 16.8001C202.844 -28.4686 65.6117 25.0722 18.5789 137.337Z" fill="#EFB990"/>
<path opacity="0.7" d="M18.5789 137.337C18.5789 137.337 -15.5478 188.868 8.70299 266.592C32.9538 344.316 103.613 364.144 145.514 342.561C187.414 320.977 193.526 292.886 227.391 272.501C261.256 252.116 331.087 252.834 357.98 196.752C384.873 140.671 329.104 62.0688 265.974 16.8001C202.844 -28.4686 65.6117 25.0722 18.5789 137.337Z" fill="white"/>
<path d="M235.806 248.537C238.828 249.854 246.197 249.685 246.205 249.685C246.214 249.685 244.618 244.857 244.475 244.562C242.863 241.185 237.722 235.589 233.586 236.121C232.897 236.233 232.24 236.489 231.656 236.872C231.073 237.256 230.577 237.757 230.2 238.345C229.824 238.932 229.575 239.593 229.471 240.283C229.366 240.973 229.408 241.677 229.594 242.35C230.286 245.271 233.24 247.415 235.806 248.537Z" fill="#4F3B31"/>
<path d="M238.355 269.893C241.478 270.349 248.062 268.441 248.586 268.289C249.67 272.054 251.003 275.742 252.578 279.33C253.481 281.423 254.461 283.508 255.465 285.585C254.866 284.74 254.317 283.896 254.233 283.82C251.776 280.984 245.37 276.941 241.504 278.587C240.869 278.877 240.302 279.298 239.841 279.822C239.379 280.346 239.034 280.962 238.826 281.628C238.618 282.294 238.553 282.997 238.635 283.691C238.716 284.384 238.943 285.052 239.301 285.652C240.727 288.252 244.146 289.535 246.897 289.94C249.649 290.345 255.338 288.834 256.841 288.412C257.229 289.206 257.617 289.999 258.014 290.793C259.922 294.583 261.838 298.389 263.602 302.129C264.227 303.454 264.792 304.779 265.366 306.104C264.834 305.328 264.379 304.678 264.294 304.585C261.838 301.749 255.431 297.706 251.565 299.352C250.931 299.641 250.364 300.061 249.903 300.584C249.442 301.108 249.096 301.722 248.888 302.388C248.68 303.054 248.615 303.756 248.697 304.449C248.778 305.141 249.005 305.809 249.362 306.408C250.789 309.008 254.207 310.3 256.959 310.696C259.711 311.093 264.86 309.742 266.632 309.244C267.173 310.629 267.721 312.005 268.185 313.364C268.481 314.301 268.835 315.178 269.08 316.132C269.325 317.086 269.604 318.006 269.857 318.926C270.287 320.724 270.743 322.573 271.123 324.328C271.393 325.552 271.629 326.726 271.866 327.907C271.266 326.582 270.026 324.008 269.891 323.805C267.898 320.623 262.176 315.66 258.073 316.698C257.401 316.888 256.777 317.219 256.241 317.667C255.706 318.115 255.27 318.671 254.964 319.298C254.657 319.926 254.486 320.611 254.462 321.309C254.438 322.007 254.561 322.702 254.823 323.349C255.845 326.135 259.044 327.924 261.703 328.743C264.657 329.638 271.182 328.819 272.001 328.743C272.389 330.693 272.752 332.601 273.064 334.398C273.233 335.352 273.385 336.247 273.529 337.142H276.128C275.934 336.112 275.732 335.048 275.512 333.943C275.124 331.959 274.668 329.849 274.179 327.679C276.147 326.894 278.066 325.992 279.927 324.978C282.079 327.308 287.583 330.043 288.3 330.381C287.549 332.221 286.798 334.01 286.072 335.681C285.852 336.188 285.633 336.661 285.422 337.142H288.157L288.359 336.652C289.136 334.787 289.912 332.769 290.706 330.693C291.491 330.862 297.957 332.178 300.97 331.495C303.705 330.879 307.014 329.334 308.238 326.633C308.547 326.007 308.721 325.324 308.749 324.626C308.777 323.929 308.657 323.234 308.398 322.586C308.14 321.937 307.747 321.351 307.247 320.865C306.747 320.378 306.149 320.002 305.494 319.762C301.51 318.42 295.433 322.944 293.204 325.966C293.078 326.143 291.862 328.228 291.128 329.562C291.44 328.718 291.761 327.874 292.073 327.029C292.706 325.341 293.289 323.552 293.93 321.678C294.2 320.758 294.479 319.829 294.774 318.892C295.07 317.956 295.272 316.959 295.526 315.989C296.066 313.71 296.505 311.38 296.893 309.025C298.412 309.574 303.831 311.464 306.634 311.262C309.436 311.059 312.939 310.038 314.56 307.556C314.959 306.983 315.232 306.333 315.364 305.647C315.495 304.961 315.48 304.256 315.321 303.576C315.162 302.896 314.862 302.258 314.44 301.702C314.018 301.145 313.483 300.684 312.872 300.348C309.132 298.423 302.439 301.968 299.78 304.619C299.619 304.779 297.923 306.898 297.011 308.071C297.239 306.653 297.467 305.243 297.644 303.8C298.159 299.63 298.556 295.401 298.969 291.181C299.096 289.889 299.231 288.598 299.366 287.315C299.906 287.518 306.305 289.898 309.445 289.678C312.239 289.476 315.75 288.454 317.362 285.964C317.762 285.392 318.037 284.741 318.169 284.055C318.301 283.369 318.287 282.663 318.128 281.983C317.968 281.303 317.667 280.664 317.245 280.108C316.822 279.552 316.287 279.091 315.674 278.756C311.943 276.831 305.25 280.385 302.591 283.027C302.388 283.23 299.957 286.277 299.375 287.079C299.679 284.242 299.999 281.415 300.438 278.638C301.002 274.889 301.812 271.181 302.861 267.538C303.106 267.639 309.765 270.146 312.99 269.927C315.784 269.724 319.287 268.703 320.907 266.213C321.308 265.64 321.582 264.99 321.714 264.304C321.846 263.618 321.832 262.912 321.673 262.231C321.513 261.551 321.213 260.912 320.79 260.356C320.367 259.8 319.832 259.339 319.219 259.004C315.488 257.08 308.795 260.633 306.136 263.275C305.925 263.486 303.308 266.761 302.878 267.394C302.937 267.183 302.979 266.955 303.046 266.744C304.198 263.121 305.67 259.607 307.444 256.244C308.398 254.378 309.411 252.648 310.441 250.977C311.639 251.576 317.118 254.235 320.038 254.353C322.959 254.471 326.436 253.83 328.319 251.542C328.78 251.019 329.127 250.405 329.336 249.739C329.545 249.074 329.612 248.372 329.533 247.678C329.453 246.985 329.229 246.317 328.874 245.716C328.52 245.115 328.043 244.595 327.475 244.19C323.972 241.869 316.932 244.663 313.969 247.001C313.809 247.128 312.331 248.596 311.276 249.685C311.749 248.942 312.222 248.166 312.694 247.457C314.45 244.815 316.223 242.502 317.81 240.459C318.721 239.311 319.565 238.29 320.342 237.336C321.819 237.336 327.761 237.134 330.361 235.91C332.961 234.686 335.797 232.533 336.413 229.596C336.58 228.918 336.601 228.213 336.478 227.527C336.354 226.84 336.087 226.187 335.695 225.61C335.302 225.033 334.793 224.545 334.2 224.177C333.607 223.81 332.943 223.571 332.252 223.476C328.082 223.029 323.119 228.752 321.591 232.179C321.456 232.474 319.903 237.345 320.004 237.345H320.097C319.304 238.239 318.468 239.21 317.565 240.291C315.927 242.299 314.104 244.579 312.281 247.195C310.289 249.997 308.46 252.911 306.803 255.923C304.934 259.289 303.369 262.814 302.126 266.457C302.126 266.5 302.126 266.55 302.126 266.592C302.126 265.36 302.126 261.916 302.059 261.655C301.578 257.932 298.463 251.027 294.327 250.268C293.638 250.16 292.933 250.199 292.26 250.382C291.587 250.565 290.959 250.887 290.419 251.328C289.878 251.769 289.436 252.319 289.122 252.942C288.808 253.565 288.629 254.247 288.596 254.944C288.359 257.898 290.495 260.853 292.588 262.727C294.943 264.828 301.485 266.863 302.008 267.023C300.835 270.762 299.91 274.574 299.24 278.435C298.843 280.689 298.505 282.959 298.201 285.247C298.201 284.183 298.201 283.23 298.151 283.103C297.661 279.38 294.546 272.476 290.419 271.708C289.729 271.599 289.024 271.637 288.349 271.819C287.675 272.001 287.046 272.323 286.505 272.764C285.963 273.206 285.521 273.756 285.206 274.38C284.892 275.003 284.712 275.686 284.679 276.384C284.443 279.338 286.587 282.293 288.672 284.166C290.756 286.04 296.336 287.914 297.805 288.387C297.703 289.231 297.585 290.143 297.475 291.02C296.969 295.241 296.488 299.461 295.889 303.564C295.678 305.007 295.416 306.434 295.154 307.852C295.154 306.906 295.154 306.113 295.104 305.986C294.622 302.272 291.508 295.368 287.38 294.599C286.69 294.491 285.985 294.529 285.311 294.711C284.636 294.893 284.008 295.215 283.466 295.656C282.925 296.097 282.482 296.648 282.168 297.271C281.853 297.895 281.673 298.578 281.64 299.276C281.404 302.23 283.539 305.184 285.633 307.058C287.726 308.932 292.757 310.62 294.504 311.186C294.2 312.629 293.897 314.081 293.534 315.474C293.263 316.419 293.069 317.339 292.749 318.276C292.428 319.213 292.149 320.125 291.854 321.036C291.221 322.775 290.579 324.565 289.921 326.244C289.473 327.409 289.026 328.515 288.579 329.621C288.807 328.186 289.186 325.35 289.195 325.113C289.15 321.814 288.258 318.582 286.604 315.727C286.619 315.357 286.596 314.987 286.536 314.621C286.451 313.928 286.22 313.261 285.859 312.663C285.498 312.065 285.015 311.55 284.441 311.152C283.867 310.754 283.216 310.481 282.53 310.351C281.844 310.222 281.138 310.239 280.459 310.401C276.398 311.481 273.824 318.605 273.63 322.353C273.63 322.573 273.765 324.987 273.883 326.506C273.681 325.62 273.486 324.759 273.267 323.856C272.845 322.058 272.364 320.277 271.857 318.361C271.579 317.449 271.3 316.521 271.013 315.584C270.726 314.647 270.355 313.701 270.026 312.747C269.224 310.553 268.337 308.367 267.333 306.18C268.903 305.809 274.466 304.391 276.694 302.677C278.922 300.964 281.277 298.178 281.252 295.216C281.269 294.52 281.139 293.828 280.871 293.186C280.602 292.544 280.202 291.965 279.696 291.487C279.19 291.01 278.589 290.644 277.932 290.414C277.275 290.184 276.577 290.094 275.884 290.151C271.705 290.607 268.084 297.258 267.324 300.93C267.282 301.158 267.029 303.859 266.919 305.345C266.328 304.036 265.738 302.728 265.088 301.428C263.222 297.664 261.222 293.924 259.23 290.176C258.622 289.028 258.031 287.872 257.432 286.724C257.997 286.597 264.64 285.036 267.139 283.137C269.367 281.448 271.722 278.638 271.697 275.675C271.713 274.979 271.583 274.288 271.315 273.645C271.047 273.003 270.647 272.424 270.141 271.947C269.635 271.469 269.034 271.103 268.377 270.873C267.72 270.643 267.022 270.553 266.328 270.61C262.159 271.066 258.529 277.718 257.769 281.389C257.719 281.668 257.364 285.551 257.322 286.538C256.005 284.006 254.722 281.474 253.557 278.942C251.957 275.505 250.587 271.966 249.455 268.348C249.717 268.289 256.655 266.711 259.221 264.752C261.441 263.064 263.805 260.253 263.779 257.291C263.795 256.595 263.664 255.904 263.395 255.263C263.127 254.621 262.726 254.043 262.22 253.565C261.714 253.088 261.114 252.722 260.458 252.491C259.802 252.261 259.104 252.17 258.411 252.226C254.233 252.673 250.611 259.333 249.852 263.005C249.793 263.292 249.421 267.47 249.404 268.23C249.337 268.019 249.252 267.808 249.185 267.597C248.149 263.941 247.437 260.202 247.058 256.421C246.83 254.336 246.72 252.327 246.661 250.369C247.986 250.209 254.022 249.407 256.52 247.887C259.019 246.368 261.585 243.929 261.872 240.974C261.968 240.283 261.918 239.579 261.723 238.908C261.529 238.238 261.196 237.616 260.745 237.083C260.294 236.55 259.736 236.118 259.107 235.816C258.478 235.513 257.792 235.347 257.094 235.327C252.874 235.327 248.56 241.531 247.404 245.102C247.345 245.296 246.923 247.339 246.636 248.833C246.636 247.946 246.594 247.035 246.594 246.191C246.594 243.017 246.805 240.105 246.999 237.53C247.125 236.07 247.269 234.745 247.412 233.512C248.628 232.668 253.49 229.292 255.009 226.802C256.529 224.312 257.66 220.952 256.571 218.192C256.337 217.534 255.967 216.933 255.485 216.428C255.004 215.923 254.421 215.525 253.775 215.26C253.129 214.994 252.435 214.868 251.737 214.889C251.039 214.91 250.354 215.078 249.725 215.381C245.994 217.314 245.015 224.827 245.631 228.524C245.682 228.845 247.092 233.749 247.159 233.707L247.227 233.656C247.066 234.838 246.906 236.112 246.754 237.505C246.501 240.08 246.231 242.992 246.163 246.182C246.043 249.617 246.125 253.055 246.408 256.48C246.702 260.32 247.341 264.125 248.316 267.85C248.327 267.896 248.341 267.941 248.358 267.985C247.691 266.947 245.749 264.102 245.572 263.9C243.124 261.064 236.709 257.029 232.843 258.666C232.208 258.957 231.642 259.378 231.18 259.902C230.719 260.426 230.373 261.041 230.165 261.707C229.958 262.374 229.892 263.077 229.974 263.77C230.056 264.463 230.283 265.132 230.64 265.731C232.168 268.205 235.587 269.488 238.355 269.893Z" fill="#4F3B31"/>
<path d="M310.39 250.141C310.458 250.183 311.732 245.237 311.774 244.916C312.298 241.202 311.108 233.715 307.326 231.892C306.69 231.608 306.001 231.461 305.305 231.46C304.608 231.459 303.919 231.605 303.283 231.887C302.646 232.17 302.076 232.583 301.609 233.1C301.142 233.617 300.79 234.226 300.573 234.888C299.56 237.674 300.843 241.092 302.363 243.447C304.144 246.224 310.39 250.141 310.39 250.141Z" fill="#4F3B31"/>
<path d="M130.328 193.3H18.4692V48.4029H130.328V193.3ZM19.3133 192.456H129.484V49.247H19.3133V192.456Z" fill="#4F3B31"/>
<path d="M127.171 189.214H21.5923V52.4714H127.171V189.214ZM22.504 188.37H126.327V53.3155H22.4364L22.504 188.37Z" fill="#4F3B31"/>
<path d="M100.937 155.147H47.8689V86.5644H100.937V155.147ZM48.7299 154.303H100.093V87.4085H48.713L48.7299 154.303Z" fill="#4F3B31"/>
<path d="M251 131.968L232.776 129.394L235.308 111.296L253.541 113.829L251 131.968ZM233.73 128.676L250.282 131.014L252.604 114.588L236.043 112.25L233.73 128.676ZM253.904 104.839L237.233 102.484L239.647 85.3826L239.807 85.2813C244.223 82.5744 248.422 79.5294 252.367 76.1736C256.058 73.0634 259.269 69.4256 261.897 65.3776C264.382 61.5192 266 57.1678 266.641 52.6234C267.139 49.1035 266.734 46.2251 265.434 44.0474C264.134 41.8696 261.99 40.6119 259.027 40.1899C257.897 39.967 256.735 39.97 255.606 40.199C254.477 40.4279 253.405 40.8781 252.452 41.5236C251.561 42.2134 250.823 43.0803 250.284 44.0696C249.745 45.059 249.417 46.1493 249.32 47.2718C249.154 48.3726 249.126 49.4898 249.236 50.5975C249.345 51.6864 249.489 52.8597 249.666 54.0837L249.725 54.531L232.312 55.8225L232.244 55.4595C231.883 53.6848 231.666 51.8838 231.594 50.0742C231.529 48.314 231.619 46.5514 231.864 44.8071C232.902 37.455 236.034 31.8249 241.149 28.0687C246.264 24.3125 253.135 23.0042 261.517 24.2028C270.076 25.4098 276.475 28.7187 280.552 34.028C284.628 39.3374 286.089 46.3771 284.882 54.9362C284.184 60.2459 282.44 65.3643 279.75 69.9948C277.03 74.5366 273.592 78.6073 269.57 82.0484C265.251 85.7502 260.61 89.0581 255.701 91.9328L253.904 104.839ZM238.187 101.766L253.186 103.885L254.95 91.3757L255.127 91.2744C260.054 88.4011 264.71 85.0872 269.038 81.3732C272.99 77.9822 276.368 73.9745 279.041 69.5052C281.689 64.9801 283.411 59.973 284.105 54.7758C285.278 46.4531 283.877 39.6328 279.944 34.5176C276.01 29.4024 269.815 26.1948 261.458 25.0131C253.304 23.8651 246.653 25.1144 241.706 28.7271C236.76 32.3398 233.704 37.7673 232.7 44.883C232.462 46.577 232.374 48.2888 232.438 49.9982C232.503 51.6389 232.689 53.2724 232.995 54.8855L248.763 53.7123C248.62 52.6403 248.493 51.6105 248.392 50.6398C248.276 49.4643 248.308 48.2792 248.484 47.1114C248.595 45.8777 248.961 44.6803 249.558 43.595C250.155 42.5096 250.971 41.56 251.954 40.8061C252.994 40.0928 254.165 39.5934 255.399 39.3369C256.634 39.0805 257.907 39.072 259.145 39.312C262.378 39.7678 264.733 41.2028 266.151 43.5325C267.569 45.8622 268 48.9431 267.477 52.6571C266.825 57.3341 265.163 61.8131 262.606 65.7828C259.933 69.8971 256.668 73.5947 252.916 76.756C248.987 80.0939 244.81 83.13 240.423 85.8384L238.187 101.766Z" fill="#4F3B31"/>
<path d="M144.754 173.329C144.754 173.329 90.5715 174.046 88.8833 177.904C87.1952 181.761 79.4886 228.482 79.0075 244.587C78.5263 260.692 78.29 271.319 79.9697 273.244C81.6495 275.168 107.909 290.345 107.909 290.345C107.909 290.345 95.6276 333.453 99.4683 334.905C103.309 336.357 126.927 342.367 142.095 342.611C157.263 342.856 172.204 342.848 173.411 342.848C174.618 342.848 213.387 344.291 226.876 341.16C240.364 338.028 244.45 337.783 244.45 332.491C244.45 327.198 241.073 320.673 240.837 319.492C240.601 318.31 249.995 227.004 244.694 204.611C239.394 182.217 232.413 173.54 227.112 172.096C221.811 170.653 184.004 171.615 184.004 171.615L144.754 173.329Z" fill="#EFB990"/>
<path d="M194.201 343.65C188.292 343.65 181.7 343.557 174.593 343.354H173.419C170.718 343.354 156.537 343.354 142.103 343.118C126.682 342.873 103.081 336.787 99.3332 335.378C98.4891 335.074 96.573 334.348 101.866 312.072C104.178 302.264 106.93 292.498 107.437 290.632C104.44 288.902 81.3119 275.481 79.6828 273.607C77.9017 271.573 78.1043 261.79 78.6108 244.663C79.1003 228.347 86.9335 181.432 88.5204 177.794C90.2086 173.886 135.663 173.084 144.771 172.966L184.021 171.277C185.574 171.235 222.005 170.332 227.255 171.775C230.514 172.62 238.76 177.634 245.142 204.594C249.506 223.046 244.019 287.095 241.951 311.203C241.554 315.837 241.267 319.188 241.293 319.517C241.482 320.105 241.702 320.682 241.951 321.247C242.981 323.78 244.905 328.54 244.905 332.575C244.905 337.64 241.47 338.383 231.256 340.687L227.036 341.658C221.212 342.991 209.825 343.65 194.201 343.65ZM208.002 171.775C196.53 171.775 184.241 172.079 184.021 172.088L144.771 173.776C123.922 174.055 90.428 175.464 89.2801 178.098C87.7016 181.702 79.9275 228.397 79.438 244.654C79.0159 258.861 78.6445 271.134 80.2821 273.024C81.6242 274.561 100.827 285.821 108.137 290.033C108.218 290.08 108.282 290.153 108.317 290.24C108.352 290.327 108.357 290.424 108.331 290.514C102.33 311.523 97.4425 333.706 99.6287 334.55C103.351 335.943 126.792 341.987 142.112 342.232C156.554 342.459 170.718 342.468 173.419 342.468H174.618C200.371 343.194 218.899 342.595 226.783 340.78C228.327 340.417 229.746 340.104 231.045 339.809C241.023 337.555 244.036 336.872 244.036 332.516C244.036 328.65 242.154 323.999 241.141 321.501C240.865 320.88 240.629 320.243 240.432 319.593C240.39 319.348 240.508 317.863 241.09 311.068C243.15 286.994 248.628 223.054 244.289 204.712C238.018 178.191 230.117 173.362 227.011 172.51C224.791 171.953 216.628 171.775 208.002 171.775Z" fill="#4F3B31"/>
<path d="M167.983 195.984C167.901 195.985 167.82 195.962 167.75 195.917C167.681 195.872 167.627 195.807 167.595 195.731C167.573 195.68 167.561 195.625 167.56 195.569C167.558 195.514 167.568 195.458 167.589 195.407C167.609 195.355 167.64 195.308 167.678 195.268C167.717 195.228 167.763 195.196 167.814 195.174C169.734 194.354 171.6 193.415 173.402 192.363C173.451 192.335 173.504 192.317 173.559 192.31C173.614 192.303 173.67 192.307 173.724 192.321C173.777 192.336 173.828 192.361 173.872 192.395C173.916 192.429 173.953 192.471 173.981 192.519C174.008 192.567 174.026 192.62 174.033 192.676C174.041 192.731 174.037 192.787 174.022 192.841C174.008 192.894 173.983 192.945 173.949 192.989C173.915 193.033 173.873 193.07 173.824 193.097C171.992 194.165 170.095 195.118 168.144 195.95C168.093 195.974 168.039 195.985 167.983 195.984Z" fill="#4F3B31"/>
<path d="M176.163 191.578C176.093 191.577 176.025 191.56 175.963 191.528C175.901 191.496 175.848 191.449 175.808 191.392C175.748 191.298 175.727 191.184 175.751 191.075C175.775 190.966 175.841 190.87 175.935 190.81C182.645 186.341 188.535 180.75 193.348 174.282C193.38 174.237 193.421 174.198 193.468 174.168C193.515 174.138 193.568 174.118 193.623 174.109C193.678 174.099 193.734 174.101 193.788 174.113C193.842 174.126 193.894 174.149 193.939 174.181C193.985 174.212 194.023 174.252 194.053 174.299C194.083 174.345 194.103 174.397 194.112 174.451C194.122 174.505 194.12 174.561 194.108 174.615C194.096 174.668 194.073 174.719 194.04 174.764C189.163 181.315 183.195 186.98 176.399 191.51C176.329 191.557 176.246 191.58 176.163 191.578Z" fill="#4F3B31"/>
<path d="M181.126 193.941C181.05 193.941 180.976 193.92 180.911 193.882C180.845 193.843 180.792 193.788 180.754 193.722C180.728 193.673 180.711 193.62 180.705 193.564C180.699 193.509 180.704 193.453 180.72 193.4C180.735 193.347 180.761 193.297 180.796 193.254C180.831 193.21 180.874 193.174 180.923 193.148C185.144 190.886 190.082 183.99 190.132 183.922C190.162 183.872 190.202 183.828 190.25 183.794C190.297 183.76 190.351 183.736 190.409 183.724C190.466 183.712 190.525 183.712 190.582 183.724C190.639 183.736 190.694 183.76 190.741 183.794C190.789 183.828 190.829 183.872 190.858 183.922C190.888 183.972 190.907 184.028 190.914 184.086C190.921 184.144 190.916 184.203 190.899 184.259C190.882 184.315 190.854 184.367 190.816 184.412C190.613 184.699 185.751 191.536 181.32 193.891C181.261 193.924 181.194 193.942 181.126 193.941Z" fill="#4F3B31"/>
<path d="M156.048 261.756C155.959 261.755 155.873 261.725 155.802 261.672C155.73 261.619 155.678 261.545 155.651 261.46L154.233 257.054C154.215 257.002 154.207 256.946 154.211 256.89C154.215 256.835 154.23 256.78 154.255 256.731C154.28 256.681 154.315 256.637 154.358 256.601C154.4 256.565 154.45 256.539 154.503 256.522C154.609 256.488 154.725 256.497 154.825 256.547C154.925 256.598 155 256.686 155.035 256.792L156.453 261.199C156.488 261.305 156.479 261.421 156.428 261.52C156.377 261.62 156.289 261.696 156.183 261.73C156.14 261.747 156.094 261.756 156.048 261.756Z" fill="#4F3B31"/>
<path d="M163.78 285.762C163.691 285.762 163.604 285.733 163.532 285.68C163.461 285.627 163.408 285.552 163.383 285.466L157.103 265.976C157.068 265.864 157.079 265.743 157.134 265.64C157.189 265.536 157.282 265.458 157.394 265.423C157.506 265.389 157.627 265.4 157.731 265.454C157.835 265.509 157.912 265.603 157.947 265.715L164.227 285.213C164.259 285.319 164.249 285.434 164.199 285.533C164.149 285.633 164.062 285.708 163.957 285.745L163.78 285.762Z" fill="#4F3B31"/>
<path d="M165.713 286.243C165.631 286.247 165.551 286.223 165.485 286.175C165.438 286.146 165.397 286.108 165.364 286.063C165.332 286.017 165.309 285.966 165.296 285.912C165.284 285.858 165.282 285.802 165.291 285.747C165.3 285.692 165.32 285.64 165.35 285.593L171.613 275.726C171.641 275.677 171.679 275.636 171.724 275.603C171.769 275.57 171.821 275.546 171.875 275.534C171.93 275.521 171.986 275.519 172.041 275.529C172.096 275.539 172.149 275.56 172.195 275.59C172.289 275.651 172.355 275.746 172.38 275.854C172.406 275.963 172.388 276.077 172.33 276.173L166.067 286.049C166.028 286.108 165.976 286.156 165.914 286.19C165.852 286.224 165.783 286.242 165.713 286.243Z" fill="#4F3B31"/>
<path d="M179.919 280.461C179.836 280.464 179.755 280.442 179.685 280.398C179.615 280.355 179.56 280.291 179.526 280.216C179.493 280.141 179.482 280.057 179.497 279.976C179.511 279.895 179.549 279.82 179.606 279.76L194.8 262.659C194.875 262.575 194.98 262.524 195.093 262.518C195.205 262.512 195.315 262.55 195.399 262.625C195.483 262.7 195.534 262.805 195.54 262.918C195.547 263.03 195.508 263.141 195.433 263.225L180.24 280.326C180.199 280.37 180.149 280.405 180.094 280.429C180.039 280.452 179.979 280.463 179.919 280.461Z" fill="#4F3B31"/>
<path d="M173.419 343.32H173.301L140.609 333.791C140.556 333.775 140.507 333.749 140.463 333.715C140.42 333.68 140.384 333.637 140.357 333.588C140.331 333.54 140.314 333.486 140.308 333.431C140.302 333.376 140.307 333.321 140.322 333.267C140.337 333.213 140.362 333.163 140.397 333.119C140.431 333.075 140.474 333.039 140.523 333.012C140.572 332.985 140.626 332.969 140.681 332.963C140.736 332.958 140.793 332.964 140.846 332.98L173.529 342.493C173.641 342.509 173.742 342.568 173.81 342.659C173.878 342.749 173.908 342.862 173.892 342.974C173.876 343.086 173.817 343.187 173.727 343.256C173.636 343.324 173.523 343.353 173.411 343.337L173.419 343.32Z" fill="#4F3B31"/>
<path d="M136.878 332.676H136.76L131.156 331.039C131.044 331.008 130.949 330.933 130.892 330.832C130.835 330.73 130.82 330.611 130.852 330.499C130.883 330.387 130.958 330.292 131.059 330.235C131.16 330.178 131.28 330.163 131.392 330.195L136.997 331.832C137.05 331.848 137.099 331.874 137.143 331.908C137.186 331.943 137.222 331.986 137.249 332.035C137.275 332.083 137.292 332.137 137.298 332.192C137.304 332.247 137.299 332.302 137.284 332.356C137.261 332.446 137.209 332.527 137.136 332.585C137.063 332.643 136.972 332.675 136.878 332.676Z" fill="#4F3B31"/>
<path d="M144.416 66.2386C144.416 66.2386 127.408 62.3304 124.158 66.7028C120.908 71.0752 127.382 75.2113 126.462 76.1314C125.542 77.0514 105.765 87.1636 107.369 97.0564C108.973 106.949 122.318 117.061 122.782 119.847C123.246 122.632 107.369 123.527 105.301 127.663C103.233 131.799 100.236 151.348 117.49 157.789C134.743 164.229 156.318 153.416 162.328 153.416C168.338 153.416 174.289 165.149 181.185 164.457C185.386 163.977 189.249 161.923 191.998 158.709C191.998 158.709 199.122 168.602 209.47 164.457C219.819 160.313 231.78 145.828 226.724 141.464C221.668 137.1 215.911 135.716 219.591 131.808C223.271 127.9 230.86 117.551 229.72 108.578C228.581 99.6056 217.987 98.9219 213.851 96.1617C209.715 93.4015 218.452 88.8012 218.224 81.2128C217.996 73.6244 212.467 60.9546 184.418 52.5136C156.369 44.0727 142.568 48.1412 141.183 55.2738C140.751 57.2257 140.82 59.2555 141.386 61.1731C141.951 63.0908 142.994 64.8336 144.416 66.2386Z" fill="#4F3B31"/>
<path d="M204.473 165.858C197.898 165.858 193.255 160.853 192.015 159.35C189.224 162.448 185.396 164.418 181.252 164.888C177.412 165.276 173.934 162.077 170.583 158.979C167.713 156.329 164.995 153.83 162.353 153.83C160.741 153.83 157.846 154.674 154.182 155.755C144.517 158.582 129.906 162.853 117.371 158.177C111.378 155.94 107.242 151.965 105.014 146.36C102.06 138.831 103.511 130.322 104.946 127.469C106.128 125.114 111.159 123.797 115.599 122.641C118.697 121.797 122.546 120.826 122.352 119.906C122.157 118.986 120.444 117.163 118.393 114.951C114.265 110.486 108.019 103.742 106.947 97.1408C105.537 88.4889 119.397 80.0142 124.622 76.8235C125.348 76.3761 126.04 75.9794 126.15 75.8444C125.876 75.3816 125.565 74.9413 125.222 74.5276C123.82 72.7043 121.474 69.6403 123.812 66.4665C126.648 62.6174 139.006 64.7783 143.159 65.5633C142.011 64.1155 141.203 62.4293 140.793 60.6284C140.382 58.8274 140.38 56.9575 140.787 55.1556C141.039 54.0695 141.521 53.0498 142.199 52.1648C142.877 51.2797 143.737 50.5497 144.72 50.0236C151.751 45.8031 166.278 46.529 184.553 52.0747C213.725 60.9208 218.443 74.1224 218.663 81.2128C218.772 85.0281 216.73 88.0753 215.084 90.4978C213.961 92.186 212.999 93.6041 213.201 94.6423C213.266 94.885 213.379 95.1119 213.535 95.3093C213.69 95.5066 213.884 95.6703 214.104 95.7903C215.513 96.6041 217.004 97.2662 218.553 97.7654C223.339 99.538 229.29 101.75 230.151 108.511C231.282 117.332 224.242 127.478 219.92 132.078C219.602 132.342 219.344 132.672 219.165 133.045C218.986 133.418 218.889 133.825 218.882 134.239C219.017 135.471 220.68 136.594 222.79 138.003C224.258 138.959 225.668 140.002 227.011 141.126C227.583 141.67 228 142.356 228.22 143.114C228.439 143.872 228.453 144.675 228.26 145.44C227.196 151.787 217.802 161.57 209.648 164.854C208.002 165.514 206.246 165.855 204.473 165.858ZM192.023 158.262C192.088 158.263 192.152 158.279 192.209 158.31C192.267 158.341 192.316 158.385 192.352 158.439C192.428 158.532 199.417 168.011 209.335 164.044C217.27 160.87 226.403 151.382 227.424 145.296C227.686 143.726 227.365 142.536 226.462 141.76C225.142 140.665 223.758 139.65 222.318 138.721C220.03 137.185 218.224 135.969 218.038 134.357C218.029 133.818 218.139 133.284 218.359 132.793C218.579 132.301 218.905 131.864 219.313 131.512C223.246 127.292 230.412 117.163 229.315 108.629C228.513 102.383 222.824 100.272 218.257 98.5758C216.647 98.0546 215.097 97.3643 213.632 96.5162C213.319 96.3341 213.047 96.0906 212.831 95.8005C212.614 95.5104 212.459 95.1796 212.374 94.828C212.104 93.4521 213.108 91.9496 214.383 90.0504C215.961 87.7039 217.92 84.7833 217.818 81.2381C217.607 74.3756 212.982 61.5792 184.308 52.885C166.261 47.4069 151.988 46.6303 145.159 50.7495C144.278 51.215 143.505 51.8631 142.894 52.6505C142.283 53.438 141.846 54.3466 141.614 55.316C141.19 57.2048 141.25 59.1701 141.788 61.0295C142.327 62.8889 143.327 64.582 144.695 65.9516C144.765 66.0151 144.813 66.0995 144.831 66.1922C144.849 66.285 144.837 66.3812 144.796 66.4665C144.753 66.5507 144.683 66.6181 144.598 66.6579C144.512 66.6977 144.415 66.7076 144.323 66.686C139.664 65.614 127.028 63.5881 124.521 66.9814C122.563 69.6487 124.521 72.181 125.922 74.038C126.766 75.11 127.349 75.895 126.766 76.4605C126.232 76.8704 125.667 77.24 125.078 77.5663C120.478 80.3771 106.508 88.9278 107.799 97.0227C108.829 103.37 114.966 110.005 119.034 114.394C121.44 116.994 123.027 118.707 123.204 119.788C123.483 121.476 120.258 122.32 115.801 123.477C111.741 124.532 106.694 125.848 105.672 127.866C104.339 130.533 102.937 138.881 105.765 146.064C106.796 148.706 108.392 151.09 110.442 153.048C112.493 155.007 114.947 156.492 117.633 157.401C129.906 161.984 144.349 157.755 153.929 154.961C157.66 153.872 160.597 153.003 162.37 153.003C165.341 153.003 168.177 155.611 171.174 158.371C174.39 161.334 177.716 164.39 181.185 164.044C185.267 163.565 189.02 161.57 191.702 158.456C191.738 158.401 191.785 158.356 191.84 158.322C191.896 158.288 191.958 158.268 192.023 158.262Z" fill="#4F3B31"/>
<path d="M147.48 140.021C147.48 140.021 141.732 175.895 141.504 177.043C141.276 178.191 151.633 188.539 165.645 186.699C173.853 185.712 181.396 181.697 186.798 175.439L182.434 139.793C182.434 139.793 170.473 145.541 163.113 145.313C155.752 145.085 147.48 140.021 147.48 140.021Z" fill="white"/>
<path d="M162.336 187.341C154.806 187.218 147.612 184.194 142.255 178.9C140.964 177.524 141.057 177.085 141.091 176.916C141.31 175.793 146.999 140.274 147.058 139.911C147.07 139.843 147.099 139.778 147.141 139.724C147.184 139.669 147.239 139.625 147.302 139.596C147.365 139.567 147.434 139.554 147.503 139.557C147.573 139.56 147.64 139.58 147.7 139.616C147.784 139.666 155.972 144.621 163.13 144.849C170.288 145.077 182.13 139.43 182.248 139.371C182.308 139.34 182.375 139.323 182.443 139.323C182.51 139.323 182.577 139.34 182.637 139.371C182.694 139.404 182.743 139.451 182.78 139.506C182.817 139.562 182.84 139.625 182.848 139.692L187.22 175.329C187.227 175.384 187.224 175.44 187.209 175.494C187.195 175.547 187.17 175.598 187.136 175.641C181.646 181.964 174.013 186.035 165.704 187.07C164.589 187.235 163.464 187.325 162.336 187.341ZM147.801 140.696C147.016 145.583 142.129 176.055 141.892 177.127C142.07 178.174 151.878 188.1 165.527 186.285C173.552 185.272 180.933 181.372 186.292 175.312L182.088 140.409C179.657 141.532 169.688 145.929 163.104 145.727C156.715 145.533 149.768 141.827 147.801 140.696Z" fill="#4F3B31"/>
<path d="M145.117 159.266L169.334 154.581L147.48 140.021L145.117 159.266Z" fill="#4F3B31"/>
<path d="M145.117 159.688C145.011 159.685 144.91 159.646 144.83 159.578C144.783 159.531 144.747 159.474 144.725 159.411C144.703 159.349 144.695 159.282 144.703 159.215L147.058 139.97C147.067 139.899 147.094 139.831 147.137 139.773C147.18 139.715 147.237 139.67 147.303 139.641C147.367 139.608 147.438 139.59 147.51 139.59C147.582 139.59 147.653 139.608 147.717 139.641L169.562 154.21C169.633 154.254 169.688 154.319 169.721 154.396C169.755 154.473 169.764 154.558 169.747 154.64C169.73 154.723 169.689 154.798 169.629 154.857C169.569 154.915 169.492 154.955 169.41 154.97L145.201 159.654L145.117 159.688ZM147.818 140.755L145.606 158.743L168.237 154.362L147.818 140.755Z" fill="#4F3B31"/>
<path d="M134.701 108.393C134.701 108.393 130.649 103.26 128.792 109.743C126.935 116.226 135.005 124.093 135.005 124.093L134.701 108.393Z" fill="white"/>
<path d="M134.971 124.481C134.871 124.476 134.776 124.438 134.701 124.371C134.363 124.042 126.437 116.285 128.378 109.633C128.995 107.523 129.923 106.333 131.139 106.097C133.114 105.717 134.979 108.038 135.055 108.139C135.114 108.211 135.147 108.3 135.148 108.393L135.418 124.059C135.418 124.142 135.394 124.224 135.349 124.294C135.304 124.364 135.24 124.42 135.165 124.456C135.102 124.474 135.036 124.482 134.971 124.481ZM131.594 106.89C131.499 106.881 131.403 106.881 131.307 106.89C130.463 107.059 129.712 108.08 129.197 109.836C127.737 114.85 132.641 120.86 134.566 122.962L134.312 108.519C133.798 107.979 132.633 106.89 131.561 106.89H131.594Z" fill="#4F3B31"/>
<path d="M192.749 108.393C192.749 108.393 196.801 103.26 198.658 109.743C200.515 116.226 192.445 124.093 192.445 124.093L192.749 108.393Z" fill="white"/>
<path d="M192.479 124.481C192.423 124.49 192.366 124.49 192.31 124.481C192.232 124.448 192.167 124.393 192.121 124.322C192.076 124.251 192.054 124.168 192.057 124.084L192.327 108.418C192.329 108.327 192.359 108.239 192.411 108.165C192.496 108.063 194.37 105.734 196.328 106.122C197.552 106.358 198.48 107.548 199.097 109.659C201.03 116.31 193.103 124.067 192.766 124.397C192.684 124.46 192.582 124.49 192.479 124.481ZM193.163 108.545L192.943 122.987C194.859 120.885 199.772 114.875 198.312 109.861C197.797 108.106 197.062 107.084 196.193 106.915C195.028 106.696 193.694 107.928 193.163 108.545Z" fill="#4F3B31"/>
<path d="M147.43 75.9625C147.43 75.9625 135.832 87.2312 134.152 90.6075C132.472 93.9839 133.148 132.458 134.996 136.189C136.845 139.919 155.33 154.345 158.352 155.518C161.374 156.692 168.27 157.873 173.647 155.181C179.024 152.488 191.964 138.712 193.314 135.184C194.665 131.656 192.977 91.2913 192.133 87.4506C191.289 83.61 170.997 69.7416 162.387 69.0747C153.777 68.4079 147.43 75.9625 147.43 75.9625Z" fill="white"/>
<path d="M165.932 157.173C163.29 157.187 160.665 156.741 158.175 155.856C154.925 154.59 136.465 140.063 134.591 136.324C132.717 132.584 131.991 93.9079 133.747 90.3965C135.435 87.0201 146.408 76.3086 147.092 75.6755C147.514 75.1775 153.845 67.9774 162.395 68.6527C170.743 69.3111 191.576 82.9347 192.521 87.2987C193.306 90.9283 195.053 131.656 193.677 135.277C192.234 139.075 179.134 152.842 173.808 155.535C171.343 156.677 168.648 157.238 165.932 157.173ZM161.29 69.4546C153.558 69.4546 147.784 76.1651 147.725 76.2073C147.607 76.317 136.161 87.4591 134.532 90.7173C132.903 93.9755 133.62 132.382 135.376 135.885C137.132 139.388 155.432 153.805 158.513 155.003C161.754 156.261 168.405 157.215 173.47 154.683C178.897 151.973 191.685 138.172 192.926 134.914C194.285 131.352 192.513 91.0211 191.728 87.4253C190.943 83.8295 170.828 70.1552 162.353 69.5052C162.007 69.5052 161.661 69.4546 161.315 69.4546H161.29Z" fill="#4F3B31"/>
<path d="M156.546 69.0747C156.546 69.0747 173.917 84.9268 186.41 85.5345L198.911 86.1423C198.911 86.1423 171.478 82.4874 162.944 63.9004C162.944 63.9004 153.499 55.9997 156.546 69.0747Z" fill="#4F3B31"/>
<path d="M198.911 86.5643L186.418 85.9566C173.917 85.3489 157.002 70.0454 156.284 69.3871C156.223 69.3299 156.179 69.2568 156.158 69.176C155.153 64.8543 155.373 62.322 156.833 61.4273C158.994 60.102 162.817 63.2167 163.239 63.5713C163.29 63.6119 163.331 63.664 163.358 63.7232C171.697 81.8881 198.717 85.6696 198.987 85.7287C199.096 85.7415 199.196 85.7962 199.265 85.8813C199.334 85.9664 199.368 86.0751 199.358 86.1845C199.346 86.2927 199.292 86.392 199.209 86.4625C199.126 86.533 199.02 86.5694 198.911 86.5643ZM156.926 68.8384C158.344 70.1045 174.711 84.5216 186.469 85.0956L193.526 85.4417C185.085 83.3146 168.87 77.6001 162.64 64.1452C161.543 63.2421 158.648 61.2922 157.28 62.1279C156.504 62.6005 155.854 64.1368 156.926 68.8553V68.8384Z" fill="#4F3B31"/>
<path d="M167.62 117.897C167.514 117.897 167.411 117.858 167.333 117.786C167.255 117.714 167.207 117.615 167.198 117.509L165.856 100.534C165.852 100.479 165.858 100.423 165.875 100.37C165.892 100.317 165.92 100.268 165.956 100.226C165.992 100.183 166.036 100.149 166.086 100.123C166.135 100.098 166.189 100.083 166.244 100.078C166.3 100.074 166.356 100.08 166.409 100.097C166.461 100.115 166.51 100.142 166.553 100.178C166.595 100.214 166.63 100.258 166.655 100.308C166.681 100.357 166.696 100.411 166.7 100.467L168.042 117.441C168.047 117.497 168.041 117.553 168.024 117.606C168.006 117.658 167.979 117.708 167.943 117.75C167.907 117.792 167.863 117.827 167.813 117.852C167.764 117.878 167.71 117.893 167.654 117.897H167.62Z" fill="#4F3B31"/>
<path d="M163.729 125.967C161.382 125.967 159.137 123.434 159.044 123.299C159.005 123.258 158.974 123.21 158.954 123.156C158.934 123.103 158.925 123.046 158.927 122.989C158.929 122.932 158.943 122.876 158.968 122.825C158.992 122.774 159.027 122.728 159.07 122.69C159.113 122.652 159.163 122.624 159.217 122.606C159.271 122.588 159.328 122.582 159.385 122.586C159.442 122.591 159.497 122.608 159.547 122.634C159.597 122.661 159.642 122.698 159.677 122.742C159.677 122.742 161.771 125.122 163.729 125.122C165.341 125.122 167.781 121.982 168.591 120.775C168.621 120.729 168.66 120.688 168.706 120.657C168.751 120.626 168.803 120.604 168.857 120.593C168.912 120.582 168.968 120.582 169.022 120.593C169.076 120.604 169.128 120.626 169.173 120.657C169.266 120.719 169.33 120.815 169.352 120.924C169.375 121.033 169.353 121.147 169.292 121.24C168.971 121.721 166.076 125.967 163.729 125.967Z" fill="#4F3B31"/>
<path d="M161.062 133.749C160.547 133.749 160.024 133.749 159.5 133.699C154.301 133.352 150.426 127.039 150.257 126.768C150.229 126.721 150.209 126.668 150.201 126.613C150.193 126.558 150.195 126.502 150.208 126.448C150.222 126.393 150.246 126.343 150.279 126.298C150.312 126.253 150.353 126.215 150.401 126.186C150.449 126.157 150.501 126.138 150.556 126.13C150.612 126.121 150.668 126.124 150.722 126.137C150.776 126.151 150.827 126.174 150.872 126.207C150.917 126.24 150.954 126.282 150.983 126.33C150.983 126.397 154.799 132.534 159.559 132.854C163.022 132.972 166.483 132.579 169.832 131.69C169.944 131.658 170.064 131.673 170.165 131.73C170.266 131.787 170.341 131.881 170.372 131.993C170.403 132.105 170.389 132.225 170.332 132.326C170.275 132.428 170.18 132.502 170.068 132.534C167.126 133.3 164.102 133.708 161.062 133.749Z" fill="#4F3B31"/>
<path d="M168.27 97.8161C168.27 97.8161 174.179 93.4437 176.5 91.9074C178.821 90.3712 186.418 93.2495 186.418 93.2495C186.418 93.2495 180.704 90.0589 177.682 89.5524C174.66 89.0459 168.439 93.4183 167.933 95.4611C167.426 97.5038 165.932 96.972 168.27 97.8161Z" fill="#4F3B31"/>
<path d="M168.27 98.2044C168.223 98.2124 168.174 98.2124 168.127 98.2044C167.013 97.8076 166.683 97.6895 166.582 97.3603C166.563 97.2289 166.579 97.095 166.626 96.971C166.673 96.847 166.751 96.737 166.852 96.6512C167.183 96.2978 167.415 95.8643 167.527 95.3935C168.076 93.1905 174.449 88.6408 177.749 89.1979C180.813 89.7044 186.393 92.8106 186.629 92.9372C186.721 92.9906 186.791 93.0762 186.823 93.1775C186.856 93.2788 186.85 93.3887 186.807 93.4859C186.762 93.5829 186.682 93.6595 186.584 93.7003C186.485 93.741 186.375 93.7428 186.275 93.7054C184.224 92.9288 178.518 91.1731 176.737 92.321C174.415 93.8066 168.583 98.1453 168.523 98.1875C168.442 98.2157 168.355 98.2215 168.27 98.2044ZM167.553 97.0648L168.203 97.3096C169.207 96.5584 174.17 92.895 176.272 91.5445C177.479 90.7679 179.784 90.9958 181.911 91.4601C180.542 90.7944 179.1 90.2901 177.614 89.9576C174.82 89.5018 168.794 93.7391 168.329 95.5286C168.209 96.1099 167.942 96.6505 167.553 97.0986V97.0648Z" fill="#4F3B31"/>
<path d="M156.166 98.618C155.857 97.8859 155.345 97.258 154.689 96.8091C154.034 96.3601 153.263 96.109 152.469 96.0857C149.616 95.9169 137.005 99.2848 139.191 99.2848C141.378 99.2848 150.451 99.116 152.807 99.116C153.949 99.1869 155.093 99.0172 156.166 98.618Z" fill="#4F3B31"/>
<path d="M139.191 99.7153C139.074 99.7317 138.954 99.7152 138.845 99.6675C138.736 99.6198 138.643 99.5429 138.575 99.4452C138.536 99.3741 138.515 99.2943 138.515 99.2131C138.515 99.1319 138.536 99.052 138.575 98.9809C139.09 98.1369 150.139 95.5286 152.477 95.6721C153.354 95.6956 154.205 95.9729 154.927 96.4703C155.649 96.9677 156.211 97.6639 156.546 98.4745C156.58 98.5715 156.579 98.6777 156.542 98.7737C156.504 98.8697 156.434 98.9492 156.343 98.9978C155.209 99.4237 153.999 99.6105 152.79 99.5465C151.591 99.5465 148.654 99.5465 145.767 99.6309C142.88 99.7153 140.263 99.7153 139.191 99.7153ZM152.224 96.5162C150.097 96.5162 144.171 97.9427 141.107 98.8543L145.775 98.7868C148.662 98.7446 151.608 98.7024 152.806 98.7024C153.742 98.7231 154.677 98.6151 155.584 98.3816C155.262 97.8252 154.803 97.3611 154.25 97.0343C153.697 96.7075 153.069 96.529 152.427 96.5162H152.224Z" fill="#4F3B31"/>
<path d="M185.076 108.232C182.539 108.807 179.945 109.091 177.344 109.076C173.968 108.907 170.954 107.895 172.28 109.405C173.605 110.916 176.314 112.267 180.51 111.423C184.705 110.579 186.249 109.743 185.076 108.232Z" fill="#4F3B31"/>
<path d="M154.655 108.232C152.118 108.807 149.524 109.091 146.923 109.076C143.547 108.907 140.542 107.895 141.859 109.405C143.175 110.916 145.893 112.267 150.097 111.423C154.301 110.579 155.803 109.743 154.655 108.232Z" fill="#4F3B31"/>
<path d="M98.7255 205.1C98.7255 205.1 103.79 177.245 106.086 174.519C108.382 171.792 133.451 151.289 134.827 149.913C136.203 148.538 146.096 133.58 146.56 135.42C147.024 137.261 145.412 145.313 142.416 149.677C139.419 154.041 135.292 159.342 135.292 159.342C135.292 159.342 150.738 163.25 151.583 164.17C152.427 165.09 157.744 176.536 158.023 177.963C158.513 180.427 157.804 183.069 155.727 183.255C153.836 183.416 141.47 177.043 141.47 177.043L131.611 178.393C131.611 178.393 124.487 187.13 119.651 188.742C117.481 189.535 115.251 190.151 112.982 190.582L113.219 207.599L98.7255 205.1Z" fill="white"/>
<path d="M113.219 208.055H113.143L98.658 205.522C98.5456 205.502 98.4457 205.438 98.3794 205.345C98.3185 205.253 98.2944 205.142 98.3119 205.033C98.5229 203.893 103.419 177.068 105.765 174.257C107.301 172.409 118.494 163.073 126.665 156.261C130.801 152.809 134.076 150.082 134.532 149.618C134.988 149.154 136.279 147.347 137.824 145.195C143.834 136.822 145.615 134.694 146.501 134.863C146.615 134.887 146.72 134.944 146.802 135.026C146.885 135.109 146.942 135.213 146.965 135.328C147.463 137.32 145.801 145.499 142.745 149.93C140.314 153.467 137.106 157.662 135.992 159.097C139.588 160.017 151 162.988 151.895 163.875C152.79 164.761 158.15 176.393 158.445 177.895C158.643 178.685 158.681 179.505 158.558 180.31C158.435 181.114 158.153 181.886 157.728 182.58C157.498 182.892 157.205 183.153 156.867 183.343C156.53 183.534 156.155 183.651 155.769 183.686C153.845 183.854 143.108 178.385 141.42 177.49L131.831 178.815C130.894 179.955 124.411 187.636 119.786 189.172C117.702 189.909 115.574 190.509 113.413 190.97L113.641 207.624C113.64 207.687 113.626 207.748 113.599 207.805C113.573 207.861 113.536 207.912 113.489 207.953C113.412 208.015 113.317 208.05 113.219 208.055ZM99.2488 204.754L112.754 207.092L112.526 190.582C112.527 190.479 112.566 190.379 112.634 190.302C112.702 190.224 112.796 190.174 112.898 190.16C115.141 189.732 117.346 189.122 119.49 188.337C124.141 186.783 131.181 178.207 131.248 178.123C131.317 178.041 131.413 177.987 131.518 177.971L141.453 176.629C141.537 176.613 141.624 176.628 141.698 176.671C146.442 179.111 154.461 182.96 155.727 182.833C155.996 182.809 156.257 182.728 156.492 182.593C156.726 182.459 156.929 182.276 157.086 182.057C157.44 181.459 157.672 180.796 157.77 180.108C157.867 179.42 157.827 178.72 157.652 178.047C157.348 176.528 152.089 165.225 151.329 164.466C150.612 163.833 141.048 161.233 135.199 159.747C135.131 159.73 135.069 159.696 135.018 159.648C134.966 159.601 134.928 159.541 134.905 159.475C134.883 159.409 134.877 159.338 134.888 159.269C134.9 159.201 134.928 159.136 134.971 159.08C134.971 159.021 139.132 153.746 142.078 149.441C145.024 145.136 146.408 137.902 146.206 135.809C144.923 136.754 140.804 142.502 138.516 145.685C136.887 147.955 135.604 149.745 135.14 150.209C134.675 150.673 131.527 153.298 127.214 156.903C119.524 163.309 107.909 172.999 106.415 174.789C104.617 176.941 100.684 196.752 99.2488 204.754Z" fill="#4F3B31"/>
<path d="M158.057 178.393C157.988 178.395 157.92 178.379 157.859 178.346C157.798 178.314 157.747 178.266 157.711 178.207C155.035 174.266 150.578 167.834 150.013 167.386C149.447 166.939 142.314 165.867 135.975 165.014C135.863 164.999 135.762 164.939 135.694 164.849C135.626 164.759 135.597 164.645 135.612 164.533C135.628 164.421 135.687 164.32 135.778 164.252C135.868 164.184 135.982 164.155 136.093 164.17C139.267 164.601 149.7 166.044 150.544 166.703C151.388 167.361 157.694 176.654 158.403 177.676C158.435 177.722 158.457 177.773 158.469 177.828C158.481 177.883 158.482 177.939 158.472 177.994C158.461 178.049 158.44 178.101 158.41 178.148C158.379 178.195 158.339 178.235 158.293 178.267C158.228 178.33 158.146 178.374 158.057 178.393Z" fill="#4F3B31"/>
<path d="M157.491 181.879C157.43 181.879 157.369 181.866 157.314 181.839C157.258 181.813 157.209 181.775 157.17 181.727C155.364 179.642 151.751 175.532 151 174.899C150.392 174.409 143.268 172.586 136.862 171.117C136.753 171.091 136.66 171.023 136.601 170.928C136.542 170.833 136.524 170.719 136.549 170.611C136.561 170.556 136.584 170.505 136.616 170.46C136.648 170.415 136.689 170.376 136.736 170.347C136.783 170.318 136.836 170.299 136.891 170.29C136.946 170.282 137.002 170.285 137.056 170.298C139.293 170.805 150.561 173.413 151.54 174.257C152.519 175.101 157.592 180.925 157.812 181.179C157.849 181.22 157.877 181.268 157.894 181.32C157.912 181.373 157.919 181.428 157.915 181.483C157.912 181.538 157.897 181.592 157.872 181.641C157.847 181.69 157.812 181.734 157.77 181.77C157.694 181.84 157.595 181.88 157.491 181.879Z" fill="#4F3B31"/>
<path d="M157.761 287.99C157.761 287.99 139.698 284.614 138.98 284.377C138.263 284.141 125.475 280.284 123.787 279.558C122.098 278.832 101.629 275.227 100.667 276.671C99.7046 278.114 98.7423 286.547 98.4976 287.264C98.2528 287.982 96.3282 291.358 96.8094 293.291C97.0692 295.046 97.0692 296.829 96.8094 298.584C96.8094 298.584 96.5646 309.903 99.4514 310.148C102.338 310.392 104.997 299.546 104.997 299.546C104.997 299.546 109.091 301.96 117.515 302.441C125.939 302.922 134.135 298.828 134.135 298.828L156.554 304.163L157.761 287.99Z" fill="white"/>
<path d="M99.5696 310.57H99.4429C96.3198 310.308 96.3704 300.533 96.4042 298.575C96.6595 296.857 96.6595 295.111 96.4042 293.392C95.9822 291.704 97.1555 289.172 97.7885 287.847C97.932 287.526 98.0502 287.273 98.1008 287.138C98.1515 287.003 98.3119 285.964 98.4638 284.918C99.0547 281.026 99.6371 277.447 100.312 276.435C101.578 274.544 122.715 278.638 123.947 279.169C125.179 279.701 133.105 282.141 136.895 283.305L139.082 283.972C139.63 284.15 150.587 286.226 157.812 287.577C157.915 287.595 158.007 287.651 158.071 287.734C158.135 287.816 158.166 287.92 158.158 288.024L156.976 304.163C156.973 304.224 156.956 304.284 156.927 304.338C156.898 304.392 156.857 304.439 156.807 304.475C156.759 304.512 156.702 304.538 156.642 304.55C156.582 304.561 156.52 304.559 156.461 304.543L134.211 299.284C133.08 299.816 125.365 303.319 117.515 302.872C110.627 302.475 106.626 300.829 105.301 300.179C104.626 302.787 102.38 310.57 99.5696 310.57ZM102.406 276.738C101.933 276.689 101.454 276.755 101.013 276.933C100.405 277.844 99.6962 282.529 99.3248 285.044C99.1137 286.471 99.004 287.163 98.928 287.399C98.8521 287.636 98.7423 287.838 98.5735 288.201C98.0333 289.366 96.8853 291.805 97.2483 293.19C97.5218 294.997 97.5218 296.835 97.2483 298.643C97.1555 303.133 97.797 309.616 99.5189 309.726C101.376 309.844 103.621 303.505 104.583 299.453C104.6 299.389 104.631 299.329 104.673 299.278C104.716 299.227 104.768 299.186 104.828 299.158C104.887 299.128 104.952 299.113 105.018 299.113C105.084 299.113 105.149 299.128 105.208 299.158C105.208 299.158 109.336 301.521 117.54 301.994C125.745 302.466 133.865 298.465 133.949 298.423C134.04 298.394 134.138 298.394 134.228 298.423L156.174 303.606L157.314 288.345C154.275 287.779 139.537 285.019 138.845 284.783L136.676 284.116C132.574 282.858 124.951 280.52 123.635 279.954C121.989 279.237 107.166 276.738 102.406 276.738Z" fill="#4F3B31"/>
<path d="M95.29 200.188L119.507 204.619L118.604 219.754C118.604 219.754 123.964 222.286 125.593 237.235C127.222 252.184 131.89 286.808 130.725 289.375C129.56 291.941 122.335 303.133 105.546 303.834C88.7568 304.534 79.6659 289.147 78.0368 284.242C76.4077 279.338 85.0343 247.263 85.4986 244.469C85.9628 241.675 88.2925 222.522 90.3943 219.29C91.6897 217.292 93.258 215.485 95.0537 213.921L95.29 200.188Z" fill="#EFB990"/>
<path d="M104.432 304.29C87.727 304.29 79.1088 288.682 77.64 284.394C76.3233 280.452 81.2021 260.49 83.8188 249.787C84.4941 247.018 84.9837 245.017 85.0849 244.427C85.1862 243.836 85.3044 242.949 85.4901 241.633C86.3848 235.217 88.2587 221.864 90.0398 219.095C91.3209 217.114 92.8689 215.319 94.6401 213.761L94.868 200.196C94.8679 200.135 94.8815 200.074 94.9078 200.019C94.9341 199.963 94.9724 199.914 95.0199 199.875C95.0682 199.837 95.1241 199.81 95.1838 199.796C95.2435 199.781 95.3056 199.779 95.366 199.791L119.608 204.214C119.711 204.232 119.803 204.288 119.867 204.371C119.931 204.454 119.962 204.557 119.954 204.661L119.043 219.551C120.165 220.277 124.563 223.915 126.015 237.226C126.42 240.957 127.028 245.988 127.703 251.314C130.176 271.843 132 287.703 131.147 289.586C131.08 289.721 124.605 303.496 105.596 304.281L104.432 304.29ZM95.7036 200.694L95.4757 213.946C95.4758 214.008 95.4622 214.068 95.4359 214.124C95.4096 214.179 95.3713 214.228 95.3238 214.267C93.5631 215.803 92.0235 217.576 90.7488 219.534C89.0606 222.142 87.1445 235.876 86.3258 241.734C86.1401 243.059 85.9966 244.055 85.9122 244.553C85.8109 245.178 85.3213 247.187 84.6376 249.964C82.2235 259.848 77.2011 280.41 78.4419 284.133C79.86 288.353 88.6133 304.138 105.529 303.42C120.874 302.787 128.64 292.953 130.345 289.214C131.189 287.399 128.657 266.592 126.834 251.399C126.192 246.064 125.585 241.033 125.146 237.302C123.559 222.784 118.435 220.176 118.393 220.15C118.318 220.113 118.257 220.055 118.215 219.983C118.173 219.911 118.152 219.828 118.156 219.745L119.068 204.965L95.7036 200.694Z" fill="#4F3B31"/>
<path d="M114.442 218.327C113.071 218.321 111.701 218.234 110.34 218.066C110.23 218.053 110.128 217.997 110.059 217.91C109.989 217.823 109.957 217.712 109.969 217.601C109.984 217.49 110.041 217.389 110.13 217.319C110.218 217.25 110.33 217.218 110.441 217.23C111.769 217.392 113.105 217.476 114.442 217.483C114.554 217.483 114.662 217.528 114.741 217.607C114.82 217.686 114.865 217.793 114.865 217.905C114.865 218.017 114.82 218.124 114.741 218.204C114.662 218.283 114.554 218.327 114.442 218.327Z" fill="#4F3B31"/>
<path d="M104.693 217.095H104.6C101.319 216.367 98.0838 215.449 94.9102 214.343C94.808 214.303 94.7255 214.224 94.6803 214.124C94.635 214.024 94.6306 213.91 94.668 213.807C94.7054 213.704 94.7816 213.619 94.8804 213.571C94.9792 213.523 95.0928 213.515 95.1972 213.55C98.3344 214.643 101.533 215.551 104.778 216.268C104.832 216.28 104.884 216.302 104.929 216.334C104.975 216.366 105.014 216.407 105.044 216.454C105.073 216.501 105.094 216.554 105.103 216.609C105.112 216.663 105.111 216.72 105.098 216.774C105.077 216.866 105.026 216.947 104.952 217.006C104.878 217.064 104.787 217.095 104.693 217.095Z" fill="#4F3B31"/>
<path d="M228.564 207.793L226.158 269.927C226.158 269.927 223.508 270.171 222.545 271.37C221.904 272.201 221.339 273.088 220.857 274.02C220.857 274.02 196.539 274.983 184.975 278.359C178.338 280.247 171.889 282.745 165.713 285.821L155.111 285.593L152.942 313.524L167.156 314.005C167.156 314.005 174.137 318.099 205.925 320.994C237.714 323.889 252.409 324.607 255.777 320.749C259.145 316.892 260.597 310.874 261.078 307.75C261.559 304.627 267.341 285.348 267.341 257.409C267.341 229.469 241.09 189.037 235.308 179.862C229.526 170.687 223.491 171.421 219.414 172.4" fill="#EFB990"/>
<path d="M242.297 323.805C234.236 323.805 222.436 322.91 205.891 321.408C175.96 318.681 168.009 314.934 167.063 314.419L152.958 313.938C152.901 313.938 152.843 313.926 152.791 313.903C152.738 313.879 152.691 313.845 152.652 313.802C152.614 313.758 152.585 313.708 152.568 313.652C152.551 313.597 152.546 313.539 152.553 313.482L154.689 285.593C154.695 285.485 154.744 285.383 154.825 285.311C154.905 285.238 155.011 285.2 155.119 285.205L165.611 285.441C171.789 282.384 178.23 279.892 184.857 277.996C195.712 274.831 218.013 273.776 220.596 273.649C221.06 272.759 221.603 271.912 222.216 271.117C223.06 270.062 224.951 269.682 225.753 269.564L228.142 207.784C228.142 207.728 228.153 207.673 228.175 207.621C228.198 207.57 228.231 207.523 228.272 207.485C228.313 207.447 228.362 207.418 228.415 207.4C228.468 207.382 228.525 207.375 228.581 207.379C228.636 207.381 228.691 207.395 228.741 207.418C228.791 207.441 228.837 207.474 228.874 207.515C228.912 207.556 228.941 207.603 228.96 207.655C228.979 207.707 228.988 207.763 228.986 207.818L226.58 269.952C226.577 270.054 226.536 270.151 226.466 270.226C226.396 270.3 226.302 270.347 226.2 270.357C225.508 270.416 223.575 270.771 222.875 271.64C222.256 272.45 221.708 273.311 221.237 274.215C221.204 274.284 221.153 274.342 221.089 274.384C221.025 274.426 220.951 274.449 220.874 274.451C220.638 274.451 196.471 275.447 185.093 278.773C178.486 280.663 172.064 283.149 165.907 286.201C165.841 286.233 165.769 286.251 165.696 286.251L155.499 286.023L153.397 313.119L167.165 313.583C167.235 313.589 167.304 313.609 167.367 313.642C167.435 313.642 174.744 317.736 205.967 320.572C237.621 323.451 252.274 324.117 255.465 320.471C259.103 316.318 260.361 309.633 260.665 307.683C260.741 307.151 260.96 306.239 261.281 304.847C265.019 289.311 266.912 273.388 266.919 257.409C266.919 239.565 256.377 213.887 235.595 181.094L234.954 180.09C228.952 170.585 222.571 172.088 219.515 172.805C219.406 172.831 219.29 172.813 219.194 172.754C219.098 172.696 219.028 172.602 219 172.493C218.988 172.439 218.986 172.382 218.996 172.327C219.005 172.273 219.025 172.22 219.055 172.173C219.085 172.126 219.124 172.085 219.169 172.053C219.215 172.021 219.267 171.998 219.321 171.987C224.276 170.822 230.1 170.822 235.671 179.634L236.304 180.647C257.179 213.567 267.764 239.404 267.764 257.409C267.753 273.453 265.855 289.44 262.108 305.041C261.796 306.358 261.576 307.311 261.5 307.809C261.188 309.818 259.888 316.698 256.098 321.028C254.402 322.961 250.105 323.805 242.297 323.805Z" fill="#4F3B31"/>
<path d="M226.158 270.349C226.084 270.35 226.011 270.331 225.947 270.294C225.883 270.257 225.831 270.203 225.795 270.138C225.746 270.055 225.727 269.958 225.741 269.863C225.755 269.767 225.801 269.68 225.871 269.614L239.841 256.615C239.879 256.576 239.925 256.545 239.976 256.523C240.027 256.502 240.081 256.491 240.136 256.491C240.191 256.491 240.246 256.502 240.297 256.523C240.347 256.545 240.393 256.576 240.432 256.615C240.471 256.654 240.503 256.701 240.524 256.753C240.546 256.804 240.557 256.859 240.557 256.915C240.557 256.971 240.546 257.026 240.524 257.077C240.503 257.129 240.471 257.175 240.432 257.215L227.77 269.032L240.845 265.233C240.957 265.202 241.077 265.216 241.178 265.273C241.28 265.33 241.354 265.425 241.386 265.537C241.417 265.649 241.403 265.769 241.346 265.87C241.289 265.972 241.194 266.046 241.082 266.078L226.302 270.365L226.158 270.349Z" fill="#4F3B31"/>
<path d="M245.564 264.719C245.452 264.733 245.339 264.703 245.249 264.634C245.16 264.565 245.101 264.463 245.087 264.351C245.072 264.239 245.103 264.126 245.172 264.037C245.241 263.947 245.342 263.889 245.454 263.874L250.122 262.524C250.175 262.507 250.231 262.501 250.287 262.507C250.342 262.512 250.396 262.529 250.445 262.556C250.494 262.583 250.537 262.619 250.571 262.663C250.606 262.707 250.631 262.757 250.645 262.811C250.677 262.918 250.664 263.034 250.61 263.132C250.556 263.23 250.466 263.303 250.358 263.334L245.682 264.685C245.646 264.705 245.605 264.716 245.564 264.719Z" fill="#4F3B31"/>
<path d="M242.534 278.055H242.382C236.254 275.692 220.984 274.476 220.823 274.468C220.768 274.463 220.714 274.448 220.665 274.423C220.615 274.397 220.571 274.363 220.535 274.32C220.499 274.278 220.472 274.229 220.454 274.176C220.437 274.123 220.431 274.067 220.435 274.012C220.44 273.957 220.455 273.903 220.48 273.853C220.506 273.804 220.54 273.76 220.583 273.723C220.625 273.687 220.674 273.66 220.727 273.643C220.78 273.626 220.836 273.619 220.891 273.624C221.524 273.674 236.439 274.865 242.685 277.262C242.741 277.272 242.794 277.293 242.841 277.323C242.889 277.353 242.93 277.393 242.962 277.439C242.994 277.485 243.017 277.537 243.029 277.592C243.041 277.648 243.042 277.704 243.032 277.76C243.022 277.815 243.001 277.868 242.97 277.915C242.94 277.963 242.9 278.004 242.854 278.036C242.808 278.068 242.756 278.091 242.701 278.103C242.646 278.115 242.589 278.116 242.534 278.106V278.055Z" fill="#4F3B31"/>
<path d="M246.872 290.582C246.807 290.581 246.742 290.565 246.684 290.536C246.625 290.507 246.574 290.465 246.535 290.413C245.901 289.569 245.209 288.801 244.475 288.032C244.407 287.95 244.373 287.845 244.379 287.739C244.385 287.633 244.432 287.533 244.508 287.459C244.585 287.385 244.687 287.343 244.794 287.342C244.9 287.34 245.003 287.379 245.083 287.45C245.83 288.229 246.537 289.046 247.201 289.898C247.27 289.985 247.302 290.096 247.289 290.207C247.277 290.318 247.221 290.419 247.134 290.489C247.059 290.547 246.967 290.579 246.872 290.582Z" fill="#4F3B31"/>
<path d="M241.833 285.441C241.735 285.439 241.641 285.406 241.563 285.348C237.277 281.877 232.332 279.31 227.028 277.802C226.972 277.789 226.92 277.766 226.873 277.733C226.827 277.7 226.788 277.658 226.758 277.61C226.727 277.562 226.707 277.508 226.698 277.452C226.688 277.396 226.69 277.338 226.703 277.283C226.715 277.227 226.739 277.175 226.772 277.129C226.805 277.082 226.847 277.043 226.895 277.013C226.943 276.983 226.997 276.962 227.053 276.953C227.109 276.943 227.166 276.945 227.222 276.958C232.653 278.492 237.716 281.114 242.103 284.664C242.172 284.719 242.221 284.795 242.245 284.879C242.269 284.964 242.266 285.054 242.236 285.137C242.206 285.219 242.152 285.291 242.079 285.341C242.007 285.391 241.921 285.417 241.833 285.416V285.441Z" fill="#4F3B31"/>
<path d="M165.713 312.258C165.601 312.258 165.493 312.213 165.414 312.134C165.335 312.055 165.291 311.948 165.291 311.836L165.088 288.48C165.087 288.424 165.097 288.369 165.117 288.318C165.137 288.266 165.167 288.219 165.206 288.179C165.244 288.139 165.29 288.107 165.341 288.085C165.392 288.062 165.446 288.05 165.502 288.049C165.614 288.049 165.721 288.094 165.8 288.173C165.879 288.252 165.924 288.359 165.924 288.471L166.168 311.827C166.169 311.94 166.124 312.048 166.045 312.129C165.966 312.209 165.859 312.256 165.746 312.258H165.713Z" fill="#4F3B31"/>
<path d="M164.024 306.476H153.895C153.783 306.476 153.676 306.431 153.597 306.352C153.518 306.273 153.473 306.166 153.473 306.054C153.473 305.942 153.518 305.834 153.597 305.755C153.676 305.676 153.783 305.632 153.895 305.632H164.024C164.136 305.632 164.244 305.676 164.323 305.755C164.402 305.834 164.447 305.942 164.447 306.054C164.444 306.165 164.399 306.271 164.321 306.35C164.242 306.428 164.136 306.474 164.024 306.476Z" fill="#4F3B31"/>
<path d="M156.318 292.742C156.21 292.743 156.107 292.702 156.028 292.628C155.95 292.554 155.902 292.453 155.896 292.346C155.892 292.291 155.9 292.236 155.918 292.184C155.936 292.131 155.965 292.084 156.002 292.043C156.039 292.002 156.084 291.969 156.133 291.945C156.183 291.922 156.238 291.909 156.293 291.907L160.386 291.662C160.442 291.659 160.497 291.666 160.55 291.684C160.603 291.702 160.651 291.731 160.692 291.767C160.734 291.804 160.768 291.849 160.792 291.899C160.816 291.949 160.831 292.003 160.834 292.059C160.839 292.17 160.8 292.279 160.726 292.363C160.652 292.446 160.548 292.497 160.437 292.506L156.343 292.742H156.318Z" fill="#4F3B31"/>
</svg>
