<svg width="36" height="26" viewBox="0 0 36 26" fill="none" xmlns="http://www.w3.org/2000/svg">
<path d="M11.9589 0.726562L13.4384 3.93204C10.3151 4.83615 7.89041 6.11012 6.16438 7.75396C4.52055 9.3978 3.69863 11.5348 3.69863 14.1649C3.69863 16.7951 4.19178 18.6855 5.17808 19.8362C5.34247 18.6033 5.87671 17.617 6.78082 16.8772C7.68493 16.0553 8.75343 15.6444 9.9863 15.6444C11.3836 15.6444 12.5753 16.1375 13.5616 17.1238C14.5479 18.0279 15.0411 19.1786 15.0411 20.5759C15.0411 21.9731 14.5069 23.1238 13.4384 24.0279C12.4521 24.932 11.2603 25.4663 9.86302 25.6307C7.23288 25.9594 4.93151 25.0964 2.9589 23.0416C0.986301 20.9046 0 17.9457 0 14.1649C0 10.6307 1.06849 7.75396 3.20548 5.53478C5.42466 3.3156 8.34247 1.71287 11.9589 0.726562ZM32.9178 0.726562L34.3973 3.93204C31.274 4.83615 28.8493 6.11012 27.1233 7.75396C25.4795 9.3978 24.6575 11.5348 24.6575 14.1649C24.6575 16.7951 25.1507 18.6855 26.137 19.8362C26.3014 18.6033 26.8356 17.617 27.7397 16.8772C28.6438 16.0553 29.7123 15.6444 30.9452 15.6444C32.3425 15.6444 33.5342 16.1375 34.5205 17.1238C35.5069 18.0279 36 19.1786 36 20.5759C36 21.9731 35.4658 23.1238 34.3973 24.0279C33.411 24.932 32.2192 25.4663 30.8219 25.6307C28.1918 25.9594 25.8904 25.0964 23.9178 23.0416C21.9452 20.9046 20.9589 17.9457 20.9589 14.1649C20.9589 10.6307 22.0274 7.75396 24.1644 5.53478C26.3836 3.3156 29.3014 1.71287 32.9178 0.726562Z" fill="#E79D64"/>
</svg>
