<svg width="8" height="13" viewBox="0 0 8 13" fill="none" xmlns="http://www.w3.org/2000/svg">
<path d="M6.65833 6.41925C5.93313 5.84547 5.28786 5.33102 4.63859 4.82094C3.57535 3.98557 2.49622 3.16957 1.45193 2.31148C1.01655 1.95325 0.65021 1.51098 0.259217 1.10051C0.0913731 0.924276 -0.0553298 0.697353 0.143793 0.48495C0.364759 0.249043 0.6059 0.397585 0.790344 0.581069C2.7745 2.55517 5.23081 3.91042 7.41068 5.62826C8.05305 6.1345 8.13675 6.56069 7.59285 7.18707C7.42449 7.38782 7.24174 7.57603 7.046 7.75019C5.62313 8.97184 4.20952 10.2054 2.7586 11.3929C2.29273 11.7742 1.72759 12.0368 1.19645 12.3334C1.10593 12.384 0.86749 12.3635 0.853336 12.3223C0.800912 12.1708 0.743433 11.9493 0.81639 11.8397C1.10315 11.408 1.38903 10.9544 1.76649 10.6084C2.67744 9.7735 3.64151 8.99667 4.58051 8.19205C5.13271 7.71884 5.67695 7.23626 6.22688 6.76025C6.34719 6.6561 6.47668 6.56219 6.65833 6.41925Z" fill="white"/>
</svg>
