<svg width="33" height="32" viewBox="0 0 33 32" fill="none" xmlns="http://www.w3.org/2000/svg">
<path d="M15.7688 22.24C14.8126 22.24 13.4174 21.7959 12.1079 21.0715C11.3839 20.6705 10.7592 20.1426 10.3859 19.3784C10.2712 19.1829 10.2028 18.9636 10.1862 18.7375C10.1922 18.519 10.1999 18.3149 10.4126 18.2235C10.5203 18.186 10.6364 18.1797 10.7476 18.2053C10.8588 18.2309 10.9604 18.2873 11.0409 18.3682C11.2984 18.6168 11.4384 18.9996 11.7149 19.2136C13.5935 20.6687 15.6718 21.3056 18.0217 20.5785C19.1165 20.2397 19.8762 19.4706 20.4506 18.5022C20.5891 18.2687 20.6885 17.9723 20.8929 17.8282C21.1218 17.6669 21.5109 17.5092 21.717 17.6018C21.9231 17.6945 22.0898 18.097 22.0928 18.3657C22.0959 18.6576 21.931 18.9764 21.77 19.2413C20.531 21.2778 18.704 22.2639 15.7688 22.24Z" fill="#4F3B31"/>
<path d="M9.94439 9.58473C11.5068 9.55003 12.4566 10.0691 13.2501 10.9176C13.3913 11.0651 13.5016 11.2393 13.5748 11.4299C13.7598 11.9456 13.3912 12.3904 12.8674 12.2258C12.4891 12.0836 12.1429 11.8676 11.8489 11.5905C11.1334 10.9712 10.355 10.8066 9.44319 11.0561C8.10245 11.4228 7.03901 12.0985 6.49261 13.4404C6.36816 13.7459 6.1675 14.0291 5.77395 13.8986C5.3539 13.7594 5.30554 13.3607 5.44392 13.0517C5.71794 12.4401 5.99948 11.7949 6.4336 11.2995C7.4424 10.1489 8.82221 9.7134 9.94439 9.58473Z" fill="#4F3B31"/>
<path d="M26.1293 11.3065C26.0584 11.4005 25.9421 11.7088 25.7469 11.7719C25.6204 11.7959 25.4902 11.792 25.3655 11.7603C25.2407 11.7287 25.1244 11.6702 25.0246 11.5889C24.7969 11.3891 24.6676 11.0719 24.5129 10.7957C24.4176 10.5999 24.263 10.4391 24.071 10.3362C23.8791 10.2332 23.6596 10.1932 23.4438 10.222C22.2518 10.3247 21.1821 10.6668 20.4126 11.676C20.2957 11.8293 19.8848 11.8325 19.8078 11.7622C19.6439 11.6119 19.4918 11.4207 19.5495 11.2312C19.6627 10.8886 19.857 10.5784 20.116 10.3272C21.1467 9.31826 22.428 8.91474 23.8443 8.95381C24.9151 8.98277 26.0893 10.1413 26.1293 11.3065Z" fill="#4F3B31"/>
<path d="M9.02354 15.4018C9.24689 15.5074 9.49154 15.8218 9.50165 16.0525C9.4901 16.1919 9.44629 16.3267 9.3737 16.4462C9.30111 16.5657 9.20172 16.6667 9.08337 16.7411C8.23849 17.1739 7.32653 17.3468 6.38726 17.088C6.03784 16.9924 5.69948 16.8159 5.67312 16.3691C5.64757 15.9363 5.9164 15.6777 6.26637 15.5482C6.76879 15.3624 8.66729 15.2334 9.02354 15.4018Z" fill="#4F3B31"/>
<path d="M24.4991 15.9993C23.876 15.7543 23.7204 15.0946 24.2052 14.6408C24.4835 14.3862 24.8231 14.2081 25.1908 14.124C25.5778 14.0403 26.0035 14.0904 26.4066 14.1355C26.7994 14.1794 27.1641 14.3242 27.2712 14.7745C27.3321 14.9731 27.3216 15.1868 27.2416 15.3785C27.1616 15.5702 27.0171 15.7279 26.833 15.8243C26.4281 16.0417 24.8096 16.1214 24.4991 15.9993Z" fill="#4F3B31"/>
<path d="M0.766388 11.4454C-0.647709 17.0033 0.590578 21.9063 4.44943 26.0201C4.54997 26.1264 4.65229 26.2326 4.75474 26.3351C6.82753 28.4079 9.40942 29.6877 11.4553 30.5783C12.3334 30.9618 16.8388 31.4274 18.0578 31.2459C25.3022 30.164 30.0694 26.0781 31.7298 19.2423C32.0469 17.9033 32.2048 16.5315 32.2003 15.1555C32.208 11.9139 30.8431 8.14538 28.0285 5.32293C27.7387 5.08333 27.4499 4.83512 27.1707 4.59456C26.5652 4.07398 25.9391 3.53497 25.2843 3.07531C20.2818 -0.445589 15.0843 -0.465289 9.83644 1.40178C5.08504 3.09112 2.03377 6.47093 0.766388 11.4454ZM9.85665 3.066C14.4612 1.15263 19.0812 0.814952 23.5873 3.68071C24.4111 4.20526 26.6077 5.98054 26.9534 6.24719L26.9757 6.26356L26.994 6.28394C28.7519 8.14814 30.7648 11.5567 30.7204 15.0607C30.7058 16.5589 30.503 18.0494 30.1168 19.4971C28.9722 23.6574 26.2357 26.6894 21.7509 28.7631C17.1919 30.9462 10.6536 28.7393 8.91397 27.5909C6.99114 26.2763 5.3087 24.6409 3.94018 22.7561C1.7939 19.7174 1.31239 15.3495 2.46557 11.3565C3.00535 9.51281 3.94862 7.81238 5.22699 6.37845C6.50536 4.94452 8.0868 3.81302 9.85665 3.066Z" fill="#4F3B31"/>
</svg>
