<svg width="31" height="33" viewBox="0 0 31 33" fill="none" xmlns="http://www.w3.org/2000/svg">
<path d="M11.3667 5.00666C11.4112 4.18615 11.455 3.37896 11.5057 2.44456C11.063 2.44456 10.6716 2.45933 10.2816 2.44112C9.66483 2.4124 9.43585 2.24617 9.40559 1.84609C9.3735 1.42155 9.64443 1.15503 10.235 1.07085C10.5472 1.03211 10.8614 1.01022 11.176 1.00522C13.5184 0.926015 15.861 0.849451 18.2038 0.775495C18.3459 0.770258 18.4881 0.782133 18.6272 0.810912C19.1286 0.918235 19.4128 1.2376 19.4084 1.67149C19.4064 1.88484 19.3254 2.09017 19.1804 2.24905C19.0354 2.40793 18.8363 2.50945 18.6205 2.53464C18.2312 2.59815 17.8312 2.59765 17.3771 2.62982V4.87494C19.8713 5.11732 21.976 6.28079 24.0988 7.67927C24.6121 7.26704 25.1562 6.86962 25.6533 6.42261C27.0943 5.12866 27.8896 5.22114 28.9428 6.66459C29.2127 6.99214 29.5051 7.30119 29.818 7.58952C30.6263 8.42415 30.647 9.0722 29.8529 9.93768C29.319 10.5196 28.7527 11.0731 28.1853 11.6555C28.5593 12.3235 28.9374 12.9768 29.295 13.6411C31.333 17.4274 31.0412 23.0605 27.7416 26.7292C24.9942 29.7841 21.6228 31.6278 17.5822 32.3743C13.7508 33.0819 10.0754 32.5266 6.52913 31.019C4.05884 29.9687 2.3601 28.1123 1.42758 25.7031C-0.448838 20.8553 -0.139118 16.0856 2.35892 11.483C3.31618 9.71943 4.81249 8.46352 6.45406 7.36813C7.40297 6.74513 8.39038 6.18065 9.41059 5.67791C10.0097 5.37793 10.6876 5.23329 11.3667 5.00666ZM2.8109 19.6721C2.80858 21.208 3.05728 22.7343 3.54753 24.1928C4.42088 26.7364 6.03084 28.5849 8.69219 29.4262C14.6701 31.316 20.1061 30.4025 24.8164 26.2395C28.3188 23.144 29.0362 18.5579 26.7418 14.5255C24.9068 11.3006 22.1393 9.13125 18.6101 7.90786C16.9843 7.35323 15.2607 7.12834 13.5437 7.24673C11.4955 7.37276 9.66584 8.14929 7.93201 9.16131C6.1145 10.202 4.70157 11.807 3.91609 13.7233C3.13166 15.5775 2.89632 17.5048 2.8109 19.6721ZM13.3498 2.57894C13.3942 3.31741 13.4369 4.0249 13.4793 4.73054H15.3788C15.4888 4.00636 15.5928 3.32249 15.7058 2.57894H13.3498ZM28.7459 8.74577L27.4307 7.30482L25.8395 8.96339L26.9014 10.1193L28.7459 8.74577Z" fill="#4F3B31"/>
<path d="M16.019 18.0978C17.1869 18.1284 18.2956 18.1517 19.4038 18.1899C19.7453 18.1892 20.0859 18.2255 20.4194 18.2981C20.6193 18.3351 20.7998 18.439 20.9304 18.592C21.0611 18.7451 21.1336 18.9377 21.1358 19.1374C21.1413 19.3508 21.0721 19.5593 20.9399 19.7287C20.8079 19.898 20.6205 20.0178 20.4094 20.0682C20.109 20.1588 19.7956 20.2003 19.4815 20.1913C17.9401 20.1166 16.4 20.0141 14.8594 19.9227C14.1818 19.8825 13.8541 19.6142 13.7791 18.9694C13.7534 18.6617 13.7612 18.3524 13.8023 18.0465C13.9963 16.1766 14.1969 14.3076 14.4041 12.4392C14.4419 12.1331 14.4991 11.8297 14.5756 11.5306C14.6638 11.1671 14.8908 10.9326 15.2921 10.9234C15.7434 10.9132 15.9724 11.1802 16.0486 11.5798C16.1136 11.8814 16.1472 12.1887 16.1489 12.497C16.1155 14.124 16.0635 15.751 16.0195 17.3779C16.0144 17.5727 16.019 17.7675 16.019 18.0978Z" fill="#4F3B31"/>
</svg>
