<svg width="32" height="33" viewBox="0 0 32 33" fill="none" xmlns="http://www.w3.org/2000/svg">
<path d="M31.0873 11.2035C30.9913 10.8101 30.793 10.508 30.5292 10.3529C30.429 10.2936 30.3179 10.2558 30.2026 10.242C30.0875 10.2282 29.9706 10.2385 29.8596 10.2724C29.5022 10.3754 29.1013 10.6949 29.2222 11.6324C29.3167 12.3661 29.3951 13.1157 29.4711 13.8397C29.5035 14.1488 29.5363 14.4577 29.5695 14.7667C29.4481 16.8222 29.3137 18.6754 28.9017 20.5207C28.3635 22.9311 27.2514 25.2032 25.5965 27.2736C24.2543 28.9529 22.5392 29.9936 20.353 30.4549C18.5438 30.8233 16.688 30.8967 14.856 30.6723C13.3667 30.5002 11.6206 30.2267 9.96175 29.5023C8.04118 28.6638 6.68182 27.6736 5.6835 26.3858C4.20636 24.4752 3.1505 22.266 2.58699 19.9072C2.2055 18.4096 2.10383 16.8529 2.28725 15.3175C2.5683 13.058 3.32904 10.8375 4.68116 8.32929C5.15712 7.44398 5.80036 6.66223 6.57428 6.02856C8.45795 4.48333 10.3235 3.42219 12.2775 2.78429C13.6671 2.33057 15.2008 2.18795 16.9679 2.34842C18.1423 2.45504 19.2834 2.80986 20.387 3.1531C20.6343 3.22995 20.8817 3.30678 21.1295 3.38118L21.2437 3.41622C21.4548 3.48894 21.6727 3.53981 21.894 3.56805C22.0407 3.58113 22.3454 3.49867 22.4034 3.32278C22.4308 3.22225 22.4363 3.11685 22.4193 3.01396C22.4023 2.91107 22.3633 2.81319 22.305 2.72718C22.1554 2.54064 21.962 2.39509 21.7425 2.30383C21.0047 1.99375 20.3376 1.71788 19.6416 1.48326C18.3168 1.03489 16.9283 0.810009 15.5315 0.817567C13.2913 0.836517 11.0931 1.43556 9.14584 2.55773C8.42672 2.96427 7.79119 3.34206 7.20291 3.71275C5.47118 4.8039 4.21277 6.08193 3.35578 7.6198C2.32725 9.46505 1.61676 11.1656 1.18342 12.8182C0.66973 14.7776 0.485179 16.3053 0.584896 17.7713C0.757816 20.309 1.55599 22.8216 3.02593 25.4527C3.55549 26.4243 4.20077 27.3265 4.9473 28.1388C6.50842 29.8089 8.48643 30.9905 10.993 31.7503C12.9207 32.3368 14.9225 32.6351 16.9353 32.6357C17.8016 32.6354 18.6671 32.5808 19.5269 32.4721C22.9007 32.0467 25.4984 30.5666 27.4673 27.9473C29.0428 25.8514 30.0864 23.7539 30.6579 21.5356C31.3091 19.0065 31.5509 16.2519 31.3974 13.1144C31.356 12.4686 31.2521 11.8286 31.0873 11.2035Z" fill="#4F3B31"/>
<path d="M18.366 6.76628C18.5043 6.78088 18.6426 6.79572 18.7809 6.8088C18.9051 6.82047 19.2363 6.85188 19.3469 6.52569C19.394 6.40283 19.3922 6.26634 19.3422 6.1447C19.2923 6.02308 19.1977 5.92571 19.0785 5.87295C18.8599 5.76089 18.6282 5.67687 18.3888 5.62281C17.2942 5.38934 16.1697 5.33699 15.0586 5.46781C12.986 5.71458 11.2458 6.25815 9.73837 7.12974C7.73573 8.28758 6.49682 9.76576 5.95085 11.6494C5.86727 11.9383 5.75487 12.2286 5.6555 12.4847C4.80006 14.6325 4.58683 16.9877 5.04234 19.2574C5.3642 20.8616 5.76135 22.1567 6.65327 23.2632C8.70122 25.8039 11.0302 27.2373 13.7733 27.6456C14.3646 27.7337 14.9723 27.7631 15.5587 27.7915C15.8259 27.8044 16.1021 27.8179 16.3725 27.8367H16.3833C18.5026 27.7923 20.5832 27.2525 22.4625 26.2592C22.9131 26.0318 23.3283 25.7385 23.6946 25.3886C24.8527 24.2355 25.5825 23.1424 25.9911 21.9486C26.0735 21.7079 26.1823 21.4688 26.2877 21.2375C26.32 21.1667 26.3524 21.0958 26.384 21.0246C27.3278 18.9062 27.3193 16.5902 26.358 13.9442C26.2777 13.7218 26.152 13.519 25.9892 13.3492C25.8846 13.2307 25.7504 13.1428 25.6006 13.0949C25.4509 13.0472 25.2912 13.0411 25.1385 13.0774C24.9929 13.1246 24.8627 13.2114 24.7623 13.3282C24.6619 13.445 24.5949 13.5873 24.5688 13.74C24.5043 14.0177 24.552 14.3268 24.5941 14.5997L24.6037 14.661C24.6527 14.9828 24.7121 15.3077 24.7695 15.6221C24.8669 16.1557 24.9677 16.7077 25.0193 17.2526C25.1139 18.1527 24.9948 19.0626 24.6722 19.9067C24.385 20.6669 24.0599 21.4118 23.6982 22.1386C23.1 23.3065 22.4451 24.0717 21.6367 24.5444C21.0036 24.9151 20.2889 25.1786 19.5975 25.4334L19.3251 25.5342C18.1032 25.9887 16.7884 25.9897 15.5094 25.9904H15.4996C13.5327 25.9904 12.0347 25.5502 10.7863 24.6055C10.5829 24.4514 10.3691 24.3073 10.1623 24.1679C9.93334 24.0135 9.69663 23.854 9.47691 23.6827C8.28583 22.7544 7.50761 21.709 7.09791 20.4855C6.61558 19.0467 6.11078 17.138 6.48959 15.1327C6.61416 14.5318 6.76898 13.9379 6.95347 13.3532C7.06564 12.9761 7.18145 12.5861 7.27921 12.1976C7.67877 10.6108 8.64725 9.38176 10.2402 8.44033C12.389 7.17026 14.7913 6.58023 17.374 6.68277C17.704 6.69597 18.0402 6.73172 18.366 6.76628Z" fill="#4F3B31"/>
<path d="M12.7796 12.4695C13.3015 12.166 13.8552 11.9224 14.4305 11.7434C15.0238 11.5644 15.6482 11.4434 16.2519 11.3264C16.4075 11.2962 16.5632 11.266 16.7183 11.2349C16.916 11.1953 17.2148 11.1352 17.2209 10.7813C17.2257 10.5035 17.0436 10.3172 16.7343 10.2828C16.5718 10.2644 16.4082 10.2578 16.2448 10.2633C15.1471 10.3051 14.0429 10.5636 12.7703 11.0771C11.6619 11.5065 10.7589 12.3515 10.2484 13.4369C9.32868 15.3486 9.27422 17.3933 10.0869 19.5142C10.3158 20.1111 10.66 20.8731 11.2965 21.4734C12.7225 22.8181 14.4573 23.4997 16.4533 23.4997C16.5479 23.4997 16.6428 23.5024 16.7378 23.5054C16.8252 23.5083 16.914 23.5114 17.0029 23.5114C17.1094 23.5122 17.2158 23.5064 17.3215 23.4939C18.7123 23.3198 19.8013 22.8474 20.6506 22.0497C22.2453 20.5518 22.9665 18.546 22.7948 16.0877C22.7705 15.7412 22.6022 15.3987 22.4538 15.0967C22.3198 14.8241 22.0131 14.616 21.7073 14.7684C21.5003 14.8966 21.3489 15.0995 21.2838 15.3362C21.244 15.5012 21.2303 15.6716 21.2434 15.8408C21.2455 15.9234 21.2474 16.0014 21.2434 16.0777C21.2331 16.2655 21.2285 16.4564 21.224 16.6413C21.2248 17.0661 21.1922 17.4902 21.1266 17.9096C20.7173 20.1138 19.491 21.408 17.4822 21.7566C16.0669 22.0019 14.6743 21.7349 13.3436 20.9625C12.8305 20.6647 12.3089 20.3127 11.969 19.7576C10.9758 18.1351 10.7303 16.4078 11.2394 14.6236C11.5268 13.6138 12.0456 12.8889 12.7796 12.4695Z" fill="#4F3B31"/>
<path d="M26.3057 4.9739C26.3226 4.88328 26.3409 4.79266 26.3591 4.70215C26.4221 4.41913 26.4673 4.13234 26.4944 3.84351C26.532 3.33256 26.2984 3.15107 25.9091 3.02377C25.7593 2.9702 25.598 2.95798 25.4419 2.98831C25.2857 3.01864 25.1404 3.09044 25.0207 3.19639C23.9182 4.12918 22.8066 5.07448 21.7165 6.00587C21.3246 6.34117 21.1862 6.77035 21.2842 7.3564C21.3469 7.73316 21.3859 8.12219 21.4235 8.49848C21.4522 8.7845 21.4818 9.08007 21.5217 9.3704C21.5529 9.59849 21.4894 9.75312 21.2874 9.9408L21.1972 10.0245C20.6397 10.5423 20.0634 11.0775 19.5218 11.6311C18.5575 12.6167 17.5851 13.6265 16.6438 14.603C16.197 15.0669 15.7497 15.5307 15.3021 15.9942C14.9821 16.3253 15.0494 16.5803 15.1624 16.7359C15.2041 16.7985 15.2603 16.8497 15.326 16.8853C15.3917 16.9208 15.465 16.9395 15.5395 16.9398C15.6917 16.9323 15.838 16.8774 15.9583 16.7825C16.1679 16.6249 16.3664 16.4528 16.5524 16.2673C17.6304 15.2365 18.7077 14.2048 19.7843 13.1724L21.5343 11.4956C21.7105 11.3271 21.8363 11.2457 22.0599 11.255C23.0147 11.284 23.9851 11.2833 24.9237 11.2822C25.1901 11.2818 25.4565 11.2818 25.7231 11.2822H25.7253C25.8895 11.2866 26.0525 11.2532 26.2023 11.1847C26.352 11.1162 26.4845 11.0143 26.5899 10.8867C27.3507 10.0069 28.1382 9.12446 28.8757 8.3018C29.238 7.89783 29.5514 7.47681 29.411 6.77012C29.2842 6.13479 29.1992 5.85367 28.4937 5.8497C28.1254 5.84912 27.7519 5.86885 27.3908 5.88964C27.1864 5.90132 26.982 5.91302 26.7775 5.92073C26.6125 5.9268 26.4488 5.9255 26.2588 5.92386L26.1144 5.92269C26.1293 5.84958 26.1441 5.7779 26.1587 5.70759C26.2112 5.45276 26.2605 5.21367 26.3057 4.9739ZM28.0099 7.30967L28.0385 7.31177L26.0635 9.84363H22.7493C22.7397 9.80976 22.7292 9.77533 22.7188 9.74041C22.6705 9.60211 22.6396 9.45821 22.6265 9.31212C22.6119 8.92555 22.6126 8.53069 22.6132 8.14891C22.6132 7.91989 22.614 7.69089 22.6112 7.4621C22.6084 7.23624 22.6409 7.0558 22.8079 6.90981C23.432 6.36394 24.0539 5.81514 24.714 5.2326L25.2714 4.74116C25.2658 4.8284 25.261 4.89181 25.2517 4.95289C25.2251 5.12609 25.1952 5.29883 25.1653 5.47156C25.1087 5.80032 25.0501 6.14029 25.0146 6.4791C24.9832 6.77784 25.0245 6.98126 25.1445 7.11849C25.2645 7.25572 25.4541 7.321 25.7449 7.32637C26.1695 7.33455 26.601 7.32228 27.0179 7.31072C27.244 7.30453 27.47 7.29834 27.696 7.29507C27.7887 7.29484 27.8809 7.30056 28.0099 7.30967Z" fill="#4F3B31"/>
</svg>
