<svg width="32" height="31" viewBox="0 0 32 31" fill="none" xmlns="http://www.w3.org/2000/svg">
<path d="M1.22705 19.2429C1.34285 19.3217 1.45964 19.399 1.58321 19.4809L1.69153 19.5528C0.869647 20.3726 0.36513 21.2466 0.150273 22.2221C-0.0510085 23.1364 0.212188 23.907 0.932673 24.5143C1.02729 24.594 1.12315 24.672 1.22136 24.7519L1.31072 24.8246C0.764638 25.547 0.46845 26.2725 0.405143 27.0411C0.326182 28.0025 0.660307 28.694 1.3981 29.0967C1.94224 29.3936 2.4771 29.6698 3.04036 29.787C4.15698 30.016 5.28541 30.183 6.42047 30.2876C8.0044 30.4369 9.72158 30.5598 11.6707 30.663C12.7563 30.7205 14.0176 30.7769 15.3291 30.7769C15.5313 30.7769 15.7345 30.7755 15.9386 30.7726C17.4257 30.7515 18.7507 30.6636 19.9174 29.7954C20.0511 29.6818 20.2181 29.6152 20.3934 29.6056C20.5685 29.5961 20.7419 29.6441 20.8871 29.7426C21.1029 29.8492 21.3358 29.9169 21.5752 29.9427C21.6267 29.9513 21.6779 29.96 21.7285 29.9694C23.7657 30.3495 25.8511 30.3033 27.8677 30.2582C28.1663 30.2516 28.4649 30.2454 28.7634 30.2397C29.8706 30.2199 30.6388 29.599 30.9847 28.4438C31.1051 28.0554 31.1886 27.6565 31.234 27.2525L31.3004 26.6133C31.4474 25.2003 31.5995 23.7404 31.7005 22.2998C31.9305 19.0159 32.0062 15.6427 31.9251 12.2741C31.9091 11.6117 31.8708 10.966 31.8116 10.3547C31.7343 9.55992 31.3518 8.96564 30.7053 8.6358C30.171 8.36318 29.5655 8.05398 28.9284 7.90936C26.9944 7.46995 25.0023 7.57689 23.2446 7.6704C23.0656 7.67996 22.8806 7.68065 22.7018 7.6812C22.1061 7.68342 21.4911 7.68578 20.8939 8.00079C20.2949 6.52643 19.2883 5.4081 18.3792 4.50669C18.0236 4.15418 17.6659 3.80352 17.3064 3.45471C16.7414 2.90365 16.1566 2.33388 15.5949 1.7619C14.6598 0.81104 13.4569 0.489515 11.9173 0.778347C11.6649 0.825579 11.4245 0.922774 11.2102 1.06423C10.996 1.20568 10.8121 1.38853 10.6695 1.60203C10.3626 2.06246 10.2512 2.62592 10.3597 3.16851C10.4235 3.52413 10.5291 3.87096 10.6744 4.20179C11.0085 4.92976 11.371 5.64249 11.7761 6.4321C11.8271 6.53142 11.8806 6.62936 11.9342 6.72771C12.1339 7.05618 12.2847 7.41195 12.382 7.78385C12.3576 7.79036 12.3349 7.79688 12.3136 7.80311C12.2593 7.8217 12.203 7.83338 12.1458 7.83788C11.467 7.8449 10.7882 7.85076 10.1094 7.85547C9.05261 7.86378 7.95992 7.87223 6.88536 7.88789C5.74106 7.90552 4.60457 8.07989 3.50762 8.40612C2.62116 8.65539 1.82544 9.15514 1.21595 9.84543C0.00784818 11.2292 0.0546909 12.7979 1.34065 14.0408C1.34761 14.0575 1.35266 14.075 1.35573 14.0928C1.35822 14.1035 1.36087 14.1147 1.36378 14.1268C0.734545 14.7665 0.304174 15.5748 0.124772 16.4541C-0.137322 17.6289 0.23366 18.5666 1.22705 19.2429ZM3.59585 14.736C4.06768 14.627 4.39228 14.3103 4.42303 13.9292C4.46459 13.4192 3.94705 13.2205 3.63799 13.1019C3.47173 13.0423 3.30176 12.9934 3.12917 12.9558C3.00214 12.9253 2.87082 12.8937 2.74629 12.8534C2.16087 12.6642 1.97966 12.3409 2.12082 11.7374C2.2223 11.2612 2.47188 10.8293 2.83381 10.5036C3.61622 9.8119 4.4093 9.46281 5.32969 9.40477L5.42138 9.39895C7.38848 9.27525 9.42125 9.14711 11.4251 9.33454C11.9733 9.38 12.5246 9.37285 13.0715 9.3132C13.4442 9.27663 13.6889 9.16595 13.8195 8.97478C13.9442 8.79151 13.9607 8.54257 13.8681 8.21287C13.6205 7.37238 13.3272 6.54599 12.9897 5.73738C12.831 5.34368 12.6505 4.95178 12.4761 4.57277C12.2611 4.10607 12.0389 3.6233 11.8569 3.13637C11.7092 2.74171 11.6962 2.46576 11.8168 2.29301C11.9405 2.11556 12.2176 2.02815 12.6618 2.03355C13.4653 2.0384 14.0563 2.27611 14.5238 2.7816C14.973 3.26728 15.4418 3.74977 15.8952 4.21634C16.6113 4.95303 17.3516 5.7148 18.0302 6.50538C19.3721 8.06853 19.9835 9.66022 19.9004 11.3715C19.8624 12.2505 19.8731 13.131 19.9324 14.0089C19.9558 14.692 19.9229 15.3759 19.8344 16.0537C19.7913 16.4704 19.7469 16.9012 19.7302 17.3282C19.6678 18.9237 19.6298 20.5467 19.5931 22.1164C19.5711 23.0545 19.5492 23.9926 19.5222 24.9306L19.5209 24.9694C19.4999 25.7012 19.4781 26.4579 19.3896 27.1926C19.2404 28.4305 18.7902 28.8839 17.6052 28.9892C16.6853 29.0709 15.7419 29.0803 14.8297 29.0893C14.4791 29.0928 14.1284 29.0963 13.7783 29.1032C13.4042 29.111 13.0242 29.1089 12.6562 29.1069C12.5084 29.1061 12.3603 29.1056 12.2119 29.1051L12.2104 29.0816L12.1486 29.0772C11.4589 29.0263 10.769 28.977 10.0788 28.9293C8.29502 28.804 6.45038 28.6742 4.64037 28.5052C3.90922 28.4369 3.17611 28.1807 2.55551 27.9393C2.02397 27.7323 1.91357 27.5044 2.04184 26.8794C2.11575 26.5163 2.24067 26.1654 2.41285 25.8374C2.64405 25.4035 2.9351 25.2176 3.36094 25.2376C3.68256 25.238 3.99796 25.1491 4.27202 24.9807C4.49367 24.8518 4.73472 24.5733 4.73777 24.3484C4.74082 24.1234 4.49853 23.8341 4.2791 23.715C3.95478 23.5575 3.60905 23.4488 3.25302 23.392C2.7057 23.2802 2.34248 23.1663 2.22404 22.9448C2.12014 22.7509 2.17292 22.454 2.41867 21.8504C2.78729 20.9462 3.28444 20.3794 3.98401 20.0665C4.19993 19.9889 4.38249 19.8391 4.50089 19.6426C4.61929 19.446 4.66632 19.2146 4.63401 18.9875C4.60049 18.4791 4.2212 18.281 3.85465 18.1549C3.66792 18.0905 3.47453 18.0394 3.28752 17.9901C3.09205 17.9384 2.88979 17.885 2.69807 17.8169C2.11195 17.6091 1.96485 17.3717 2.04229 16.7602C2.19287 15.5741 2.67145 14.9501 3.59585 14.736ZM23.7949 28.6621C23.0889 28.6339 22.3854 28.5584 21.6893 28.436C21.0162 28.3252 21.0199 28.2837 21.0831 27.5761C21.2004 26.2627 21.2963 24.8948 21.3765 23.3946L21.4143 22.6906C21.5087 20.9451 21.6063 19.1387 21.6426 17.361C21.6778 15.6414 21.6622 13.8924 21.6471 12.2011C21.6433 11.7894 21.6399 11.3777 21.6367 10.9661C21.6289 10.6542 21.6056 10.3429 21.5667 10.0333C21.5529 9.90153 21.5379 9.76633 21.5251 9.62586C22.0885 9.60965 22.6521 9.58264 23.1979 9.5566C24.8906 9.47528 26.4893 9.39854 28.1156 9.61755C28.1623 9.62392 28.209 9.62849 28.2558 9.63293C28.3283 9.63999 28.3966 9.64678 28.4643 9.65952C29.9643 9.94434 30.1862 10.2136 30.1604 11.7124L30.1489 12.3773C30.0874 15.9545 30.0243 19.6535 29.9085 23.2897C29.8677 24.5746 29.7109 25.8791 29.5592 27.1408L29.5132 27.5243C29.4007 28.4662 29.2135 28.6506 28.3345 28.6821C26.8193 28.7358 25.3222 28.7034 23.7949 28.6621Z" fill="#E1823A"/>
<path d="M26.5779 10.9137C25.7328 10.5132 24.5868 10.7101 23.8526 11.3818C23.2619 11.9221 23.084 12.5977 23.3241 13.3892C23.6584 14.4916 24.617 15.1462 25.9542 15.1851C25.9858 15.1861 26.017 15.1865 26.0479 15.1865C26.6107 15.1865 27.0551 15.0341 27.3698 14.7324C27.7324 14.3851 27.9213 13.8412 27.9311 13.1163V13.1109C27.8662 12.0481 27.4104 11.3081 26.5779 10.9137ZM26.6056 13.1968C26.6043 13.2938 26.5831 13.3896 26.5432 13.478C26.5035 13.5665 26.4457 13.6458 26.374 13.711C26.258 13.814 26.1229 13.8928 25.9762 13.943C25.8295 13.9932 25.6744 14.0137 25.5198 14.0033C25.1077 13.987 24.6037 13.3632 24.59 12.8526C24.59 12.7654 24.6073 12.6791 24.641 12.5986C24.6746 12.5182 24.7238 12.4452 24.7859 12.3839C24.9885 12.1839 25.2612 12.0708 25.546 12.0684H25.5656C25.827 12.0708 26.0769 12.1766 26.2606 12.3626C26.3705 12.4719 26.4576 12.6019 26.5169 12.7451C26.5761 12.8883 26.6063 13.0418 26.6056 13.1968Z" fill="#E1823A"/>
</svg>
