<svg width="335" height="261" viewBox="0 0 335 261" fill="none" xmlns="http://www.w3.org/2000/svg">
<path d="M62.876 97.1299L64.391 258.69H68.372L66.6329 139.221L65.6274 97.1299C65.6274 97.1299 67.4345 97.2317 67.5636 92.8319C67.6995 88.432 70.0976 70.7035 70.0976 70.7035L68.3652 70.1671C68.3652 70.1671 65.6954 92.1597 65.1655 92.8251C64.6288 93.4905 63.1681 91.4942 62.8964 89.3622C62.6314 87.2302 62.8964 65.6382 62.8964 65.6382L60.2265 65.774C60.2265 65.774 60.2265 90.6998 60.7632 93.3683C61.2999 96.0367 62.8692 97.1299 62.8692 97.1299H62.876Z" fill="#A6A6A6" stroke="#4F3B31" stroke-linecap="round" stroke-linejoin="round"/>
<path d="M65.6342 97.1299C65.8244 97.0552 66.0418 96.9737 66.266 96.8854C66.8027 96.4984 67.4889 95.4867 67.5704 92.8319C67.7063 88.432 70.1044 70.7035 70.1044 70.7035L68.372 70.1671C68.372 70.1671 65.7021 92.1597 65.1722 92.8251C64.6356 93.4905 63.1749 91.4942 62.9032 89.3622C62.6382 87.2302 62.9032 65.6382 62.9032 65.6382L60.2333 65.774C60.2333 65.774 60.2333 90.6998 60.77 93.3683C61.3067 96.0367 62.876 97.1299 62.876 97.1299C62.876 97.1299 63.5282 97.9379 65.6342 97.1299Z" fill="#4F3B31" stroke="#4F3B31" stroke-linecap="round" stroke-linejoin="round"/>
<path d="M64.785 65.3532C64.785 65.3532 69.853 58.2917 77.9917 54.9578C86.1305 51.624 100.798 49.4919 101.335 49.4919C101.871 49.4919 87.5979 54.0208 83.1956 56.0239C78.7934 58.0201 73.0596 61.0891 71.3272 62.9564C69.5949 64.8236 61.4561 77.8874 61.4561 77.8874C61.4561 77.8874 61.7211 72.5573 64.7918 65.36L64.785 65.3532Z" fill="#4F3B31" stroke="#4F3B31" stroke-linecap="round" stroke-linejoin="round"/>
<path d="M50.8785 42.3488C50.8785 42.3488 45.8105 35.2873 37.6718 31.9534C29.5331 28.6196 14.8657 26.4875 14.329 26.4875C13.7923 26.4875 28.0657 31.0164 32.4679 33.0195C36.8702 35.0157 42.6039 38.0847 44.3363 39.952C46.0687 41.8192 54.2074 54.883 54.2074 54.883C54.2074 54.883 53.9424 49.5529 50.8717 42.3556L50.8785 42.3488Z" fill="#F7D5BA" stroke="#4F3B31" stroke-linecap="round" stroke-linejoin="round"/>
<path d="M62.0812 62.2094C62.0812 62.2094 48.2087 41.6834 44.3431 39.952C40.4775 38.2205 37.4068 36.6181 32.2097 37.9557C27.0059 39.2866 16.2041 45.1531 14.2067 46.2191C12.2094 47.2851 9.53954 49.1523 8.47295 49.6819C7.40636 50.2183 22.2096 41.4186 30.4774 40.3526C38.7452 39.2866 40.2126 43.2858 49.1462 50.2184C58.0797 57.1509 62.0812 62.2162 62.0812 62.2162V62.2094Z" fill="#F7D5BA" stroke="#4F3B31" stroke-linecap="round" stroke-linejoin="round"/>
<path d="M62.0812 62.2094C62.0812 62.2094 52.8759 47.5499 46.6122 45.9475C40.3417 44.3451 32.8755 47.8147 30.3415 49.2814C27.8075 50.748 24.071 59.0113 23.2762 62.2094C22.4745 65.4075 21.9446 67.8111 21.9446 67.8111C21.9446 67.8111 29.9475 54.7473 33.1473 52.751C36.3471 50.7548 41.286 47.6857 42.7466 47.4209C44.214 47.1561 58.8814 56.0849 62.088 62.2162L62.0812 62.2094Z" fill="#F7D5BA" stroke="#4F3B31" stroke-linecap="round" stroke-linejoin="round"/>
<path d="M58.3515 54.6114C58.3515 54.6114 40.4775 42.6136 31.1432 42.7494C21.8088 42.8852 10.2053 46.3481 7.13461 46.8845C4.06391 47.4209 1 81.2076 1 81.2076C1 81.2076 14.2067 50.6122 18.6022 50.748C23.0044 50.8838 37.4068 46.7487 42.2099 48.3511C47.013 49.9536 58.3447 54.6182 58.3447 54.6182L58.3515 54.6114Z" fill="#F7D5BA" stroke="#4F3B31" stroke-linecap="round" stroke-linejoin="round"/>
<path d="M61.8162 66.8742C61.8162 66.8742 56.0824 56.0782 51.2794 53.6745C46.4763 51.2709 41.68 55.5418 34.078 58.475C26.476 61.4083 20.7422 63.4045 20.7422 63.4045C20.7422 63.4045 33.2763 64.0699 38.0794 62.3385C42.8825 60.607 50.4845 57.2732 52.2169 57.538C53.9492 57.8028 61.8162 66.8674 61.8162 66.8674V66.8742Z" fill="#F7D5BA" stroke="#4F3B31" stroke-linecap="round" stroke-linejoin="round"/>
<path d="M65.9739 70.4387C65.9739 70.4387 60.9059 43.116 60.9059 33.1144C60.9059 23.1129 61.0417 18.8488 61.0417 18.8488C61.0417 18.8488 64.3774 31.9126 64.7782 33.5082C65.179 35.1107 65.179 37.7723 65.179 37.7723C65.179 37.7723 67.5772 23.6425 70.6479 20.1796C73.7186 16.7167 77.5841 14.9785 77.5841 14.9785C77.5841 14.9785 74.1194 21.5104 73.4468 23.3777C72.7811 25.2449 76.2458 20.845 79.9823 19.779C83.7187 18.713 92.9173 16.71 92.9173 16.71C92.9173 16.71 80.648 21.6394 79.1806 23.2419C77.7132 24.8443 74.1126 30.704 73.8477 31.3762C73.5827 32.0416 69.1805 39.6395 67.978 44.0394C66.7755 48.4393 65.9807 70.4319 65.9807 70.4319L65.9739 70.4387Z" fill="#4F3B31" stroke="#4F3B31" stroke-linecap="round" stroke-linejoin="round"/>
<path d="M69.0378 37.2495L79.4388 30.317C79.4388 30.317 92.2447 28.3207 94.3779 28.9861C96.5111 29.6516 99.4459 31.6546 99.4459 31.6546C99.4459 31.6546 91.1781 30.8534 87.5775 32.5848C83.9769 34.3162 76.1099 37.3853 71.4427 43.6456C66.7755 49.9127 65.0432 56.8452 64.5065 59.1063C63.9698 61.3741 62.9032 65.6382 62.9032 65.6382C62.9032 65.6382 60.505 54.041 61.4358 49.3763C62.3665 44.7116 69.0378 37.2495 69.0378 37.2495Z" fill="#F7D5BA" stroke="#4F3B31" stroke-linecap="round" stroke-linejoin="round"/>
<path d="M55.9669 29.7876C55.9669 29.7876 62.1015 38.0509 63.0323 40.7194C63.963 43.3878 65.4304 34.0517 71.9658 28.321C78.5013 22.5903 99.575 19.1206 99.575 19.1206C99.575 19.1206 73.9699 31.519 70.0976 36.4485C66.232 41.378 62.4956 49.7771 62.4956 50.1777V55.1072L55.9601 29.7808L55.9669 29.7876Z" fill="#F7D5BA" stroke="#4F3B31" stroke-linecap="round" stroke-linejoin="round"/>
<path d="M60.3828 47.129C60.3828 47.129 51.85 32.4696 47.4478 27.4043C43.0455 22.339 28.5072 11.0066 28.5072 11.0066C28.5072 11.0066 34.506 18.4687 42.2439 28.9999C49.9818 39.5311 62.251 54.9918 62.251 54.9918L60.3828 47.129Z" fill="#4F3B31" stroke="#4F3B31" stroke-linecap="round" stroke-linejoin="round"/>
<path d="M59.1667 75.7756C59.1667 75.7756 45.2942 64.4432 37.9639 67.2474C30.6268 70.0449 22.2232 78.9804 22.2232 78.9804L20.3549 89.111C20.3549 89.111 30.226 74.8453 34.4924 72.8491C38.7588 70.8529 44.7643 70.0517 47.6991 70.7171C50.634 71.3825 59.3026 78.7156 59.7034 79.6458C60.1042 80.576 59.1667 75.7824 59.1667 75.7824V75.7756Z" fill="#F7D5BA" stroke="#4F3B31" stroke-linecap="round" stroke-linejoin="round"/>
<path d="M55.5661 42.179C55.5661 42.179 52.8962 39.7821 51.1639 30.1812C49.4315 20.587 51.4288 11.9163 51.4288 11.9163C51.4288 11.9163 52.3595 17.647 54.4995 24.3147C56.6327 30.9824 56.6327 33.3792 59.8325 43.245C63.0323 53.1108 63.4331 70.8393 63.2972 71.2399C63.1613 71.6405 55.5593 42.179 55.5593 42.179H55.5661Z" fill="#F7D5BA" stroke="#4F3B31" stroke-linecap="round" stroke-linejoin="round"/>
<path d="M77.4415 44.9834C77.4415 44.9834 81.5788 39.6533 86.9117 38.0509C92.2447 36.4484 97.7135 36.5842 97.7135 36.5842C97.7135 36.5842 89.7107 34.3164 84.3777 35.3824C79.0448 36.4484 74.9075 42.7155 73.0392 48.582C71.171 54.4485 71.171 68.1778 71.171 68.1778C71.171 68.1778 74.1058 50.1845 77.4415 44.9834Z" fill="#4F3B31" stroke="#4F3B31" stroke-linecap="round" stroke-linejoin="round"/>
<path d="M57.38 50.1505C57.38 50.1505 57.6653 44.5352 53.2019 38.0644C48.7386 31.5868 39.6691 27.9881 33.3307 25.2586C26.9923 22.529 23.249 21.3748 23.249 21.3748C23.249 21.3748 37.502 32.5985 41.2452 34.1806C44.9885 35.7626 47.7263 37.9218 50.3147 40.9433C52.9098 43.9649 57.5159 55.046 57.5159 55.7658C57.5159 56.4855 57.3732 50.1505 57.3732 50.1505H57.38Z" fill="#F7D5BA" stroke="#4F3B31" stroke-linecap="round" stroke-linejoin="round"/>
<path d="M73.44 58.1762C73.44 58.1762 78.5081 51.1147 86.6468 47.7808C94.7855 44.447 109.453 42.3149 109.99 42.3149C110.526 42.3149 96.2529 46.8438 91.8507 48.8469C87.4484 50.8431 81.7146 53.9121 79.9823 55.7794C78.2499 57.6466 70.1112 70.7104 70.1112 70.7104C70.1112 70.7104 70.3761 65.3803 73.4468 58.183L73.44 58.1762Z" fill="#F7D5BA" stroke="#4F3B31" stroke-linecap="round" stroke-linejoin="round"/>
<path d="M62.2374 78.0368C62.2374 78.0368 76.1099 57.5108 79.9755 55.7794C83.841 54.0479 86.9117 52.4455 92.1088 53.7831C97.3127 55.114 108.115 60.9805 110.112 62.0465C112.109 63.1125 114.779 64.9797 115.846 65.5093C116.912 66.0457 102.109 57.246 93.8412 56.18C85.5734 55.114 84.106 59.1132 75.1724 66.0457C66.2388 72.9783 62.2374 78.0435 62.2374 78.0435V78.0368Z" fill="#F7D5BA" stroke="#4F3B31" stroke-linecap="round" stroke-linejoin="round"/>
<path d="M62.2374 78.0368C62.2374 78.0368 71.4427 63.3773 77.7064 61.7749C83.9769 60.1725 91.4431 63.6421 93.9771 65.1088C96.5111 66.5754 100.248 74.8387 101.042 78.0368C101.844 81.2348 102.374 83.6385 102.374 83.6385C102.374 83.6385 94.3711 70.5747 91.1713 68.5784C87.9715 66.5822 83.0326 63.5131 81.572 63.2483C80.1046 62.9835 65.4372 71.9123 62.2306 78.0436L62.2374 78.0368Z" fill="#4F3B31" stroke="#4F3B31" stroke-linecap="round" stroke-linejoin="round"/>
<path d="M65.9739 70.4388C65.9739 70.4388 83.8478 58.441 93.1822 58.5768C102.517 58.7126 114.12 62.1755 117.191 62.7119C120.261 63.2483 123.325 62.4471 123.325 62.4471C123.325 62.4471 110.119 66.4464 105.723 66.5822C101.321 66.7179 86.9185 62.5829 82.1155 64.1853C77.3124 65.7877 65.9807 70.4524 65.9807 70.4524L65.9739 70.4388Z" fill="#F7D5BA" stroke="#4F3B31" stroke-linecap="round" stroke-linejoin="round"/>
<path d="M70.7702 65.1086C70.7702 65.1086 67.6995 55.7793 70.906 48.9825C74.1058 42.1858 78.2431 32.8564 78.2431 32.8564C78.2431 32.8564 79.7105 44.7185 77.1765 52.717C74.6425 60.7155 70.7769 65.1154 70.7769 65.1154L70.7702 65.1086Z" fill="#F7D5BA" stroke="#4F3B31" stroke-linecap="round" stroke-linejoin="round"/>
<path d="M63.0391 71.9053C63.0391 71.9053 63.0391 60.3081 55.0362 54.8422C47.0334 49.3763 38.0998 47.6449 34.9 49.3763C31.7002 51.1077 22.0941 56.4378 19.2951 60.0433C16.4962 63.6419 14.2271 66.4394 14.2271 66.4394C14.2271 66.4394 28.3646 57.11 32.7668 53.912C37.1691 50.7139 39.3023 49.9127 40.9055 50.3133C42.5088 50.7139 51.7073 54.978 55.3079 57.7754C58.9086 60.5729 63.0458 71.9053 63.0458 71.9053H63.0391Z" fill="#F7D5BA" stroke="#4F3B31" stroke-linecap="round" stroke-linejoin="round"/>
<path d="M63.304 73.7727C63.1681 73.3721 63.569 70.3099 58.1001 69.9093C52.6313 69.5087 48.5008 71.9055 47.5633 73.9085C46.6257 75.9116 47.5633 81.2417 47.6991 81.7713C47.835 82.3077 48.5008 74.7097 54.9003 73.2431C61.2999 71.7765 63.304 73.7795 63.304 73.7795V73.7727Z" fill="#4F3B31" stroke="#4F3B31" stroke-linecap="round" stroke-linejoin="round"/>
<path d="M61.1708 78.7021C61.1708 78.7021 59.4385 74.9676 55.9669 70.9684C52.5022 66.9691 45.0292 63.2346 41.4286 65.5025C37.828 67.7703 33.6907 77.2355 32.3592 79.8971C31.0277 82.5656 27.957 90.6931 27.692 91.0937C27.4271 91.4943 35.559 83.8964 39.0305 79.3607C42.4952 74.8318 44.9002 68.5647 46.8975 68.0283C48.8948 67.4919 53.0321 71.4912 53.0321 71.4912L62.9032 85.7568L61.1708 78.6953V78.7021Z" fill="#F7D5BA" stroke="#4F3B31" stroke-linecap="round" stroke-linejoin="round"/>
<path d="M61.7007 68.9721C61.7007 68.9721 59.9684 60.9736 53.9628 58.8416C47.9641 56.7095 40.7561 55.9083 37.9571 57.5107C35.1582 59.1132 22.8889 70.4388 22.8889 70.4388L21.2857 74.5738C21.2857 74.5738 39.2887 61.3742 43.426 60.0434C46.1842 59.1562 49.0284 59.5998 51.9587 61.3742C56.361 64.0426 61.6939 68.9721 61.6939 68.9721H61.7007Z" fill="#F7D5BA" stroke="#4F3B31" stroke-linecap="round" stroke-linejoin="round"/>
<path d="M60.6341 68.9723C60.6341 68.9723 43.161 58.4411 39.4313 57.1103C35.6949 55.7794 27.298 59.1065 24.893 62.1756C22.4949 65.2446 14.0912 81.9003 13.6904 83.1021C13.2896 84.3039 19.2951 70.1741 28.3578 66.039C37.4272 61.904 43.2969 62.7052 48.6298 63.2416C53.9628 63.778 60.6341 72.7067 60.6341 72.7067V68.9723Z" fill="#F7D5BA" stroke="#4F3B31" stroke-linecap="round" stroke-linejoin="round"/>
<path d="M62.5024 82.7013C62.5024 82.7013 68.2362 71.9054 73.0392 69.5017C77.8423 67.1049 82.6386 71.3689 90.2406 74.3022C97.8426 77.2354 103.576 79.2317 103.576 79.2317C103.576 79.2317 91.0422 79.8971 86.2392 78.1657C81.4361 76.4342 73.8341 73.1004 72.1017 73.3652C70.3693 73.63 62.5024 82.6946 62.5024 82.6946V82.7013Z" fill="#F7D5BA" stroke="#4F3B31" stroke-linecap="round" stroke-linejoin="round"/>
<path d="M63.0391 71.9054C63.0391 71.9054 65.9739 63.5063 67.7063 52.5745C69.4386 41.6427 66.5038 22.0469 63.7048 16.1872C60.9059 10.3207 52.6381 0.726562 52.6381 0.726562C52.6381 0.726562 67.3054 13.5256 70.512 25.5166C73.7118 37.5144 74.2485 43.9105 72.9101 50.4424C71.5718 56.9743 63.0391 71.9054 63.0391 71.9054Z" fill="#F7D5BA" stroke="#4F3B31" stroke-linecap="round" stroke-linejoin="round"/>
<path d="M59.5404 55.0392C59.5404 55.0392 58.2428 50.1437 56.8025 49.1388C55.3623 48.1338 52.4818 49.2813 52.4818 49.2813C52.4818 49.2813 57.5227 53.7423 57.5227 55.7589C57.5227 57.7755 62.645 69.9024 62.645 69.9024L59.5404 55.0392Z" fill="#F7D5BA" stroke="#4F3B31" stroke-linecap="round" stroke-linejoin="round"/>
<path d="M56.8025 49.1387C56.8025 49.1387 54.6422 50.6461 52.9574 52.1738C51.2726 53.7015 43.2425 61.639 42.7602 62.121C42.2779 62.6031 46.9315 52.0108 47.9777 50.0078C49.0239 48.0048 50.865 46.5585 51.4288 46.64C51.9927 46.7215 56.952 47.869 56.8025 49.1387Z" fill="#F7D5BA" stroke="#4F3B31" stroke-linecap="round" stroke-linejoin="round"/>
<path d="M82.5299 131.046L81.6467 167.929L80.6344 258.683H83.9022L84.9416 131.039C84.9416 131.039 86.3207 130.081 86.7894 127.739C87.2582 125.403 87.2582 103.56 87.2582 103.56L84.9212 103.445C84.9212 103.445 85.1522 122.368 84.9212 124.235C84.6902 126.103 83.3994 127.854 82.9375 127.27C82.4755 126.687 80.1317 107.41 80.1317 107.41L78.61 107.878C78.61 107.878 80.716 123.414 80.8315 127.27C80.947 131.127 82.5299 131.032 82.5299 131.032V131.046Z" fill="#A6A6A6" stroke="#4F3B31" stroke-linecap="round" stroke-linejoin="round"/>
<path d="M82.5299 131.046C82.3668 130.985 82.1766 130.91 81.9728 130.835C81.504 130.496 80.8994 129.613 80.8315 127.284C80.716 123.427 78.61 107.892 78.61 107.892L80.1317 107.424C80.1317 107.424 82.4687 126.693 82.9375 127.284C83.4062 127.875 84.6902 126.116 84.9212 124.249C85.1522 122.382 84.9212 103.458 84.9212 103.458L87.2582 103.574C87.2582 103.574 87.2582 125.417 86.7894 127.753C86.3207 130.088 84.9416 131.053 84.9416 131.053C84.9416 131.053 84.3709 131.765 82.5231 131.053L82.5299 131.046Z" fill="#4F3B31" stroke="#4F3B31" stroke-linecap="round" stroke-linejoin="round"/>
<path d="M83.2704 103.2C83.2704 103.2 78.8273 97.0078 71.7009 94.0882C64.5744 91.1685 51.7141 89.3013 51.2454 89.3013C50.7766 89.3013 63.2836 93.2734 67.1424 95.0252C71.0011 96.777 76.0216 99.4658 77.5434 101.102C79.0651 102.739 86.1916 114.186 86.1916 114.186C86.1916 114.186 85.9606 109.515 83.2704 103.207V103.2Z" fill="#4F3B31" stroke="#4F3B31" stroke-linecap="round" stroke-linejoin="round"/>
<path d="M95.4581 83.0408C95.4581 83.0408 99.9011 76.8484 107.028 73.9287C114.154 71.0091 127.014 69.1418 127.483 69.1418C127.952 69.1418 115.445 73.114 111.586 74.8658C107.727 76.6176 102.707 79.3064 101.185 80.9427C99.6633 82.5791 92.5368 94.0269 92.5368 94.0269C92.5368 94.0269 92.7678 89.3555 95.4581 83.0476V83.0408Z" fill="#F7D5BA" stroke="#4F3B31" stroke-linecap="round" stroke-linejoin="round"/>
<path d="M85.6413 100.443C85.6413 100.443 97.7951 82.4569 101.185 80.9359C104.575 79.415 107.265 78.0163 111.817 79.1841C116.376 80.352 125.839 85.492 127.592 86.429C129.344 87.366 131.681 88.9956 132.619 89.4641C133.556 89.9326 120.581 82.2192 113.339 81.289C106.09 80.352 104.806 83.8556 96.9798 89.9326C89.1536 96.0096 85.6413 100.443 85.6413 100.443Z" fill="#F7D5BA" stroke="#4F3B31" stroke-linecap="round" stroke-linejoin="round"/>
<path d="M85.6413 100.444C85.6413 100.444 93.7053 87.597 99.2013 86.1915C104.697 84.7927 111.24 87.8279 113.461 89.1111C115.683 90.3944 118.957 97.6393 119.657 100.444C120.357 103.248 120.825 105.353 120.825 105.353C120.825 105.353 113.814 93.9048 111.009 92.153C108.203 90.4012 103.882 87.7124 102.591 87.4816C101.307 87.2507 88.4471 95.0727 85.6481 100.45L85.6413 100.444Z" fill="#F7D5BA" stroke="#4F3B31" stroke-linecap="round" stroke-linejoin="round"/>
<path d="M88.909 93.7894C88.909 93.7894 104.568 83.2786 112.748 83.394C120.927 83.5094 131.097 86.5445 133.787 87.013C136.478 87.4815 139.161 86.7822 139.161 86.7822C139.161 86.7822 127.592 90.2858 123.733 90.4012C119.874 90.5166 107.252 86.8976 103.047 88.2963C98.8413 89.6951 88.9023 93.7894 88.9023 93.7894H88.909Z" fill="#F7D5BA" stroke="#4F3B31" stroke-linecap="round" stroke-linejoin="round"/>
<path d="M85.8723 104.538C85.8723 104.538 90.8996 95.0795 95.1048 92.9746C99.31 90.8697 103.522 94.611 110.18 97.1776C116.844 99.7442 121.865 101.503 121.865 101.503C121.865 101.503 110.88 102.087 106.674 100.566C102.469 99.0448 95.8045 96.1252 94.2828 96.3628C92.761 96.5937 85.8655 104.538 85.8655 104.538H85.8723Z" fill="#F7D5BA" stroke="#4F3B31" stroke-linecap="round" stroke-linejoin="round"/>
<path d="M82.2309 107.661C82.2309 107.661 86.674 83.7131 86.674 74.9541C86.674 66.1951 86.5585 62.4538 86.5585 62.4538C86.5585 62.4538 83.6372 73.9017 83.284 75.3004C82.9307 76.6991 82.9307 79.0416 82.9307 79.0416C82.9307 79.0416 80.8247 66.6568 78.1412 63.6217C75.4509 60.5866 72.0609 59.0657 72.0609 59.0657C72.0609 59.0657 75.0977 64.7896 75.6819 66.426C76.2662 68.0623 73.2294 64.2056 69.9549 63.2754C66.6804 62.3384 58.6164 60.5866 58.6164 60.5866C58.6164 60.5866 69.3707 64.905 70.6547 66.3105C71.9387 67.7093 75.0977 72.8492 75.3287 73.4332C75.5596 74.0171 79.4184 80.678 80.4714 84.5279C81.5244 88.3846 82.2242 107.654 82.2242 107.654L82.2309 107.661Z" fill="#4F3B31" stroke="#4F3B31" stroke-linecap="round" stroke-linejoin="round"/>
<path d="M79.5407 78.573L70.4237 72.496C70.4237 72.496 59.2075 70.7442 57.3324 71.3282C55.4642 71.9121 52.8894 73.6639 52.8894 73.6639C52.8894 73.6639 60.1382 72.9645 63.2904 74.4787C66.4426 75.9996 73.3381 78.6816 77.4347 84.1747C81.5244 89.6678 83.0462 95.7379 83.5149 97.7274C83.9837 99.7101 84.9144 103.451 84.9144 103.451C84.9144 103.451 87.0204 93.2868 86.1984 89.1992C85.3832 85.1117 79.5339 78.573 79.5339 78.573H79.5407Z" fill="#F7D5BA" stroke="#4F3B31" stroke-linecap="round" stroke-linejoin="round"/>
<path d="M90.9947 72.0343C90.9947 72.0343 85.6209 79.2792 84.7989 81.6149C83.9837 83.9507 82.6929 75.7756 76.9659 70.7511C71.2389 65.7265 52.7739 62.6914 52.7739 62.6914C52.7739 62.6914 75.2132 73.5553 78.6032 77.8737C81.9932 82.1921 85.2677 89.5524 85.2677 89.9055V94.2306L90.9947 72.0343Z" fill="#F7D5BA" stroke="#4F3B31" stroke-linecap="round" stroke-linejoin="round"/>
<path d="M87.1291 87.2303C87.1291 87.2303 94.6089 74.3838 98.4676 69.9432C102.326 65.5026 115.064 55.5757 115.064 55.5757C115.064 55.5757 109.806 62.1144 103.026 71.3419C96.2461 80.5694 85.4987 94.1221 85.4987 94.1221L87.1359 87.2303H87.1291Z" fill="#4F3B31" stroke="#4F3B31" stroke-linecap="round" stroke-linejoin="round"/>
<path d="M88.1889 112.333C88.1889 112.333 100.343 102.406 106.769 104.857C113.196 107.308 120.56 115.137 120.56 115.137L122.198 124.011C122.198 124.011 113.549 111.511 109.806 109.759C106.07 108.008 100.805 107.308 98.2366 107.892C95.6687 108.476 88.0666 114.899 87.7202 115.721C87.3669 116.536 88.1889 112.333 88.1889 112.333Z" fill="#F7D5BA" stroke="#4F3B31" stroke-linecap="round" stroke-linejoin="round"/>
<path d="M91.3479 82.8982C91.3479 82.8982 93.6849 80.7933 95.2067 72.3874C96.7285 63.9747 94.9757 56.3835 94.9757 56.3835C94.9757 56.3835 94.1605 61.4081 92.2855 67.2474C90.4172 73.0868 90.4172 75.1917 87.6115 83.8352C84.8057 92.4788 84.4592 108.014 84.5747 108.367C84.6902 108.72 91.3547 82.905 91.3547 82.905L91.3479 82.8982Z" fill="#F7D5BA" stroke="#4F3B31" stroke-linecap="round" stroke-linejoin="round"/>
<path d="M72.1832 85.3495C72.1832 85.3495 68.5622 80.6781 63.8883 79.2726C59.2143 77.8738 54.4248 77.9893 54.4248 77.9893C54.4248 77.9893 61.4358 76.0066 66.1098 76.9368C70.7837 77.8738 74.4047 83.3601 76.042 88.5001C77.6792 93.64 77.6792 105.672 77.6792 105.672C77.6792 105.672 75.1113 89.9056 72.1832 85.3495Z" fill="#4F3B31" stroke="#4F3B31" stroke-linecap="round" stroke-linejoin="round"/>
<path d="M89.7582 89.8784C89.7582 89.8784 89.5069 84.9625 93.42 79.2862C97.3331 73.6098 105.282 70.4593 110.832 68.0624C116.382 65.6656 119.664 64.6606 119.664 64.6606C119.664 64.6606 107.17 74.4993 103.889 75.8844C100.608 77.2695 98.2095 79.1639 95.9404 81.812C93.6714 84.4601 89.6292 94.1697 89.6292 94.8011C89.6292 95.4326 89.7582 89.8852 89.7582 89.8852V89.8784Z" fill="#F7D5BA" stroke="#4F3B31" stroke-linecap="round" stroke-linejoin="round"/>
<path d="M75.6887 96.9127C75.6887 96.9127 71.2457 90.7202 64.1192 87.8006C56.9928 84.8809 44.1325 83.0137 43.6637 83.0137C43.195 83.0137 55.702 86.9858 59.5607 88.7376C63.4195 90.4894 68.44 93.1782 69.9617 94.8146C71.4835 96.4509 78.61 107.899 78.61 107.899C78.61 107.899 78.379 103.227 75.6887 96.9195V96.9127Z" fill="#F7D5BA" stroke="#4F3B31" stroke-linecap="round" stroke-linejoin="round"/>
<path d="M85.5055 114.315C85.5055 114.315 73.3517 96.3287 69.9617 94.8078C66.5717 93.2868 63.8815 91.8881 59.3298 93.056C54.7713 94.2238 45.3078 99.3638 43.555 100.301C41.8023 101.238 39.4653 102.867 38.5278 103.336C37.5903 103.804 50.566 96.091 57.808 95.1608C65.0568 94.2238 66.3407 97.7274 74.167 103.804C82 109.881 85.5055 114.315 85.5055 114.315Z" fill="#F7D5BA" stroke="#4F3B31" stroke-linecap="round" stroke-linejoin="round"/>
<path d="M85.5055 114.315C85.5055 114.315 77.4415 101.469 71.9455 100.063C66.4494 98.6646 59.9072 101.7 57.6857 102.983C55.4642 104.266 52.1897 111.511 51.49 114.315C50.7902 117.12 50.3215 119.224 50.3215 119.224C50.3215 119.224 57.3324 107.777 60.1382 106.025C62.9439 104.273 67.2647 101.584 68.5555 101.353C69.8394 101.123 82.6997 108.945 85.4987 114.322L85.5055 114.315Z" fill="#4F3B31" stroke="#4F3B31" stroke-linecap="round" stroke-linejoin="round"/>
<path d="M82.2309 107.661C82.2309 107.661 66.5717 97.1504 58.3922 97.2658C50.2128 97.3813 40.0428 100.416 37.3525 100.885C34.6622 101.353 31.9788 100.654 31.9788 100.654C31.9788 100.654 43.5482 104.158 47.407 104.273C51.2658 104.388 63.8882 100.769 68.0935 102.168C72.2987 103.567 82.2377 107.661 82.2377 107.661H82.2309Z" fill="#F7D5BA" stroke="#4F3B31" stroke-linecap="round" stroke-linejoin="round"/>
<path d="M78.0257 102.99C78.0257 102.99 80.716 94.8145 77.9102 88.8529C75.1045 82.8982 71.4835 74.7163 71.4835 74.7163C71.4835 74.7163 70.1995 85.1117 72.421 92.1189C74.6425 99.1261 78.0325 102.983 78.0325 102.983L78.0257 102.99Z" fill="#F7D5BA" stroke="#4F3B31" stroke-linecap="round" stroke-linejoin="round"/>
<path d="M84.8057 108.944C84.8057 108.944 84.8057 98.7799 91.8167 93.993C98.8277 89.2061 106.661 87.6851 109.466 89.2061C112.272 90.727 120.683 95.3985 123.142 98.549C125.594 101.7 127.585 104.157 127.585 104.157C127.585 104.157 115.193 95.9824 111.341 93.1782C107.483 90.3739 105.614 89.6746 104.215 90.0276C102.816 90.3807 94.7515 94.1152 91.5925 96.5663C88.4403 99.0175 84.8125 108.951 84.8125 108.951L84.8057 108.944Z" fill="#F7D5BA" stroke="#4F3B31" stroke-linecap="round" stroke-linejoin="round"/>
<path d="M84.5679 110.581C84.6834 110.228 84.337 107.546 89.1264 107.193C93.9159 106.84 97.5437 108.945 98.3589 110.696C99.1742 112.448 98.3589 117.12 98.2434 117.588C98.1279 118.057 97.5437 111.396 91.9322 110.112C86.3207 108.829 84.5679 110.581 84.5679 110.581Z" fill="#4F3B31" stroke="#4F3B31" stroke-linecap="round" stroke-linejoin="round"/>
<path d="M86.4362 114.899C86.4362 114.899 87.958 111.626 90.9947 108.123C94.0314 104.619 100.58 101.346 103.733 103.336C106.885 105.319 110.513 113.616 111.681 115.952C112.85 118.287 115.54 125.41 115.771 125.763C116.002 126.116 108.875 119.455 105.839 115.483C102.802 111.511 100.696 106.025 98.9432 105.556C97.1904 105.088 93.5695 108.591 93.5695 108.591L84.9212 121.092L86.443 114.899H86.4362Z" fill="#F7D5BA" stroke="#4F3B31" stroke-linecap="round" stroke-linejoin="round"/>
<path d="M85.9742 106.371C85.9742 106.371 87.496 99.364 92.7542 97.4968C98.0125 95.6295 104.324 94.9302 106.776 96.3289C109.229 97.7276 119.983 107.661 119.983 107.661L121.382 111.28C121.382 111.28 105.608 99.7171 101.98 98.5492C99.5659 97.7706 97.0727 98.1599 94.5002 99.7171C90.6414 102.053 85.9674 106.378 85.9674 106.378L85.9742 106.371Z" fill="#F7D5BA" stroke="#4F3B31" stroke-linecap="round" stroke-linejoin="round"/>
<path d="M86.9049 106.371C86.9049 106.371 102.218 97.1436 105.485 95.9757C108.76 94.8078 116.117 97.7275 118.223 100.416C120.329 103.105 127.687 117.703 128.04 118.756C128.393 119.808 123.128 107.424 115.187 103.805C107.238 100.185 102.095 100.885 97.4214 101.353C92.7474 101.822 86.9049 109.644 86.9049 109.644V106.371Z" fill="#F7D5BA" stroke="#4F3B31" stroke-linecap="round" stroke-linejoin="round"/>
<path d="M85.2677 118.403C85.2677 118.403 80.2404 108.944 76.0352 106.84C71.83 104.735 67.6179 108.476 60.9602 111.043C54.2957 113.609 49.2753 115.368 49.2753 115.368C49.2753 115.368 60.2605 115.952 64.4657 114.431C68.671 112.91 75.3355 109.99 76.8572 110.228C78.379 110.459 85.2745 118.403 85.2745 118.403H85.2677Z" fill="#F7D5BA" stroke="#4F3B31" stroke-linecap="round" stroke-linejoin="round"/>
<path d="M84.8057 108.945C84.8057 108.945 82.2377 101.584 80.716 92.0105C79.1942 82.4299 81.769 65.265 84.2215 60.125C86.6739 54.985 93.9227 46.5723 93.9227 46.5723C93.9227 46.5723 81.0692 57.7824 78.2635 68.3C75.4577 78.8109 74.989 84.4193 76.1575 90.1433C77.326 95.8672 84.8057 108.951 84.8057 108.951V108.945Z" fill="#F7D5BA" stroke="#4F3B31" stroke-linecap="round" stroke-linejoin="round"/>
<path d="M87.8696 94.1628C87.8696 94.1628 89.0041 89.8784 90.2678 88.9957C91.5314 88.113 94.0518 89.1247 94.0518 89.1247C94.0518 89.1247 89.636 93.0357 89.636 94.8011C89.636 96.5665 85.1522 107.2 85.1522 107.2L87.8696 94.1696V94.1628Z" fill="#F7D5BA" stroke="#4F3B31" stroke-linecap="round" stroke-linejoin="round"/>
<path d="M90.2677 88.9956C90.2677 88.9956 92.1632 90.3196 93.6374 91.6572C95.1116 92.9948 102.15 99.9545 102.571 100.375C102.992 100.796 98.916 91.5146 97.9989 89.756C97.0817 87.9974 95.4648 86.7345 94.9757 86.8024C94.4866 86.8703 90.1387 87.882 90.2677 88.9956Z" fill="#F7D5BA" stroke="#4F3B31" stroke-linecap="round" stroke-linejoin="round"/>
<path d="M86.6875 150.845C86.6875 150.845 97.4486 146.92 103.998 144.741C110.547 142.561 115.492 147.939 115.492 147.939C115.492 147.939 107.347 149.1 104.439 149.249C101.532 149.392 97.1633 149.541 94.5477 150.56C91.9322 151.578 99.7856 151.429 102.401 154.05C105.017 156.664 110.547 163.352 111.423 165.389C112.293 167.426 102.551 155.795 95.7162 154.05C88.8819 152.305 83.4945 155.937 83.4945 155.937L86.6943 150.852L86.6875 150.845Z" fill="#4F3B31" stroke="#4F3B31" stroke-linecap="round" stroke-linejoin="round"/>
<path d="M74.9686 258.69H78.4809C78.8817 241.688 79.2621 179.037 79.2621 177.889C79.2621 175.418 79.4048 166.55 79.4048 166.55L76.0624 166.842C76.0624 166.842 77.0814 171.643 76.0624 185.012C75.6819 190.05 75.2947 247.255 74.9686 258.69Z" fill="#A6A6A6" stroke="#4F3B31" stroke-linecap="round" stroke-linejoin="round"/>
<path d="M78.8342 152.733C78.5624 152.142 74.4727 143.431 72.2851 141.978C70.1044 140.525 64.5744 138.488 62.1015 138.488C59.6287 138.488 53.2291 139.214 53.2291 139.214C53.2291 139.214 64.5744 141.828 67.7742 144.3C70.974 146.771 76.504 152.441 76.6466 153.459C76.7893 154.478 77.9578 156.8 77.9578 156.8C77.9578 156.8 80.4307 156.216 78.8274 152.726L78.8342 152.733Z" fill="#F7D5BA" stroke="#4F3B31" stroke-linecap="round" stroke-linejoin="round"/>
<path d="M75.6344 158.402C75.6344 158.402 66.9046 157.384 63.7048 159.713C60.5051 162.042 54.8324 168.58 54.8324 172.071C54.8324 175.561 55.1245 183.559 55.1245 182.826C55.1245 182.092 56.7278 170.76 60.3624 167.27C63.997 163.78 65.6002 161.743 70.3965 161.166L75.1996 160.582L80.1453 163.196L75.6344 158.396V158.402Z" fill="#4F3B31" stroke="#4F3B31" stroke-linecap="round" stroke-linejoin="round"/>
<path d="M82.3125 156.291C82.3125 156.291 84.0584 154.838 90.3153 153.962C96.5722 153.093 98.3182 152.509 102.245 153.235C106.172 153.962 110.39 155.564 110.39 155.564C110.39 155.564 97.8834 155.272 96.7149 155.272C95.5464 155.272 104.276 160.942 105.879 162.687C107.483 164.432 108.937 168.064 108.937 168.064C108.937 168.064 96.4295 159.047 94.242 158.036C92.0613 157.017 91.1849 156.433 91.1849 156.433C91.1849 156.433 87.693 155.849 86.2392 156.291C84.7853 156.725 83.6236 157.16 83.182 157.309C82.7472 157.452 81.144 157.893 81.144 157.893L82.3057 156.291H82.3125Z" fill="#F7D5BA" stroke="#4F3B31" stroke-linecap="round" stroke-linejoin="round"/>
<path d="M80.4306 151.572C80.4306 151.572 81.1576 143.139 85.2337 139.357C89.3099 135.575 103.271 128.309 103.271 128.309L111.851 124.093C111.851 124.093 109.378 129.62 104.14 131.799C98.9024 133.979 97.1565 132.383 94.6836 134.997C92.2107 137.612 88.284 142.996 87.5571 145.467C86.8302 147.939 82.0271 154.77 81.7418 156.372C81.4497 157.975 80.4306 151.572 80.4306 151.572Z" fill="#F7D5BA" stroke="#4F3B31" stroke-linecap="round" stroke-linejoin="round"/>
<path d="M81.0149 153.894C81.0149 153.894 81.8845 140.81 80.4306 137.462C78.9768 134.122 74.4659 126.415 73.4468 124.67C72.4278 122.925 71.1166 121.472 71.1166 121.472C71.1166 121.472 74.7512 132.96 75.7702 138.915C76.7893 144.877 76.9319 146.764 77.2241 149.236C77.5162 151.707 77.8083 153.887 77.8083 153.887H81.0081L81.0149 153.894Z" fill="#F7D5BA" stroke="#4F3B31" stroke-linecap="round" stroke-linejoin="round"/>
<path d="M79.1195 158.694C79.1195 158.694 81.0081 153.459 83.9226 148.808C86.8302 144.157 91.049 143.139 91.7759 143.139H94.9757C94.9757 143.139 89.3031 145.902 88.5762 148.516C87.8492 151.13 86.246 156.515 85.0843 157.676C83.9225 158.837 81.0081 164.948 80.2812 166.401C79.5543 167.854 77.6657 168.581 77.6657 168.581C77.6657 168.581 75.0501 164.656 79.1195 158.694Z" fill="#F7D5BA" stroke="#4F3B31" stroke-linecap="round" stroke-linejoin="round"/>
<path d="M81.4497 159.129L77.6657 168.581L78.8274 169.599C78.8274 169.599 80.5733 167.562 81.8845 165.674C83.1956 163.787 84.2147 162.334 84.2147 161.458C84.2147 160.582 81.4497 159.129 81.4497 159.129Z" fill="#F7D5BA" stroke="#4F3B31" stroke-linecap="round" stroke-linejoin="round"/>
<path d="M79.9415 167.1C79.9415 167.1 74.4115 155.035 72.6656 152.414C70.9196 149.8 69.031 147.613 65.247 146.602C61.4629 145.583 55.0634 143.695 49.3907 144.714C43.7181 145.732 33.9693 147.043 33.9693 147.043C33.9693 147.043 40.9531 150.241 49.3907 149.657C57.8284 149.073 65.247 149.514 65.247 149.514C65.247 149.514 66.9929 150.241 68.3041 154.458C69.6152 158.674 72.3802 162.456 74.1194 164.052C75.8653 165.654 78.773 169.579 78.773 169.579L79.9347 167.107L79.9415 167.1Z" fill="#F7D5BA" stroke="#4F3B31" stroke-linecap="round" stroke-linejoin="round"/>
<path d="M81.0149 153.894C81.0149 153.894 74.9075 151.422 73.4536 153.602C71.9998 155.781 69.6696 167.121 69.6696 167.121C69.6696 167.121 68.5079 173.082 68.2158 173.666C67.9236 174.25 75.9265 168.139 77.8151 162.911C79.7037 157.676 81.0149 153.894 81.0149 153.894Z" fill="#F7D5BA" stroke="#4F3B31" stroke-linecap="round" stroke-linejoin="round"/>
<path d="M86.8302 157.676C86.8302 157.676 81.4497 157.818 81.4497 159.129C81.4497 160.439 82.1766 162.761 81.8845 165.674C81.5923 168.58 81.3002 171.201 81.3002 171.201C81.3002 171.201 87.1155 168.73 87.4077 165.389C87.6998 162.048 86.8234 157.683 86.8234 157.683L86.8302 157.676Z" fill="#F7D5BA" stroke="#4F3B31" stroke-linecap="round" stroke-linejoin="round"/>
<path d="M89.4253 157.669C89.4253 157.669 94.9553 161.451 96.844 164.941C98.7326 168.431 100.186 175.696 100.186 175.696C100.186 175.696 96.4024 168.424 93.4947 164.5C90.5871 160.575 86.2188 157.377 85.3492 158.396C84.4796 159.414 87.3873 156.793 89.4253 157.669Z" fill="#4F3B31" stroke="#4F3B31" stroke-linecap="round" stroke-linejoin="round"/>
<path d="M135.377 152.115C135.377 152.115 100.655 160.752 99.4187 163.685C98.1823 166.618 97.2583 199.155 95.8725 201.165C94.4866 203.168 89.5476 204.248 89.5476 207.337C89.5476 210.427 93.7121 222.146 93.7121 222.146C93.7121 222.146 111.613 253.454 113.468 253.454C115.322 253.454 118.563 251.601 118.563 251.601V255.301H230.909L231.371 246.047C231.371 246.047 241.554 221.06 242.634 218.9C243.715 216.741 248.497 211.343 246.799 207.181C245.1 203.019 242.172 200.242 241.704 196.541C241.242 192.841 229.978 161.682 227.349 158.911C224.72 156.141 204.509 154.287 197.26 153.357C190.004 152.434 181.519 151.354 181.519 151.354L135.377 152.128V152.115Z" fill="#F7D5BA" stroke="#4F3B31" stroke-miterlimit="10" stroke-linecap="round"/>
<path d="M198.619 203.318C198.619 203.318 184.176 234.653 172.565 250.053C171.077 252.022 169.753 253.76 168.564 255.294H230.895L231.357 246.04C231.357 246.04 231.534 245.612 231.833 244.872L198.612 203.311L198.619 203.318Z" fill="#4F3B31" stroke="#4F3B31" stroke-miterlimit="10" stroke-linecap="round"/>
<path d="M147.483 150.933C147.483 150.933 156.505 177.848 167.409 179.24C178.313 180.632 186.771 157.513 186.954 152.529C187.144 147.545 188.082 144.557 188.082 144.557C188.082 144.557 178.686 155.72 167.973 155.72C157.259 155.72 147.483 150.933 147.483 150.933Z" fill="white" stroke="#4F3B31" stroke-miterlimit="10" stroke-linecap="round"/>
<path d="M151.118 154.423C151.118 154.423 158.523 175.248 167.477 176.327C176.424 177.407 183.374 159.516 183.523 155.659C183.68 151.802 184.447 149.487 184.447 149.487C184.447 149.487 176.73 158.124 167.932 158.124C159.134 158.124 151.111 154.423 151.111 154.423H151.118Z" fill="white" stroke="#4F3B31" stroke-miterlimit="10" stroke-linecap="round"/>
<path d="M151.118 154.423C151.118 154.423 155.445 166.577 161.485 172.797C167.98 166.781 181.057 153.038 181.057 153.038L180.833 152.801C177.756 155.238 173.027 158.124 167.946 158.124C159.148 158.124 151.125 154.423 151.125 154.423H151.118Z" fill="#4F3B31" stroke="#4F3B31" stroke-miterlimit="10" stroke-linecap="round"/>
<path d="M149.263 159.516C149.263 159.516 149.569 178.948 160.371 189.283" stroke="#4F3B31" stroke-miterlimit="10" stroke-linecap="round"/>
<path d="M156.825 172.471C156.825 172.471 163.306 185.121 170.092 186.506" stroke="#4F3B31" stroke-miterlimit="10" stroke-linecap="round"/>
<path d="M175.174 233.567C174.162 234.816 173.129 236.004 172.103 237.097" stroke="#4F3B31" stroke-miterlimit="10" stroke-linecap="round"/>
<path d="M191.852 207.018C191.852 207.018 185.032 220.652 176.92 231.333" stroke="#4F3B31" stroke-miterlimit="10" stroke-linecap="round"/>
<path d="M177.966 222.906C177.966 222.906 163.924 238.795 158.367 242.957" stroke="#4F3B31" stroke-miterlimit="10" stroke-linecap="round"/>
<path d="M184.753 162.911C184.753 162.911 184.447 174.942 181.356 180.028" stroke="#4F3B31" stroke-miterlimit="10" stroke-linecap="round"/>
<path d="M128.849 119.048C128.849 119.048 137.714 140.09 142.592 147.62C147.47 155.15 164.087 164.235 170.738 162.021C177.389 159.808 184.257 153.602 188.911 143.634C193.564 133.666 193.123 114.397 192.681 108.856C192.24 103.315 165.867 89.3621 159.882 88.9207C153.896 88.4794 138.163 95.7854 135.058 99.5538C131.953 103.322 128.855 119.048 128.855 119.048H128.849Z" fill="white" stroke="#4F3B31" stroke-miterlimit="10" stroke-linecap="round"/>
<path d="M132.619 74.7434C132.619 74.7434 126.634 72.3058 121.097 78.9531C115.553 85.6005 115.336 87.5899 117.551 87.5899C119.766 87.5899 122.646 86.7072 122.646 86.7072C122.646 86.7072 113.115 92.2478 113.556 97.1162C113.998 101.991 115.105 102.209 117.102 100.436C119.1 98.6643 117.102 103.315 118.21 103.539C119.317 103.764 120.424 101.991 120.424 101.991C120.424 101.991 123.971 114.397 127.293 118.382C130.615 122.368 129.949 122.592 132.836 122.151C135.717 121.709 141.165 125.905 142.137 120.093C144.107 108.34 142.524 113.575 147.069 117.771C149.915 120.399 152.558 106.867 154.107 103.322C155.656 99.7778 156.763 95.5681 156.763 95.5681C156.763 95.5681 156.763 104.87 160.085 106.201C163.408 107.532 164.073 103.322 164.073 103.322C164.073 103.322 170.942 110.411 178.924 111.518C186.9 112.624 187.124 106.642 187.124 106.642L190.446 109.08C190.446 109.08 192.443 113.29 193.102 113.731C193.768 114.172 199.529 111.294 201.526 109.745C203.524 108.197 204.848 106.425 202.192 102.881C199.536 99.3365 198.87 98.0057 198.87 98.0057C198.87 98.0057 202.416 101.109 203.082 99.3365C203.748 97.5643 204.855 93.7959 201.751 91.141C198.646 88.4862 192.443 87.1554 192.443 87.1554C192.443 87.1554 195.548 86.4899 195.324 80.2907C195.1 74.0915 193.775 72.5366 191.778 74.7501C189.78 76.9637 186.234 79.8426 185.351 80.2907C184.468 80.7321 190.894 71.2058 186.682 66.7788C182.47 62.3517 181.139 65.672 178.707 66.5547C176.268 67.4374 172.28 64.3412 164.746 62.569C157.212 60.7968 144.358 60.3555 139.256 66.1134L134.161 71.8712C134.161 71.8712 133.72 66.996 132.612 69.4336C131.505 71.8712 132.612 74.7501 132.612 74.7501L132.619 74.7434Z" fill="#4F3B31" stroke="#4F3B31" stroke-miterlimit="10" stroke-linecap="round"/>
<path d="M162.762 138.542C162.762 138.542 167.64 142.31 170.738 136.545" stroke="#4F3B31" stroke-miterlimit="10" stroke-linecap="round"/>
<path d="M146.308 141.699C144.372 141.699 142.721 141.414 141.756 140.776C139.311 139.146 135.696 132.858 135.907 130.584C135.975 129.803 136.124 128.173 159.821 122.13L160.384 121.988L160.792 122.395C160.914 122.517 162.015 123.672 162.015 125.43V125.559C162.028 130.889 161.186 137.632 157.089 139.465C154.107 140.803 149.759 141.699 146.308 141.699ZM137.952 131.018C138.183 132.573 140.846 137.713 142.891 139.078C144.786 140.341 151.906 139.56 156.261 137.611C158.638 136.545 159.997 132.152 159.977 125.566V125.43C159.977 124.962 159.814 124.561 159.657 124.276C150.004 126.754 139.678 129.837 137.952 131.025V131.018Z" fill="#4F3B31"/>
<path d="M176.343 134.78C172.049 134.78 168.217 129.504 165.731 124.989L165.663 124.873C164.807 123.332 165.215 121.798 165.262 121.628L165.418 121.071L165.982 120.922C189.631 114.709 190.548 116.067 190.989 116.712C192.273 118.6 192.172 125.851 190.82 128.465C189.339 131.338 181.859 134.325 176.777 134.76C176.628 134.773 176.478 134.78 176.336 134.78H176.343ZM167.164 122.721C167.164 123.047 167.219 123.475 167.443 123.889L167.511 124.011C170.697 129.776 174.026 132.96 176.607 132.736C181.356 132.329 187.966 129.559 189.013 127.535C190.14 125.349 189.97 119.564 189.42 118.09C187.335 117.893 176.811 120.209 167.164 122.721Z" fill="#4F3B31"/>
<path d="M166.031 120.92L159.857 122.125L160.247 124.124L166.421 122.919L166.031 120.92Z" fill="#4F3B31"/>
<path d="M161.981 127.399L160.303 126.245C161.159 124.996 163.713 123.02 167.246 124.493L166.465 126.374C163.645 125.199 162.144 127.175 161.981 127.406V127.399Z" fill="#4F3B31"/>
<path d="M146.641 128.975C146.641 128.975 151.886 131.134 156.668 126.198" stroke="#4F3B31" stroke-miterlimit="10" stroke-linecap="round"/>
<path d="M171.329 122.965C171.329 122.965 177.81 125.586 182.593 120.032" stroke="#4F3B31" stroke-miterlimit="10" stroke-linecap="round"/>
<path d="M152.348 116.637C152.348 116.637 146.641 121.261 144.943 122.809C143.244 124.351 140.16 126.204 142.626 126.354C145.092 126.51 153.584 121.574 155.894 119.258C158.21 116.943 154.352 115.245 152.348 116.637Z" fill="#4F3B31" stroke="#4F3B31" stroke-miterlimit="10" stroke-linecap="round"/>
<path d="M165.622 111.552C165.622 111.552 164.08 114.172 165.778 114.947C167.477 115.721 179.515 116.8 181.363 116.182C183.218 115.564 181.825 113.867 180.439 113.561C179.053 113.256 167.164 109.861 165.622 111.558V111.552Z" fill="#4F3B31" stroke="#4F3B31" stroke-miterlimit="10" stroke-linecap="round"/>
<path d="M170.711 148.951C170.711 149.928 169.984 150.723 169.087 150.723C168.19 150.723 167.47 149.928 167.47 148.951C167.47 147.973 168.197 147.178 169.087 147.178C169.977 147.178 170.711 147.973 170.711 148.951Z" fill="#4F3B31" stroke="#4F3B31" stroke-miterlimit="10" stroke-linecap="round"/>
<path d="M127.198 96.0026C127.198 96.0026 129.643 93.0014 130.9 95.3236C132.157 97.6457 127.666 105.4 127.558 106.12C127.449 106.839 130.445 117.024 133.101 119.801C135.758 122.578 147.273 136.084 147.13 140.395C146.981 144.707 145.167 151.768 145.418 152.542C145.669 153.316 128.556 149.446 128.556 149.446L131.315 140.545C131.315 140.545 130.296 139.506 130.146 139.044C130.146 139.044 115.751 130.509 115.907 125.559C115.968 123.583 116.396 107.267 116.321 104.51C116.253 101.754 122.646 94.0674 123.733 93.2051C124.82 92.3428 127.184 91.7521 127.198 96.0093V96.0026Z" fill="white" stroke="#4F3B31" stroke-miterlimit="10" stroke-linecap="round"/>
<path d="M133.292 140.416C133.292 140.416 137.3 137.672 141.756 140.775" stroke="#4F3B31" stroke-miterlimit="10" stroke-linecap="round"/>
<path d="M125.887 97.0957C125.887 97.0957 121.96 105.495 121.41 106.948C120.859 108.401 123.156 116.325 124.888 119.333" stroke="#4F3B31" stroke-miterlimit="10" stroke-linecap="round"/>
<path d="M116.328 104.497C116.328 104.497 117.904 119.795 118.808 121.804C119.711 123.807 119.854 124.269 121.077 124.894C122.3 125.518 123.196 127.521 123.196 127.521" stroke="#4F3B31" stroke-miterlimit="10" stroke-linecap="round"/>
<path d="M147.721 157.513C147.721 157.513 149.725 152.115 149.263 150.261C148.801 148.407 139.08 144.557 135.839 145.325C132.599 146.099 121.179 146.099 120.873 148.869C120.567 151.639 120.717 158.429 120.567 159.359C120.411 160.283 118.713 163.678 119.793 163.983C120.873 164.289 145.561 169.225 145.561 169.225C145.561 169.225 146.179 167.84 146.485 165.369C146.79 162.904 147.721 157.506 147.721 157.506V157.513Z" fill="#F7D5BA" stroke="#4F3B31" stroke-miterlimit="10" stroke-linecap="round"/>
<path d="M119.786 163.99C119.786 163.99 116.24 163.372 114.691 167.534C113.142 171.697 112.068 179.254 112.225 181.413C112.381 183.572 102.197 204.546 102.197 204.546C102.197 204.546 91.0898 215.804 92.0137 221.82C92.9376 227.836 96.7964 243.256 100.499 247.425C104.201 251.587 108.678 256.062 112.843 255.905C117.007 255.749 117.164 252.972 125.343 249.428C133.523 245.884 137.531 248.043 139.691 234.619C141.851 221.202 143.706 188.346 144.936 183.26C146.172 178.168 147.714 176.782 147.252 173.7C146.79 170.617 145.554 169.225 145.554 169.225L119.786 163.983V163.99Z" fill="#F7D5BA" stroke="#4F3B31" stroke-miterlimit="10" stroke-linecap="round"/>
<path d="M189.23 105.223C189.23 105.223 186.146 103.22 185.684 105.685C185.222 108.15 191.547 113.86 191.859 114.478C192.172 115.096 192.423 125.186 190.833 128.465C189.237 131.752 182.756 147.328 184.148 151.184C185.534 155.041 189.244 160.901 189.244 161.675C189.244 162.449 203.592 153.961 203.592 153.961L198.496 146.71C198.496 146.71 199.115 145.474 199.115 145.012C199.115 145.012 207.756 130.516 208.062 128.662C208.368 126.809 202.287 112.251 201.547 109.739C200.806 107.226 192.783 102.134 191.547 101.672C190.31 101.211 188 101.367 189.23 105.217V105.223Z" fill="white" stroke="#4F3B31" stroke-miterlimit="10" stroke-linecap="round"/>
<path d="M196.737 147.334C196.737 147.334 193.279 148.489 190.738 150.329" stroke="#4F3B31" stroke-miterlimit="10" stroke-linecap="round"/>
<path d="M190.738 105.834C190.738 105.834 196.737 112.292 197.661 113.446C198.585 114.6 198.816 122.436 198.123 125.668" stroke="#4F3B31" stroke-miterlimit="10" stroke-linecap="round"/>
<path d="M201.547 109.745C201.547 109.745 204.583 124.045 204.352 126.123C204.121 128.2 204.121 128.662 203.198 129.579C202.274 130.502 202.043 132.573 202.043 132.573" stroke="#4F3B31" stroke-miterlimit="10" stroke-linecap="round"/>
<path d="M192.627 179.722C192.627 179.722 189.542 184.659 190.466 188.821C191.39 192.983 208.829 240.492 208.829 240.492C208.829 240.492 222.716 254.222 227.505 254.989C232.288 255.763 234.142 255.912 238.463 251.75C242.784 247.588 251.12 235.862 252.043 225.996C252.967 216.123 247.566 211.649 245.1 208.41C242.634 205.171 224.264 178.181 221.798 172.939C219.332 167.697 213.001 166.462 213.001 166.462L192.634 179.722H192.627Z" fill="#F7D5BA" stroke="#4F3B31" stroke-miterlimit="10" stroke-linecap="round"/>
<path d="M205.27 149.874C205.27 149.874 183.584 160.466 184.046 164.628C184.508 168.791 190.31 172.009 191.241 175.553C192.165 179.098 192.783 180.646 194.943 179.872C197.104 179.098 210.684 168.92 211.764 167.996C212.844 167.073 213.925 165.993 212.844 164.452C211.764 162.911 209.658 160.018 209.658 160.018C209.658 160.018 207.586 148.638 205.276 149.874H205.27Z" fill="#F7D5BA" stroke="#4F3B31" stroke-miterlimit="10" stroke-linecap="round"/>
<path d="M213.456 170.773C213.456 170.773 224.563 209.639 235.678 220.897" stroke="#4F3B31" stroke-miterlimit="10" stroke-linecap="round"/>
<path d="M234.081 226.967C234.815 227.816 235.467 228.44 235.99 228.766" stroke="#4F3B31" stroke-miterlimit="10" stroke-linecap="round"/>
<path d="M220.711 206.094C220.711 206.094 227.294 217.895 232.186 224.563" stroke="#4F3B31" stroke-miterlimit="10" stroke-linecap="round"/>
<path d="M222.41 255.451C219.326 255.607 213.15 255.912 208.673 254.833C204.196 253.753 186.913 245.578 177.035 244.96C168.217 244.41 163.836 250.243 162.993 251.506C162.151 250.243 157.769 244.41 148.951 244.96C139.073 245.578 121.79 253.753 117.313 254.833C112.836 255.912 106.667 255.607 103.576 255.451C100.492 255.295 96.7896 255.295 96.7896 255.295V258.69H229.197V255.295C229.197 255.295 225.494 255.295 222.41 255.451Z" fill="white" stroke="#4F3B31" stroke-miterlimit="10" stroke-linecap="round"/>
<path d="M229.197 256.992H96.7964V258.69H162.531H163.462H229.197V256.992Z" fill="#4F3B31" stroke="#4F3B31" stroke-miterlimit="10" stroke-linecap="round"/>
<path d="M161.92 255.607C161.92 255.607 158.835 249.591 150.5 250.514C142.164 251.438 129.052 255.138 127.354 255.294" stroke="#4F3B31" stroke-miterlimit="10" stroke-linecap="round"/>
<path d="M157.905 255.607C157.905 255.607 155.744 253.604 150.805 253.753C145.866 253.909 141.858 255.756 141.24 255.756" stroke="#4F3B31" stroke-miterlimit="10" stroke-linecap="round"/>
<path d="M126.579 253.909C126.579 253.909 137.843 250.827 143.095 248.817C148.339 246.814 151.58 246.814 156.363 249.122" stroke="#4F3B31" stroke-miterlimit="10" stroke-linecap="round"/>
<path d="M159.447 250.514C159.447 250.514 161.451 250.82 162.225 253.291" stroke="#4F3B31" stroke-miterlimit="10" stroke-linecap="round"/>
<path d="M165.772 255.138C165.772 255.138 168.55 252.361 176.112 253.441C183.673 254.52 186.913 254.677 186.913 254.677" stroke="#4F3B31" stroke-miterlimit="10" stroke-linecap="round"/>
<path d="M164.08 255.138C164.08 255.138 165.622 250.82 172.565 250.046C179.508 249.272 191.085 253.59 193.401 254.208" stroke="#4F3B31" stroke-miterlimit="10" stroke-linecap="round"/>
<path d="M180.589 248.661C180.589 248.661 191.696 250.664 199.876 254.677" stroke="#4F3B31" stroke-miterlimit="10" stroke-linecap="round"/>
<path d="M92.9173 258.689H35.4571V236.982H92.9173C98.0736 236.982 102.265 241.171 102.265 246.325V249.347C102.265 254.5 98.0736 258.689 92.9173 258.689Z" fill="#D4D4D4" stroke="#4F3B31" stroke-miterlimit="10" stroke-linecap="round"/>
<path d="M82.4755 255.79H20.6539V239.888H82.4755C86.2528 239.888 89.3235 242.957 89.3235 246.733V248.946C89.3235 252.721 86.2528 255.79 82.4755 255.79Z" fill="white" stroke="#4F3B31" stroke-miterlimit="10" stroke-linecap="round"/>
<path d="M81.3682 239.881H17.8617V236.982H80.9538C86.9525 236.982 91.8099 241.844 91.8099 247.832C91.8099 253.821 86.9457 258.69 80.9538 258.69H17.8617V255.79H81.3682C85.7636 255.79 89.3235 252.232 89.3235 247.839C89.3235 243.446 85.7636 239.888 81.3682 239.888V239.881Z" fill="#BABABA" stroke="#4F3B31" stroke-miterlimit="10" stroke-linecap="round"/>
<path d="M86.9389 244.797H69.7783" stroke="#4F3B31" stroke-miterlimit="10" stroke-linecap="round"/>
<path d="M83.1277 246.957H75.7499" stroke="#4F3B31" stroke-miterlimit="10" stroke-linecap="round"/>
<path d="M88.5897 251.146H72.8286" stroke="#4F3B31" stroke-miterlimit="10" stroke-linecap="round"/>
<path d="M71.0487 251.404H65.7089" stroke="#4F3B31" stroke-miterlimit="10" stroke-linecap="round"/>
<path d="M76.7689 254.195H68.3788" stroke="#4F3B31" stroke-miterlimit="10" stroke-linecap="round"/>
<path d="M89.3234 247.832H85.7908" stroke="#4F3B31" stroke-miterlimit="10" stroke-linecap="round"/>
<path d="M20.8441 247.208H29.3564" stroke="#4F3B31" stroke-miterlimit="10" stroke-linecap="round"/>
<path d="M25.5452 250.514H36.347" stroke="#4F3B31" stroke-miterlimit="10" stroke-linecap="round"/>
<path d="M31.5168 247.208H38.3851" stroke="#4F3B31" stroke-miterlimit="10" stroke-linecap="round"/>
<path d="M105.608 172.193H48.1475V150.485H105.608C110.764 150.485 114.956 154.675 114.956 159.828V162.85C114.956 168.003 110.764 172.193 105.608 172.193Z" fill="#D4D4D4" stroke="#4F3B31" stroke-miterlimit="10" stroke-linecap="round"/>
<path d="M95.1659 169.286H33.3443V153.384H95.1659C98.9432 153.384 102.014 156.453 102.014 160.229V162.442C102.014 166.217 98.9432 169.286 95.1659 169.286Z" fill="white" stroke="#4F3B31" stroke-miterlimit="10" stroke-linecap="round"/>
<path d="M94.0586 153.391H30.5453V150.492H93.6374C99.6361 150.492 104.494 155.354 104.494 161.342C104.494 167.331 99.6293 172.193 93.6374 172.193H30.5453V169.293H94.0518C98.4472 169.293 102.007 165.735 102.007 161.342C102.007 156.949 98.4472 153.391 94.0518 153.391H94.0586Z" fill="#BABABA" stroke="#4F3B31" stroke-miterlimit="10" stroke-linecap="round"/>
<path d="M99.6225 158.3H82.4619" stroke="#4F3B31" stroke-miterlimit="10" stroke-linecap="round"/>
<path d="M95.8113 160.459H88.4403" stroke="#4F3B31" stroke-miterlimit="10" stroke-linecap="round"/>
<path d="M101.273 164.656H85.5122" stroke="#4F3B31" stroke-miterlimit="10" stroke-linecap="round"/>
<path d="M83.7323 164.907H78.3994" stroke="#4F3B31" stroke-miterlimit="10" stroke-linecap="round"/>
<path d="M89.4525 167.704H81.0692" stroke="#4F3B31" stroke-miterlimit="10" stroke-linecap="round"/>
<path d="M102.014 161.342H98.4812" stroke="#4F3B31" stroke-miterlimit="10" stroke-linecap="round"/>
<path d="M33.5277 160.718H42.0469" stroke="#4F3B31" stroke-miterlimit="10" stroke-linecap="round"/>
<path d="M38.2289 164.018H49.0375" stroke="#4F3B31" stroke-miterlimit="10" stroke-linecap="round"/>
<path d="M44.2072 160.718H51.0688" stroke="#4F3B31" stroke-miterlimit="10" stroke-linecap="round"/>
<path d="M92.9173 236.989H35.4571V215.281H92.9173C98.0736 215.281 102.265 219.471 102.265 224.624V227.646C102.265 232.799 98.0736 236.989 92.9173 236.989Z" fill="#4F3B31" stroke="#4F3B31" stroke-miterlimit="10" stroke-linecap="round"/>
<path d="M82.4755 234.09H20.6539V218.188H82.4755C86.2528 218.188 89.3235 221.257 89.3235 225.032V227.245C89.3235 231.021 86.2528 234.09 82.4755 234.09Z" fill="white" stroke="#4F3B31" stroke-miterlimit="10" stroke-linecap="round"/>
<path d="M81.3682 218.181H17.8617V215.281H80.9538C86.9525 215.281 91.8099 220.143 91.8099 226.139C91.8099 232.134 86.9457 236.996 80.9538 236.996H17.8617V234.096H81.3682C85.7636 234.096 89.3235 230.538 89.3235 226.145C89.3235 221.752 85.7636 218.194 81.3682 218.194V218.181Z" fill="#4F3B31" stroke="#4F3B31" stroke-miterlimit="10" stroke-linecap="round"/>
<path d="M86.9389 223.097H69.7783" stroke="#4F3B31" stroke-miterlimit="10" stroke-linecap="round"/>
<path d="M83.1277 225.256H75.7499" stroke="#4F3B31" stroke-miterlimit="10" stroke-linecap="round"/>
<path d="M88.5897 229.445H72.8286" stroke="#4F3B31" stroke-miterlimit="10" stroke-linecap="round"/>
<path d="M71.0487 229.703H65.7089" stroke="#4F3B31" stroke-miterlimit="10" stroke-linecap="round"/>
<path d="M76.7689 232.494H68.3788" stroke="#4F3B31" stroke-miterlimit="10" stroke-linecap="round"/>
<path d="M89.3234 226.132H85.7908" stroke="#4F3B31" stroke-miterlimit="10" stroke-linecap="round"/>
<path d="M20.8441 225.507H29.3564" stroke="#4F3B31" stroke-miterlimit="10" stroke-linecap="round"/>
<path d="M25.5452 228.814H36.347" stroke="#4F3B31" stroke-miterlimit="10" stroke-linecap="round"/>
<path d="M31.5168 225.507H38.3851" stroke="#4F3B31" stroke-miterlimit="10" stroke-linecap="round"/>
<path d="M20.715 193.812H78.1752V215.519H20.715C15.5587 215.519 11.367 211.33 11.367 206.176V203.155C11.367 198.001 15.5587 193.812 20.715 193.812Z" fill="#F7D5BA" stroke="#4F3B31" stroke-miterlimit="10" stroke-linecap="round"/>
<path d="M31.1567 196.711H92.9784V212.613H31.1567C27.3795 212.613 24.3088 209.544 24.3088 205.769V203.555C24.3088 199.78 27.3795 196.711 31.1567 196.711Z" fill="white" stroke="#4F3B31" stroke-miterlimit="10" stroke-linecap="round"/>
<path d="M32.2641 196.711H95.7706V193.812H32.6785C26.6798 193.812 21.8224 198.673 21.8224 204.662C21.8224 210.651 26.6866 215.512 32.6785 215.512H95.7706V212.613H32.2641C27.8687 212.613 24.3088 209.055 24.3088 204.662C24.3088 200.269 27.8687 196.711 32.2641 196.711Z" fill="#D6D6D6" stroke="#4F3B31" stroke-miterlimit="10" stroke-linecap="round"/>
<path d="M26.6934 201.627H43.854" stroke="#4F3B31" stroke-miterlimit="10" stroke-linecap="round"/>
<path d="M30.5114 203.786H37.8824" stroke="#4F3B31" stroke-miterlimit="10" stroke-linecap="round"/>
<path d="M25.0425 207.976H40.8036" stroke="#4F3B31" stroke-miterlimit="10" stroke-linecap="round"/>
<path d="M42.5836 208.227H47.9233" stroke="#4F3B31" stroke-miterlimit="10" stroke-linecap="round"/>
<path d="M36.8634 211.024H45.2534" stroke="#4F3B31" stroke-miterlimit="10" stroke-linecap="round"/>
<path d="M24.3088 204.662H27.8415" stroke="#4F3B31" stroke-miterlimit="10" stroke-linecap="round"/>
<path d="M92.795 204.037H84.2758" stroke="#4F3B31" stroke-miterlimit="10" stroke-linecap="round"/>
<path d="M88.087 207.337H77.2852" stroke="#4F3B31" stroke-miterlimit="10" stroke-linecap="round"/>
<path d="M82.1155 204.037H75.2539" stroke="#4F3B31" stroke-miterlimit="10" stroke-linecap="round"/>
<path d="M31.2926 172.294H88.7528V194.002H31.2926C26.1363 194.002 21.9446 189.812 21.9446 184.659V181.637C21.9446 176.484 26.1363 172.294 31.2926 172.294Z" fill="#4F3B31" stroke="#4F3B31" stroke-miterlimit="10" stroke-linecap="round"/>
<path d="M41.7344 175.194H103.556V191.096H41.7344C37.9571 191.096 34.8864 188.027 34.8864 184.251V182.038C34.8864 178.263 37.9571 175.194 41.7344 175.194Z" fill="white" stroke="#4F3B31" stroke-miterlimit="10" stroke-linecap="round"/>
<path d="M42.8417 175.194H106.348V172.294H43.2561C37.2574 172.294 32.4 177.156 32.4 183.152C32.4 189.147 37.2642 194.002 43.2561 194.002H106.348V191.103H42.8417C38.4463 191.103 34.8864 187.545 34.8864 183.152C34.8864 178.758 38.4463 175.201 42.8417 175.201V175.194Z" fill="#D6D6D6" stroke="#4F3B31" stroke-miterlimit="10" stroke-linecap="round"/>
<path d="M37.271 180.11H54.4316" stroke="#4F3B31" stroke-miterlimit="10" stroke-linecap="round"/>
<path d="M41.0822 182.269H48.4532" stroke="#4F3B31" stroke-miterlimit="10" stroke-linecap="round"/>
<path d="M35.6201 186.458H51.3813" stroke="#4F3B31" stroke-miterlimit="10" stroke-linecap="round"/>
<path d="M53.1612 186.716H58.5009" stroke="#4F3B31" stroke-miterlimit="10" stroke-linecap="round"/>
<path d="M47.441 189.507H55.8311" stroke="#4F3B31" stroke-miterlimit="10" stroke-linecap="round"/>
<path d="M34.8796 183.145H38.4123" stroke="#4F3B31" stroke-miterlimit="10" stroke-linecap="round"/>
<path d="M103.366 182.52H94.8534" stroke="#4F3B31" stroke-miterlimit="10" stroke-linecap="round"/>
<path d="M98.6646 185.827H87.856" stroke="#4F3B31" stroke-miterlimit="10" stroke-linecap="round"/>
<path d="M92.6863 182.52H85.8247" stroke="#4F3B31" stroke-miterlimit="10" stroke-linecap="round"/>
<path d="M31.2383 128.981H88.6984V150.689H31.2383C26.0819 150.689 21.8903 146.499 21.8903 141.346V138.324C21.8903 133.171 26.0819 128.981 31.2383 128.981Z" fill="#F7D5BA" stroke="#4F3B31" stroke-miterlimit="10" stroke-linecap="round"/>
<path d="M41.6732 131.881H103.495V147.783H41.6732C37.896 147.783 34.8253 144.714 34.8253 140.939V138.725C34.8253 134.95 37.896 131.881 41.6732 131.881Z" fill="white" stroke="#4F3B31" stroke-miterlimit="10" stroke-linecap="round"/>
<path d="M42.7806 131.881H106.287V128.981H43.195C37.1962 128.981 32.3388 133.843 32.3388 139.832C32.3388 145.82 37.203 150.682 43.195 150.682H106.287V147.783H42.7806C38.3851 147.783 34.8253 144.225 34.8253 139.832C34.8253 135.439 38.3851 131.881 42.7806 131.881Z" fill="#D6D6D6" stroke="#4F3B31" stroke-miterlimit="10" stroke-linecap="round"/>
<path d="M37.2166 136.79H54.3772" stroke="#4F3B31" stroke-miterlimit="10" stroke-linecap="round"/>
<path d="M41.0278 138.956H48.3989" stroke="#4F3B31" stroke-miterlimit="10" stroke-linecap="round"/>
<path d="M35.5658 143.145H51.3269" stroke="#4F3B31" stroke-miterlimit="10" stroke-linecap="round"/>
<path d="M53.1 143.396H58.4398" stroke="#4F3B31" stroke-miterlimit="10" stroke-linecap="round"/>
<path d="M47.3866 146.194H55.7699" stroke="#4F3B31" stroke-miterlimit="10" stroke-linecap="round"/>
<path d="M34.8253 139.832H38.358" stroke="#4F3B31" stroke-miterlimit="10" stroke-linecap="round"/>
<path d="M103.311 139.207H94.7923" stroke="#4F3B31" stroke-miterlimit="10" stroke-linecap="round"/>
<path d="M98.6103 142.507H87.8017" stroke="#4F3B31" stroke-miterlimit="10" stroke-linecap="round"/>
<path d="M92.6319 139.207H85.7704" stroke="#4F3B31" stroke-miterlimit="10" stroke-linecap="round"/>
<path d="M252.859 236.982H310.319V258.69H252.859C247.702 258.69 243.511 254.5 243.511 249.347V246.325C243.511 241.172 247.702 236.982 252.859 236.982Z" fill="#D4D4D4" stroke="#4F3B31" stroke-miterlimit="10" stroke-linecap="round"/>
<path d="M263.294 239.881H325.115V255.783H263.294C259.516 255.783 256.446 252.714 256.446 248.939V246.726C256.446 242.95 259.516 239.881 263.294 239.881Z" fill="white" stroke="#4F3B31" stroke-miterlimit="10" stroke-linecap="round"/>
<path d="M264.401 239.881H327.908V236.982H264.815C258.817 236.982 253.959 241.844 253.959 247.832C253.959 253.821 258.824 258.69 264.815 258.69H327.908V255.79H264.401C260.006 255.79 256.446 252.232 256.446 247.839C256.446 243.446 260.006 239.888 264.401 239.888V239.881Z" fill="#BABABA" stroke="#4F3B31" stroke-miterlimit="10" stroke-linecap="round"/>
<path d="M258.837 244.797H275.998" stroke="#4F3B31" stroke-miterlimit="10" stroke-linecap="round"/>
<path d="M262.648 246.957H270.019" stroke="#4F3B31" stroke-miterlimit="10" stroke-linecap="round"/>
<path d="M257.186 251.146H272.947" stroke="#4F3B31" stroke-miterlimit="10" stroke-linecap="round"/>
<path d="M274.727 251.404H280.06" stroke="#4F3B31" stroke-miterlimit="10" stroke-linecap="round"/>
<path d="M269.007 254.195H277.39" stroke="#4F3B31" stroke-miterlimit="10" stroke-linecap="round"/>
<path d="M256.446 247.832H259.978" stroke="#4F3B31" stroke-miterlimit="10" stroke-linecap="round"/>
<path d="M324.932 247.208H316.413" stroke="#4F3B31" stroke-miterlimit="10" stroke-linecap="round"/>
<path d="M320.231 250.514H309.422" stroke="#4F3B31" stroke-miterlimit="10" stroke-linecap="round"/>
<path d="M314.252 247.208H307.391" stroke="#4F3B31" stroke-miterlimit="10" stroke-linecap="round"/>
<path d="M252.859 215.281H310.319V236.989H252.859C247.702 236.989 243.511 232.8 243.511 227.646V224.624C243.511 219.471 247.702 215.281 252.859 215.281Z" fill="#4F3B31" stroke="#4F3B31" stroke-miterlimit="10" stroke-linecap="round"/>
<path d="M263.294 218.181H325.115V234.083H263.294C259.516 234.083 256.446 231.014 256.446 227.238V225.025C256.446 221.25 259.516 218.181 263.294 218.181Z" fill="white" stroke="#4F3B31" stroke-miterlimit="10" stroke-linecap="round"/>
<path d="M264.401 218.181H327.908V215.281H264.815C258.817 215.281 253.959 220.143 253.959 226.139C253.959 232.134 258.824 236.996 264.815 236.996H327.908V234.096H264.401C260.006 234.096 256.446 230.538 256.446 226.145C256.446 221.752 260.006 218.194 264.401 218.194V218.181Z" fill="#4F3B31" stroke="#4F3B31" stroke-miterlimit="10" stroke-linecap="round"/>
<path d="M258.837 223.097H275.998" stroke="#4F3B31" stroke-miterlimit="10" stroke-linecap="round"/>
<path d="M262.648 225.256H270.019" stroke="#4F3B31" stroke-miterlimit="10" stroke-linecap="round"/>
<path d="M257.186 229.445H272.947" stroke="#4F3B31" stroke-miterlimit="10" stroke-linecap="round"/>
<path d="M274.727 229.703H280.06" stroke="#4F3B31" stroke-miterlimit="10" stroke-linecap="round"/>
<path d="M269.007 232.494H277.39" stroke="#4F3B31" stroke-miterlimit="10" stroke-linecap="round"/>
<path d="M256.446 226.132H259.978" stroke="#4F3B31" stroke-miterlimit="10" stroke-linecap="round"/>
<path d="M324.932 225.507H316.413" stroke="#4F3B31" stroke-miterlimit="10" stroke-linecap="round"/>
<path d="M320.231 228.814H309.422" stroke="#4F3B31" stroke-miterlimit="10" stroke-linecap="round"/>
<path d="M314.252 225.507H307.391" stroke="#4F3B31" stroke-miterlimit="10" stroke-linecap="round"/>
<path d="M251.853 171.541H309.313V193.248H251.853C246.697 193.248 242.505 189.059 242.505 183.905V180.884C242.505 175.73 246.697 171.541 251.853 171.541Z" fill="#F7D5BA" stroke="#4F3B31" stroke-miterlimit="10" stroke-linecap="round"/>
<path d="M262.288 174.44H324.11V190.342H262.288C258.511 190.342 255.44 187.273 255.44 183.498V181.284C255.44 177.509 258.511 174.44 262.288 174.44Z" fill="white" stroke="#4F3B31" stroke-miterlimit="10" stroke-linecap="round"/>
<path d="M263.396 174.44H326.902V171.541H263.81C257.811 171.541 252.954 176.402 252.954 182.391C252.954 188.38 257.818 193.248 263.81 193.248H326.902V190.349H263.396C259 190.349 255.44 186.791 255.44 182.398C255.44 178.005 259 174.447 263.396 174.447V174.44Z" fill="#D6D6D6" stroke="#4F3B31" stroke-miterlimit="10" stroke-linecap="round"/>
<path d="M257.832 179.356H274.985" stroke="#4F3B31" stroke-miterlimit="10" stroke-linecap="round"/>
<path d="M261.643 181.515H269.014" stroke="#4F3B31" stroke-miterlimit="10" stroke-linecap="round"/>
<path d="M256.174 185.705H271.935" stroke="#4F3B31" stroke-miterlimit="10" stroke-linecap="round"/>
<path d="M273.715 185.963H279.055" stroke="#4F3B31" stroke-miterlimit="10" stroke-linecap="round"/>
<path d="M267.995 188.753H276.385" stroke="#4F3B31" stroke-miterlimit="10" stroke-linecap="round"/>
<path d="M255.44 182.391H258.973" stroke="#4F3B31" stroke-miterlimit="10" stroke-linecap="round"/>
<path d="M323.926 181.766H315.407" stroke="#4F3B31" stroke-miterlimit="10" stroke-linecap="round"/>
<path d="M319.218 185.073H308.417" stroke="#4F3B31" stroke-miterlimit="10" stroke-linecap="round"/>
<path d="M313.247 181.766H306.385" stroke="#4F3B31" stroke-miterlimit="10" stroke-linecap="round"/>
<path d="M319.517 215.037H262.057V193.33H319.517C324.674 193.33 328.865 197.519 328.865 202.673V205.694C328.865 210.848 324.674 215.037 319.517 215.037Z" fill="#4F3B31" stroke="#4F3B31" stroke-miterlimit="10" stroke-linecap="round"/>
<path d="M314.85 212.138H253.029V196.236H314.85C318.627 196.236 321.698 199.305 321.698 203.08V205.293C321.698 209.069 318.627 212.138 314.85 212.138Z" fill="#D4D4D4" stroke="#4F3B31" stroke-miterlimit="10" stroke-linecap="round"/>
<path d="M313.743 196.236H250.236V193.336H313.328C319.327 193.336 324.185 198.198 324.185 204.194C324.185 210.189 319.32 215.051 313.328 215.051H250.236V212.151H313.743C318.138 212.151 321.698 208.593 321.698 204.2C321.698 199.807 318.138 196.249 313.743 196.249V196.236Z" fill="#D6D6D6" stroke="#4F3B31" stroke-miterlimit="10" stroke-linecap="round"/>
<path d="M319.307 201.145H302.153" stroke="#4F3B31" stroke-miterlimit="10" stroke-linecap="round"/>
<path d="M315.496 203.304H308.125" stroke="#4F3B31" stroke-miterlimit="10" stroke-linecap="round"/>
<path d="M320.964 207.5H305.203" stroke="#4F3B31" stroke-miterlimit="10" stroke-linecap="round"/>
<path d="M303.423 207.751H298.084" stroke="#4F3B31" stroke-miterlimit="10" stroke-linecap="round"/>
<path d="M309.144 210.549H300.754" stroke="#4F3B31" stroke-miterlimit="10" stroke-linecap="round"/>
<path d="M321.698 204.187H318.166" stroke="#4F3B31" stroke-miterlimit="10" stroke-linecap="round"/>
<path d="M253.212 203.562H261.731" stroke="#4F3B31" stroke-miterlimit="10" stroke-linecap="round"/>
<path d="M257.92 206.862H268.722" stroke="#4F3B31" stroke-miterlimit="10" stroke-linecap="round"/>
<path d="M263.892 203.562H270.753" stroke="#4F3B31" stroke-miterlimit="10" stroke-linecap="round"/>
<path d="M253.029 203.739H328.865V202.679C328.865 197.519 324.681 193.336 319.517 193.336H250.23V196.236H253.029V203.739Z" fill="#4F3B31" stroke="#4F3B31" stroke-miterlimit="10" stroke-linecap="round"/>
<path d="M264.208 94.1218C270.252 81.2903 264.744 65.9912 251.905 59.9504C239.067 53.9095 223.76 59.4145 217.715 72.2461C211.671 85.0777 217.179 100.377 230.018 106.418C242.856 112.458 258.164 106.953 264.208 94.1218Z" fill="#F7D5BA" stroke="#4F3B31" stroke-miterlimit="10"/>
<path d="M292.683 252.117H297.866L315.176 147.314L256.174 80.4402L251.88 83.3395L309.993 148.903L292.683 252.117Z" fill="#4F3B31"/>
<path d="M312.581 153.643C315.639 153.643 318.118 151.165 318.118 148.109C318.118 145.053 315.639 142.575 312.581 142.575C309.523 142.575 307.044 145.053 307.044 148.109C307.044 151.165 309.523 153.643 312.581 153.643Z" fill="#4F3B31" stroke="#4F3B31" stroke-miterlimit="10"/>
<path d="M263.178 258.69H328.111V251.683H263.178V258.69Z" fill="#4F3B31" stroke="#4F3B31" stroke-miterlimit="10"/>
<path d="M239.007 73.3855C242.132 81.2346 251.024 85.0642 258.878 81.9408C266.731 78.8174 270.563 69.9294 267.438 62.0802C264.313 54.2311 255.42 50.4016 247.566 53.5249C239.713 56.6483 235.882 65.5363 239.007 73.3855Z" fill="#F7D5BA" stroke="#4F3B31" stroke-miterlimit="10"/>
<path d="M258.878 81.9409C251.024 85.0643 242.132 81.2348 239.007 73.3856C236.955 68.2253 237.906 62.61 241.038 58.4885L235.834 64.0834C231.011 68.2185 229.102 75.1035 231.581 81.3366C234.706 89.1858 243.599 93.0153 251.452 89.892C253.253 89.179 254.836 88.1537 256.181 86.9112L256.249 86.9859L256.969 86.1303C257.336 85.7365 257.689 85.3223 258.008 84.8946L261.819 80.3725C260.916 80.9836 259.931 81.5132 258.871 81.9342L258.878 81.9409Z" fill="#F7D5BA" stroke="#4F3B31" stroke-miterlimit="10"/>
<path d="M332.976 260.727H3.90085C2.77991 260.727 1.87636 259.817 1.87636 258.69C1.87636 257.562 2.77991 256.653 3.90085 256.653H332.976C334.096 256.653 335 257.562 335 258.69C335 259.817 334.096 260.727 332.976 260.727Z" fill="#4F3B31"/>
</svg>
