<svg width="26" height="33" viewBox="0 0 26 33" fill="none" xmlns="http://www.w3.org/2000/svg">
<path d="M25.212 22.0463C25.1662 21.6101 25.1188 21.1593 25.0824 20.7155C25.0351 20.1401 24.9517 19.5581 24.8708 18.9953C24.6868 17.7118 24.4963 16.3847 24.7284 15.06C24.8234 14.5174 24.9412 13.9827 25.0742 13.3895C25.1855 12.8937 25.269 12.3091 25.045 11.732C24.9411 11.4331 24.772 11.1611 24.55 10.9356C24.3281 10.7102 24.0586 10.5369 23.7614 10.4285C23.1567 10.2237 22.4694 10.3266 21.8267 10.719C20.5327 11.509 19.6493 12.5998 19.2014 13.9607C19.1697 14.0569 19.1367 14.1526 19.0966 14.2693L19.0671 14.3554L19.0375 14.315C18.9819 14.2383 18.9393 14.181 18.9005 14.1216C18.605 13.6705 18.3118 13.2179 18.021 12.7637C17.3837 11.774 16.7246 10.7507 16.0388 9.76983C14.9718 8.24371 13.8364 6.75266 12.7647 5.35635C12.4516 4.95838 12.0812 4.60912 11.6655 4.31997C11.0395 3.87781 10.2919 3.84274 9.55901 4.22131C8.84012 4.59279 8.76762 5.30208 8.79141 5.94653C8.79559 6.05783 8.79471 6.16914 8.7936 6.31105C8.7936 6.345 8.79361 6.38063 8.79292 6.41861C8.74492 6.37687 8.70055 6.33597 8.65867 6.29785C8.53777 6.17576 8.40111 6.0704 8.25228 5.98452C8.13973 5.92706 8.02714 5.86696 7.91431 5.80658C7.51123 5.56754 7.07856 5.38235 6.62735 5.25576C6.32713 5.18643 6.01472 5.18956 5.71595 5.26487C5.41717 5.34018 5.14058 5.48552 4.90908 5.68887C4.47318 6.08386 4.28036 6.66821 4.36648 7.33409C4.40683 7.64811 4.44523 7.96254 4.48544 8.292L4.53456 8.69256L4.47485 8.68811C4.38845 8.68185 4.31528 8.67656 4.24224 8.6696C3.93443 8.62838 3.62128 8.65623 3.32559 8.75115C3.0299 8.84606 2.75904 9.00566 2.53273 9.21832C2.32796 9.43083 2.17324 9.68634 2.07973 9.96623C1.98622 10.2461 1.95631 10.5434 1.99223 10.8363C2.04896 11.2847 2.1541 11.7257 2.30582 12.1515C2.34951 12.2898 2.39319 12.4279 2.4334 12.5661C2.49114 12.7495 2.56086 12.9289 2.6421 13.1031C2.66714 13.1603 2.69189 13.2164 2.71499 13.2713C2.70288 13.2834 2.69331 13.2935 2.6851 13.3018C2.67851 13.3081 2.67244 13.315 2.66689 13.3223C2.60391 13.3476 2.53934 13.3689 2.47363 13.386C1.55898 13.6053 0.983259 14.1878 0.714041 15.1668C0.530946 15.8322 0.567562 16.5339 0.826066 17.3125C1.31734 18.7621 1.99104 20.1434 2.83102 21.4228C4.63602 24.2013 6.73063 26.7802 9.07966 29.1168C10.3342 30.3806 11.5144 31.2634 12.7929 31.8945C13.8275 32.4118 14.9684 32.6809 16.1251 32.6804C16.9909 32.6749 17.8509 32.5384 18.6759 32.2759C21.1928 31.4949 23.0916 29.9442 24.3199 27.6667C24.9197 26.5544 25.4535 25.4519 25.3959 24.1961C25.3618 23.4774 25.2856 22.7499 25.212 22.0463ZM4.4614 16.0482C4.84929 16.6023 5.26654 17.1482 5.67016 17.6761C5.96345 18.0598 6.26657 18.4564 6.55569 18.8525C6.90755 19.3344 7.25263 19.8341 7.58613 20.3173C7.8008 20.6284 8.01559 20.9395 8.23361 21.2482C8.52579 21.6615 8.79922 21.8873 9.18545 21.6481C9.29334 21.5796 9.38628 21.4902 9.45881 21.385C9.53134 21.2798 9.58193 21.1611 9.60753 21.0359C9.63363 20.9211 9.63598 20.8022 9.61445 20.6864C9.59292 20.5705 9.54796 20.4605 9.48232 20.3627C8.64754 19.1383 7.95102 18.1573 7.29196 17.274C7.04292 16.9401 6.7843 16.6061 6.53415 16.2822C5.65526 15.1454 4.74643 13.97 4.10671 12.6465C3.87859 12.1524 3.67575 11.647 3.49889 11.1324L3.40147 10.8641C3.29198 10.5655 3.33998 10.3282 3.5438 10.159C3.74415 9.99202 3.97849 9.97061 4.28124 10.0903C4.91713 10.3317 5.4585 10.7711 5.82553 11.3438L6.11608 11.7911C7.01444 13.1745 7.94323 14.605 8.87193 16.0022C9.29906 16.6448 9.76794 17.2737 10.2215 17.8818L10.2466 17.9156C10.4331 18.168 10.6436 18.4019 10.8752 18.6137C11.0154 18.7472 11.1913 18.8372 11.3816 18.8729C11.572 18.9085 11.7686 18.8882 11.9476 18.8144C12.2281 18.7119 12.4082 18.5501 12.4683 18.3453C12.4931 18.2329 12.4908 18.1161 12.4615 18.0048C12.4321 17.8935 12.3766 17.7908 12.2996 17.7053C12.0565 17.3843 11.7941 17.0708 11.5402 16.7677C11.3584 16.5505 11.1703 16.3258 10.9914 16.1008C9.5547 14.2944 7.73316 11.8734 6.38721 9.16519C6.09504 8.57875 5.93813 7.90842 5.78898 7.21583C5.73458 6.96247 5.75613 6.78564 5.8531 6.68992C5.9537 6.59085 6.15055 6.57178 6.42199 6.63425C7.03925 6.781 7.58778 7.13451 7.9764 7.636C8.17945 7.88644 8.38348 8.13604 8.58856 8.3848C9.32164 9.28011 10.0798 10.2057 10.7687 11.156C11.4922 12.1529 12.1859 13.1972 12.8572 14.207C13.1612 14.6642 13.4651 15.1212 13.7727 15.5759C13.879 15.733 13.9757 15.8669 14.0683 15.9851C14.114 16.0482 14.1719 16.1014 14.2387 16.1415C14.3055 16.1815 14.3796 16.2077 14.4568 16.2183C14.5184 16.2244 14.5807 16.2177 14.6396 16.1985C14.6986 16.1794 14.7528 16.1483 14.7992 16.1069C14.9686 15.9361 15.0765 15.7135 15.1053 15.4745C15.1277 15.3264 15.0268 15.1674 14.9383 15.0269L14.9067 14.9769C14.5234 14.3584 14.1385 13.7409 13.7519 13.1244C13.0027 11.9261 12.2279 10.6871 11.485 9.45722C11.0114 8.66294 10.5827 7.84279 10.2008 7.00059C10.038 6.6136 9.94389 6.20122 9.92253 5.78195C9.89957 5.50244 9.97387 5.28943 10.1312 5.18244C10.2914 5.07378 10.5208 5.08392 10.7786 5.21122C11.0425 5.35176 11.2749 5.54484 11.4613 5.7786C12.0272 6.46284 12.5768 7.13651 13.083 7.85526C13.8475 8.94048 14.6095 10.0553 15.3465 11.1332C15.7109 11.6663 16.0758 12.1991 16.4416 12.7315C16.7083 13.1187 16.9762 13.5052 17.2452 13.8909C17.5612 14.3454 17.8763 14.8005 18.1905 15.2563C18.3079 15.4274 18.4205 15.602 18.5329 15.7766C18.6762 15.9993 18.8242 16.2281 18.9806 16.4473C19.1311 16.6676 19.312 16.8656 19.5179 17.0354C19.6402 17.1412 19.7963 17.2 19.958 17.2008C20.1198 17.2018 20.2765 17.1447 20.3999 17.0401C20.6329 16.857 20.7018 16.5833 20.599 16.2484C20.5685 16.1492 20.5327 16.051 20.497 15.9529C20.4317 15.7874 20.3797 15.6169 20.3414 15.4432C20.0576 13.946 21.201 12.3738 22.1354 11.8145C22.5174 11.5859 22.8911 11.4024 23.2623 11.6603C23.655 11.9332 23.5782 12.3525 23.4658 12.7586C23.2387 13.581 22.9795 14.6701 22.9927 15.8011C22.9944 15.9368 22.994 16.0726 22.9937 16.2085C22.9845 16.6216 23.0008 17.0348 23.0424 17.4459C23.1509 18.3332 23.2818 19.2324 23.4083 20.1021C23.4748 20.5602 23.5416 21.0184 23.6054 21.4768C23.6373 21.7057 23.6636 21.936 23.6899 22.1651C23.7177 22.4041 23.7455 22.6512 23.78 22.8937C24.0135 24.5402 23.5214 26.0743 22.1844 27.8678C20.7814 29.7497 18.6517 30.9765 16.487 31.1497H16.4219C13.8102 31.1497 12.2848 30.2823 10.8038 28.9811C9.66848 27.9835 8.23574 26.6141 7.22579 24.8655C7.03619 24.559 6.81977 24.2699 6.5792 24.0015C6.47304 23.8763 6.36331 23.7459 6.26147 23.6154C4.53291 21.401 3.30858 19.2171 2.51887 16.9389C2.3774 16.5235 2.32236 16.0834 2.35719 15.646C2.38028 15.3857 2.47143 15.2008 2.6203 15.1097C2.70044 15.0631 2.79194 15.0395 2.88463 15.0419C3.01893 15.0461 3.15118 15.076 3.27417 15.1301C3.75255 15.3108 4.16624 15.6306 4.4614 16.0482Z" fill="#E1823A"/>
<path d="M13.4461 5.26895L13.5271 5.36427C13.6832 5.56187 13.8869 5.71654 14.1192 5.81378C14.3171 5.88335 14.6723 5.91577 14.8419 5.77316C15.004 5.63653 15.0545 5.26144 14.981 5.06164C14.8838 4.83461 14.7552 4.62233 14.5991 4.43098C14.5451 4.35794 14.4913 4.28502 14.4408 4.21086C14.3642 4.09956 14.284 3.98978 14.1923 3.86526C14.1697 3.83451 14.1462 3.80279 14.1227 3.76982C15.2398 3.64105 16.3715 3.7408 17.4489 4.06298C20.2115 4.92781 21.9846 6.24314 23.029 8.20237C23.0388 8.22032 23.0482 8.23938 23.058 8.25886C23.0959 8.36673 23.1695 8.45843 23.2666 8.51877C23.3704 8.56182 23.4813 8.58486 23.5936 8.58667C23.6561 8.58777 23.7183 8.57696 23.7767 8.55481C23.9103 8.5011 23.9922 8.2714 23.9901 8.13741C23.9829 7.95753 23.9284 7.78273 23.8322 7.63055C23.7359 7.47751 23.642 7.31738 23.5512 7.16197C23.3238 6.73113 23.0429 6.33072 22.7151 5.9703C20.3463 3.5934 17.4962 2.48691 14.2421 2.68253C14.1447 2.68823 14.044 2.6871 13.9046 2.68557L13.8071 2.68448L14.3476 2.23453C14.4148 2.17888 14.4828 2.12406 14.5507 2.06938C14.7037 1.94666 14.8609 1.81978 15.0062 1.68245C15.1263 1.56892 15.4077 1.30304 15.1732 0.966625C14.9265 0.612399 14.5778 0.835001 14.4466 0.918341L14.4243 0.932268C13.7608 1.35481 13.0747 1.79166 12.4196 2.25163C11.8515 2.65079 11.7642 3.09058 12.1449 3.63584C12.5433 4.20585 13.0023 4.74637 13.4461 5.26895Z" fill="#E1823A"/>
</svg>
