<svg width="28" height="33" viewBox="0 0 28 33" fill="none" xmlns="http://www.w3.org/2000/svg">
<path d="M27.2548 7.50874C26.8078 7.18874 26.1762 7.17036 25.5223 7.45877C25.0524 7.67494 24.6092 7.94479 24.2015 8.26297C23.1275 9.07496 22.216 10.1637 21.3326 11.6893C21.2552 11.8233 21.1747 11.9555 21.0942 12.0877L21.0917 12.0921C21.0623 11.6569 21.0578 11.2205 21.0781 10.7848C21.0822 10.6449 21.0863 10.5057 21.0886 10.3664L21.0994 9.73703C21.1186 8.66129 21.1383 7.54809 21.109 6.45424C21.0825 5.46986 20.8965 4.66455 20.54 3.99215C20.254 3.45318 19.8455 3.10704 19.3583 2.99252C18.8711 2.878 18.3519 3.00423 17.8559 3.35841C17.6818 3.48958 17.5173 3.63321 17.3638 3.78816C17.3142 3.83582 17.2635 3.88457 17.2106 3.93414C17.2029 3.88103 17.1958 3.82954 17.1887 3.7793C17.1676 3.59998 17.1359 3.4221 17.0934 3.2466C17.0678 3.15006 17.0437 3.05257 17.0193 2.9548C16.943 2.59498 16.8298 2.24402 16.6813 1.90751C16.3913 1.30918 15.9487 0.926409 15.4352 0.829864C14.9073 0.730188 14.3353 0.935934 13.825 1.40885C13.0975 2.08317 12.7918 2.98243 12.6068 3.69065C12.065 5.76534 11.8956 7.86578 11.7443 10.1996C11.6919 11.0091 11.671 11.8116 11.649 12.6614C11.6398 13.0137 11.6304 13.3717 11.6185 13.7372L11.4972 13.671C11.3778 13.6058 11.286 13.5555 11.1922 13.5094C10.3357 13.0865 9.30349 12.6624 8.1504 12.7264L8.01001 12.7339C7.47117 12.7482 6.93442 12.8063 6.40499 12.9076C4.3322 13.3655 2.87735 14.6055 2.08089 16.5931C1.83741 17.2007 1.84489 17.7697 2.10266 18.2388C2.36588 18.7177 2.88048 19.0507 3.55153 19.1761C4.19306 19.3012 4.85817 19.1799 5.41433 18.8366C5.5505 18.7549 5.68573 18.6708 5.82082 18.5869C5.98231 18.4864 6.14368 18.386 6.30735 18.2895C7.14766 17.7941 8.05263 17.7334 8.99684 18.1091C9.32126 18.2405 9.6138 18.44 9.85479 18.6938C10.0958 18.9477 10.2797 19.2502 10.3941 19.5811C10.5099 19.8998 10.5562 20.2399 10.5299 20.578C10.5035 20.9162 10.405 21.2449 10.2412 21.5419C10.0261 21.919 9.75648 22.262 9.44089 22.5599C9.03379 22.9622 8.4955 23.2045 7.92443 23.2427C7.35337 23.2807 6.78765 23.112 6.33075 22.7673C5.94818 22.463 5.59043 22.1287 5.26087 21.7675C5.10632 21.6069 4.94632 21.4407 4.78427 21.2829C4.65096 21.1534 4.51927 21.0151 4.39182 20.8812C4.11148 20.5671 3.80138 20.281 3.46586 20.0267C2.78338 19.5446 1.977 19.4441 1.30881 19.7581C0.640622 20.0721 0.205815 20.7521 0.142087 21.5802C0.105763 22.1195 0.137784 22.6612 0.2374 23.1926C0.446149 24.3651 0.97585 25.43 1.54668 26.5082C2.76445 28.8081 4.42248 30.4348 6.47471 31.3432C8.43842 32.2123 10.4002 32.6477 12.3413 32.6475C13.6715 32.646 14.9938 32.4427 16.263 32.0444C18.6124 31.3136 20.2694 29.7654 21.1879 27.4426C21.8219 25.8393 22.2228 24.0577 22.4134 21.9958C22.5469 20.5537 22.684 19.26 22.8325 18.0408C22.8587 17.7052 22.9612 17.38 23.1321 17.0901C23.6564 16.3028 24.2035 15.5105 24.7327 14.7457C25.2187 14.0427 25.7211 13.3158 26.2049 12.5941C26.6734 11.8972 27.102 11.1743 27.4889 10.429C27.694 10.0276 27.8206 9.59073 27.8619 9.14183C27.9253 8.42394 27.7036 7.82983 27.2548 7.50874ZM11.6252 22.4507C12.2829 21.4474 12.3556 20.1915 11.8247 19.0049C11.2321 17.6808 10.0148 16.7 8.72354 16.5059C7.47078 16.3179 6.38142 16.527 5.39418 17.1459C5.3182 17.1936 5.24358 17.2445 5.16882 17.2957C5.00153 17.4196 4.82073 17.5241 4.62986 17.6071C4.36544 17.7176 4.07965 17.7673 3.79349 17.7528C3.562 17.7285 3.40364 17.6559 3.32467 17.537C3.2397 17.4091 3.23602 17.2139 3.31364 16.9568C3.64426 15.8629 4.38392 15.0549 5.51236 14.5554C7.00492 13.8946 8.39917 13.8882 9.77354 14.5343L9.84571 14.5682C10.5421 14.895 11.1999 15.2037 11.6016 15.8986C11.8087 16.257 12.1485 16.4054 12.511 16.2954C12.9603 16.1592 12.982 15.745 12.9976 15.443C13.0317 14.7861 13.0618 14.1288 13.092 13.4715C13.1608 11.9688 13.2321 10.4152 13.3507 8.89141C13.4696 7.37284 13.6629 5.58246 14.195 3.81674C14.3279 3.4029 14.5105 3.00671 14.7389 2.63684C14.8297 2.50864 14.9435 2.39841 15.0745 2.31179C15.1212 2.27611 15.1677 2.24072 15.2115 2.20423C15.5596 2.45111 15.6121 2.77887 15.6402 3.14898C15.6571 3.3708 15.6754 3.59276 15.6938 3.81485C15.7898 4.74766 15.8299 5.68535 15.8138 6.62295C15.7422 8.51055 15.6181 10.4282 15.4981 12.2829C15.4533 12.9755 15.4094 13.6682 15.3662 14.3608C15.3593 14.4754 15.3409 14.5923 15.323 14.7063C15.3087 14.7979 15.2944 14.8895 15.2852 14.9815C15.2254 15.58 15.4301 15.9934 15.8323 16.0875C15.9141 16.106 15.999 16.1071 16.0812 16.0907C16.1635 16.0743 16.2414 16.0406 16.3097 15.9922C16.4342 15.8958 16.5378 15.7751 16.6146 15.6377C16.6913 15.5002 16.7395 15.3486 16.7562 15.1922C16.8539 14.5803 16.9234 13.9195 16.9686 13.1718C17.051 11.8076 17.1239 10.4201 17.1944 9.07824C17.224 8.51331 17.2538 7.94838 17.2842 7.38345C17.3337 6.46267 17.7033 5.61324 18.4144 4.7856C18.6291 4.53559 18.8229 4.42188 18.9776 4.45729C19.1249 4.49106 19.2446 4.66592 19.3234 4.96304C19.496 5.56002 19.5901 6.17691 19.6034 6.7982C19.606 8.23793 19.5489 9.70257 19.4935 11.119L19.4825 11.4036C19.4527 12.1737 19.4083 12.956 19.3655 13.7135C19.3394 14.1755 19.3132 14.6375 19.2901 15.0998C19.2808 15.2899 19.288 15.4806 19.3115 15.6694C19.3179 15.8138 19.3725 15.952 19.4666 16.0616C19.5606 16.1714 19.6888 16.2464 19.8305 16.2747C20.1501 16.3412 20.3984 16.2138 20.5893 15.8858C21.2463 14.7567 21.9361 13.5829 22.6397 12.397C23.4335 11.059 24.2478 10.1134 25.2022 9.42125C25.4323 9.26106 25.6709 9.11355 25.9171 8.97938C26.0172 8.92246 26.1172 8.86553 26.2166 8.80684L26.3332 8.88651C26.3031 8.97761 26.2759 9.07019 26.2486 9.16279C26.1897 9.39663 26.1039 9.62284 25.9928 9.83684C25.5474 10.6091 25.0625 11.3432 24.6896 11.8966L24.5777 12.0625C23.8728 13.1093 23.1437 14.1917 22.3901 15.2291C21.3996 16.5925 21.0557 18.1159 20.8423 19.9828C20.6184 21.9477 20.3647 24.1748 19.64 26.2586C18.8502 28.5281 17.2675 29.9021 14.9347 30.3425C12.553 30.8065 10.0892 30.5979 7.81951 29.7398C5.85866 29.0021 4.31027 27.617 3.21845 25.6228C2.63292 24.5529 2.09164 23.4924 1.90618 22.2853C1.8633 22.0169 1.85904 21.7437 1.89352 21.4742C1.89541 21.426 1.90914 21.3792 1.93351 21.3375C1.95788 21.296 1.99212 21.2611 2.03321 21.2359C2.06086 21.2229 2.09115 21.2162 2.12174 21.2166C2.18593 21.2192 2.24828 21.2387 2.30256 21.273C2.51383 21.4033 2.70628 21.5619 2.8745 21.7445L2.96463 21.8382C3.33229 22.2195 3.7118 22.6136 4.04814 23.0296C4.6801 23.8116 5.53648 24.3777 6.66642 24.7606C7.91456 25.1827 9.14225 24.9545 10.2173 24.0989C10.8327 23.6079 11.3155 22.9231 11.6252 22.4507Z" fill="#E1823A"/>
</svg>
