<svg width="30" height="33" viewBox="0 0 30 33" fill="none" xmlns="http://www.w3.org/2000/svg">
<path d="M29.5153 16.9849C29.4573 16.1645 29.2757 15.3576 28.9768 14.5914C28.7882 14.0299 28.4088 13.5523 27.9045 13.2417C27.4 12.9311 26.8028 12.8072 26.2165 12.8915C25.8088 12.956 25.4113 13.0732 25.0337 13.2401C24.8737 13.3024 24.7086 13.3666 24.54 13.4248C24.3613 13.0038 24.0871 12.6301 23.7391 12.3333C23.3911 12.0366 22.9788 11.8249 22.5348 11.7149C21.4539 11.4255 20.5636 11.6643 19.8886 12.4243C19.5262 11.8415 19.033 11.2512 18.1668 11.1012C17.4276 10.9724 16.8283 11.2589 16.173 11.7426C16.1514 11.4349 16.132 11.1338 16.1128 10.8378C16.0639 10.0861 16.0179 9.37629 15.947 8.66275C15.9182 8.37403 15.8903 8.08501 15.8633 7.79568C15.7433 6.53414 15.6192 5.22952 15.3904 3.96414C15.2693 3.29352 14.9605 2.55537 14.4464 1.70737C13.8911 0.791369 12.9548 0.591832 11.9427 1.17383C11.0228 1.70291 10.805 2.61352 10.7181 3.34783C10.6513 3.91168 10.6411 4.48968 10.6302 5.04875L10.6248 5.32414C10.6156 5.76363 10.6057 6.20326 10.5953 6.64306C10.5608 8.14906 10.525 9.70645 10.5255 11.2386C10.5255 12.3792 10.561 13.4984 10.5979 14.6832C10.6133 15.1483 10.6273 15.6171 10.6397 16.0912C10.6309 16.0838 10.6222 16.0766 10.6134 16.0695C10.5102 15.9843 10.4182 15.9083 10.3223 15.8377C8.76418 14.6904 7.09326 14.2815 5.35757 14.6223C4.97667 14.6867 4.61863 14.8475 4.31738 15.0894C4.01615 15.3313 3.78172 15.6462 3.63649 16.0041C3.49423 16.3837 3.44994 16.7931 3.50766 17.1943C3.5654 17.5955 3.72329 17.9757 3.9668 18.2998C4.21667 18.6217 4.50107 18.9154 4.81483 19.1754L4.91437 19.2643C6.06035 20.2592 7.0141 21.4558 7.72821 22.7949C8.70252 24.6735 9.8002 26.6594 11.0848 28.8658C11.419 29.44 11.9545 29.9109 12.3837 30.2571C13.1931 30.9098 14.1614 31.4442 15.4308 31.9385C16.5545 32.3808 17.7513 32.6078 18.9588 32.6075C20.3283 32.5911 21.6846 32.3371 22.9673 31.8566C23.9137 31.5018 24.7897 30.9823 25.5551 30.3223C26.9408 29.1706 27.9063 27.5977 28.5071 25.5138C29.3099 22.7457 29.6505 19.864 29.5153 16.9849ZM13.3684 28.7529C13.0917 28.5688 12.85 28.3368 12.6547 28.0678C12.176 27.3797 11.7329 26.6674 11.3273 25.9337C10.7102 24.7883 10.0871 23.5591 9.47529 22.2797C8.53806 20.3203 7.33774 18.7763 5.80574 17.5594C5.54743 17.352 5.33072 17.0977 5.167 16.8098C5.12167 16.7378 5.09227 16.6571 5.08075 16.5728C5.06924 16.4886 5.07587 16.4028 5.10021 16.3214C5.13866 16.2262 5.19657 16.14 5.27021 16.0685C5.34386 15.997 5.4316 15.9416 5.52787 15.906C5.82975 15.7729 6.15626 15.7047 6.48618 15.706C6.66618 15.7067 6.84575 15.7244 7.02238 15.7591C8.36869 16.0172 9.26852 16.52 9.85314 17.3412C10.0558 17.6623 10.2123 18.0103 10.3181 18.3751C10.353 18.4769 10.3879 18.5785 10.4242 18.678C10.5551 19.0354 10.7388 19.3657 11.1916 19.3657H11.201C11.6036 19.3615 11.883 19.1177 11.9879 18.6789C12.0459 18.4438 12.0742 18.2023 12.0722 17.9602C12.0414 16.0949 12.0013 14.1074 11.9511 11.8841C11.9416 11.4588 11.9244 11.0266 11.9079 10.6086C11.8762 9.81183 11.8436 8.98783 11.8618 8.17983C11.8967 6.63398 12.0025 5.06306 12.105 3.54398L12.1164 3.37783C12.1699 2.58091 12.4548 2.18321 13.0672 2.05475C13.5565 2.38245 13.8545 2.90491 14.0036 3.69552C14.2082 4.74992 14.3496 5.81561 14.4268 6.88691C14.5398 8.5606 14.6234 10.2648 14.7037 11.9128C14.7388 12.6267 14.7747 13.3405 14.8114 14.0541C14.8319 14.4434 14.9209 14.8572 15.4258 14.9752C15.9257 15.0923 16.195 14.6688 16.3733 14.2868C16.4162 14.1944 16.4585 14.1021 16.501 14.0098C16.6894 13.5546 16.9262 13.1209 17.2076 12.7164C17.4537 12.3906 17.7665 12.232 18.0633 12.2811C18.3663 12.3309 18.6159 12.5874 18.748 12.9844C18.8426 13.3241 18.8934 13.6745 18.8988 14.0271C18.9054 14.1394 18.9123 14.2512 18.9216 14.362C18.9259 14.4555 18.9216 14.5491 18.9086 14.6418C18.8819 14.7886 18.8873 14.9394 18.924 15.084C19.0116 15.3138 19.1845 15.5009 19.4068 15.606C19.4742 15.6354 19.5468 15.6512 19.6203 15.6524C19.6937 15.6536 19.7668 15.6402 19.8351 15.6129C19.9086 15.5801 19.975 15.5331 20.0302 15.4745C20.0853 15.4159 20.1283 15.347 20.1566 15.2717C20.1969 15.1662 20.229 15.0577 20.2528 14.9474C20.2736 14.8524 20.3005 14.7589 20.3331 14.6674C20.3793 14.5481 20.4226 14.4275 20.4665 14.3069C20.5897 13.9361 20.743 13.5759 20.9246 13.23C21.184 12.77 21.4989 12.6495 22.0468 12.8004C22.7439 12.9924 23.182 13.4281 23.3139 14.0608C23.3808 14.4339 23.4186 14.8117 23.4271 15.1908C23.4326 15.3064 23.4383 15.4215 23.4456 15.5372C23.468 15.896 23.5533 16.2791 24.0188 16.3988C24.4786 16.518 24.7236 16.2274 24.9202 15.8958C24.968 15.8152 25.0149 15.7338 25.0619 15.6521C25.2042 15.3914 25.3639 15.1404 25.5399 14.9011C25.8982 14.4374 26.3254 14.2035 26.7119 14.2601C27.0785 14.3134 27.3871 14.6186 27.5808 15.1197C27.9076 15.9124 28.1025 16.7532 28.1577 17.6088C28.2336 19.6069 27.9851 21.6963 27.3522 24.3834C27.0597 25.606 26.5313 26.7597 25.7966 27.7798C24.9599 28.9543 23.7322 29.7798 22.044 30.3029C19.022 31.2392 16.1839 30.7315 13.3684 28.7529Z" fill="#E1823A"/>
<path d="M1.26122 12.5066C1.30399 12.5066 1.34961 12.5055 1.39802 12.5032C2.44786 12.4534 3.51234 12.3626 4.54187 12.2747L5.17266 12.2212C5.38374 12.2035 5.61633 12.168 5.74049 12.0378C5.8251 11.9494 6.09958 11.6378 6.0862 11.3397C6.07743 11.1415 5.77552 10.8863 5.55675 10.8406C5.26295 10.8013 4.96424 10.8242 4.67987 10.9078L4.4968 10.9494C3.8824 11.1191 3.24472 11.1892 2.60814 11.1572L8.63404 3.97121C8.65635 4.12705 8.67603 4.27582 8.69557 4.41905C8.75203 4.84028 8.8006 5.20367 8.88013 5.56859C9.00844 6.15459 9.31477 6.47321 9.69369 6.42567C9.97661 6.38921 10.2959 6.17844 10.2077 5.38213C10.0976 4.38952 9.93953 3.40336 9.79938 2.56982C9.69169 1.9289 9.53507 1.80306 8.8763 1.82552C8.07753 1.85183 7.26587 1.88829 6.48095 1.92352C6.04557 1.94311 5.6101 1.96214 5.17461 1.9806C4.96107 1.98952 4.5637 2.00583 4.52617 2.45413C4.51575 2.53662 4.52201 2.62038 4.54458 2.70039C4.56715 2.78042 4.60557 2.85508 4.65755 2.91998C4.71381 2.98275 4.78204 3.03359 4.85827 3.06953C4.93452 3.10547 5.01717 3.12576 5.10137 3.12921C5.47998 3.15998 5.86584 3.16582 6.23892 3.17182C6.43892 3.1749 6.63892 3.17813 6.83769 3.18475C6.97938 3.18967 7.12029 3.20228 7.28383 3.2169L7.39433 3.22675L1.49372 10.6771C1.49372 10.5557 1.4949 10.4414 1.49567 10.3326C1.49783 9.98567 1.49987 9.68644 1.49064 9.39059L1.48771 9.29828C1.46971 8.73182 1.45112 8.14628 1.38758 7.57351C1.35156 7.43519 1.27103 7.31253 1.15846 7.22444C1.11621 7.18372 1.07623 7.14073 1.03864 7.09567L0.984782 7.02798L0.813208 7.19044C0.713669 7.28382 0.610758 7.38028 0.514605 7.48182C0.471212 7.54128 0.451124 7.61455 0.458039 7.68782C0.460962 8.05951 0.461412 8.43121 0.46172 8.8029C0.462797 9.75475 0.46389 10.7391 0.509121 11.7058C0.524506 12.0478 0.5897 12.2443 0.725392 12.3624C0.880008 12.4752 1.07092 12.5265 1.26122 12.5066Z" fill="#E1823A"/>
</svg>
